<svg width="102" height="33" viewBox="0 0 102 33" fill="none" xmlns="http://www.w3.org/2000/svg">
<g clip-path="url(#clip0_1221_4041)">
<path d="M64.309 28.775C64.3156 29.2259 64.234 29.6735 64.0694 30.0888C63.9048 30.5041 63.6609 30.8781 63.3532 31.1869C62.7444 31.8251 61.9255 32.1827 61.0726 32.1827C60.2197 32.1827 59.4007 31.8251 58.7919 31.1869C58.4849 30.8776 58.2414 30.5034 58.0769 30.0882C57.9124 29.6731 57.8304 29.2259 57.8362 28.775C57.8346 28.0913 58.0233 27.4225 58.3783 26.8537C58.7333 26.2849 59.2387 25.8418 59.8301 25.5806C60.4215 25.3194 61.0722 25.2519 61.6996 25.3869C62.3269 25.5219 62.9025 25.8531 63.3532 26.3384C63.6598 26.6533 63.9028 27.032 64.0671 27.451C64.2315 27.8701 64.3138 28.3207 64.309 28.775Z" fill="black"/>
<path d="M75.1159 32.2045C72.4201 32.2045 70.3086 31.248 68.7816 29.3349C67.2546 27.4218 66.4922 24.8574 66.4944 21.6415C66.4857 20.3046 66.6942 18.9762 67.1107 17.7155C67.5168 16.5042 68.1218 15.3799 68.897 14.3952C69.6644 13.4195 70.6185 12.6307 71.695 12.0819C72.8372 11.4921 74.0914 11.1921 75.3598 11.2051C77.1878 11.2051 78.6753 11.6746 79.8222 12.6136C80.377 13.0556 80.8233 13.6347 81.1229 14.3012C81.4225 14.9678 81.5665 15.702 81.5426 16.4409C81.5541 17.0713 81.3963 17.692 81.0877 18.2296C80.9277 18.491 80.7045 18.7014 80.4416 18.8384C80.1788 18.9754 79.8862 19.0339 79.5948 19.0078C78.9669 19.0488 78.348 18.8321 77.8645 18.4021C77.6777 18.2361 77.5262 18.0292 77.4205 17.7954C77.3147 17.5615 77.2571 17.3062 77.2516 17.0465C77.2547 16.4168 77.331 15.7899 77.479 15.1804C77.5971 14.7179 77.6852 14.2474 77.7426 13.772C77.5223 13.3607 77.1585 13.0594 76.7309 12.934C76.2606 12.7895 75.7733 12.7184 75.284 12.7227C74.6865 12.7206 74.0962 12.8626 73.5571 13.1382C72.9152 13.4984 72.3662 14.022 71.9587 14.6628C71.4279 15.4894 71.0436 16.4132 70.825 17.388C70.5134 18.7282 70.3671 20.1059 70.3899 21.4866C70.3899 23.9935 70.9095 26.0368 71.9488 27.6167C72.988 29.1964 74.3525 29.9875 76.0421 29.9898C77.1346 30.0308 78.2108 29.6978 79.1137 29.0391C80.0567 28.2694 80.8419 27.3011 81.4207 26.1941L82.6299 27.0427C81.8441 28.5754 80.711 29.8731 79.3345 30.8173C78.0845 31.7082 76.6185 32.1903 75.1159 32.2045Z" fill="black"/>
<path d="M101.505 21.5217C101.508 22.928 101.301 24.3258 100.892 25.6624C100.522 26.9261 99.9176 28.0972 99.1155 29.106C98.2929 30.1447 97.2583 30.9665 96.0898 31.5073C94.8682 32.0483 93.5561 32.3166 92.2341 32.2961C91.073 32.3052 89.9216 32.0658 88.8494 31.5918C87.7739 31.1121 86.802 30.4015 85.995 29.5039C85.1472 28.5503 84.4838 27.4282 84.0407 26.2011C83.5299 24.7953 83.2794 23.2971 83.3022 21.7893C83.3022 18.6814 84.1492 16.1369 85.8432 14.1557C87.5373 12.1745 89.7584 11.1851 92.5075 11.1875C95.1179 11.1875 97.2697 12.1264 98.9637 14.0043C100.658 15.8822 101.505 18.3879 101.505 21.5217ZM97.5928 21.5605C97.5863 20.4867 97.4916 19.4157 97.3089 18.3598C97.1595 17.3682 96.8731 16.4058 96.4586 15.5042C96.0865 14.7087 95.5422 14.0195 94.8706 13.4937C94.1673 12.9727 93.326 12.7074 92.4708 12.7367C91.5871 12.7082 90.7164 12.9767 89.9828 13.5043C89.2713 14.0501 88.6968 14.776 88.3116 15.6169C87.8881 16.5006 87.6009 17.4519 87.4614 18.4337C87.3006 19.4423 87.2174 20.4633 87.2141 21.4865C87.2076 22.6884 87.3055 23.8885 87.5079 25.0709C87.6792 26.0946 87.995 27.0846 88.4438 28.0074C88.8249 28.811 89.3781 29.5071 90.0587 30.039C90.7702 30.549 91.6148 30.8065 92.4708 30.7749C94.0465 30.7749 95.2933 29.9604 96.2113 28.3313C97.1302 26.7023 97.5912 24.4453 97.5961 21.5605H97.5928Z" fill="black"/>
<path d="M18.0668 31.2947C17.466 31.5265 16.9419 31.712 16.488 31.8546C15.9863 32.0053 15.4671 32.0786 14.946 32.0721C14.095 32.1191 13.2544 31.8551 12.5628 31.3233C11.9395 30.7721 11.5332 29.9904 11.4246 29.1338H11.3112C10.5589 30.0537 9.65358 30.8166 8.64101 31.3839C7.56982 31.9297 6.39273 32.1961 5.20644 32.1612C4.56692 32.1867 3.92901 32.077 3.32931 31.8382C2.7296 31.5996 2.17992 31.2368 1.71182 30.7706C1.25639 30.301 0.899029 29.734 0.663186 29.1065C0.427342 28.479 0.318346 27.8053 0.343349 27.1297C0.333581 26.4208 0.437437 25.7152 0.650421 25.0436C1.04679 23.8778 1.82127 22.9022 2.83331 22.2943C3.30419 22.0029 3.79514 21.7501 4.30191 21.5383C4.876 21.3006 6.04087 20.8702 7.79653 20.2474C9.01196 19.8557 10.1989 19.3694 11.3479 18.7925V16.7528C11.3313 16.4097 11.2956 16.0679 11.2411 15.7294C11.171 15.2297 11.0196 14.747 10.7939 14.303C10.525 13.7863 10.1564 13.3365 9.71242 12.9836C9.12539 12.5733 8.42991 12.3769 7.72977 12.4238C7.17065 12.4171 6.6155 12.5248 6.09428 12.7411C5.69945 12.8793 5.33655 13.1053 5.02954 13.4044C5.04846 13.8122 5.11004 14.2165 5.21312 14.6097C5.32724 15.0913 5.38774 15.5857 5.39335 16.0824C5.38665 16.3338 5.32954 16.5806 5.22589 16.8064C5.12225 17.0322 4.97448 17.2316 4.79257 17.3911C4.32774 17.8098 3.73071 18.0228 3.12369 17.9866C2.85106 18.0095 2.57756 17.9558 2.33043 17.8306C2.08331 17.7055 1.87117 17.5134 1.71516 17.2734C1.39213 16.7595 1.23436 16.1471 1.26567 15.529C1.29698 14.9108 1.51567 14.3203 1.88872 13.8466C2.34041 13.2398 2.88696 12.7209 3.50419 12.3132C4.15807 11.8938 4.86051 11.5678 5.59362 11.3432C6.36283 11.0771 7.16496 10.9352 7.97343 10.9225C8.9138 10.9108 9.85326 10.9896 10.7805 11.1579C11.5689 11.3093 12.3131 11.6562 12.9533 12.1706C13.6184 12.6926 14.132 13.4046 14.4353 14.2245C14.8071 15.2934 14.9795 16.4297 14.9427 17.5694C14.9427 19.5212 14.9237 21.2494 14.8859 22.7543C14.8481 24.2591 14.8303 25.9102 14.8325 27.7074C14.8134 28.1472 14.9019 28.5848 15.0895 28.9769C15.2841 29.312 15.5582 29.5863 15.8839 29.772C16.1674 29.9191 16.4802 29.9901 16.7951 29.9789C17.2089 29.9789 17.6328 29.9789 18.0668 29.9789V31.2947ZM11.3913 20.4935C10.3065 20.85 9.35525 21.1675 8.54089 21.4955C7.73953 21.8121 6.97289 22.2211 6.25449 22.7151C5.64788 23.1448 5.13271 23.7062 4.7425 24.3625C4.35804 25.0487 4.16575 25.8383 4.18843 26.6376C4.18843 27.7692 4.46546 28.6013 5.01953 29.1338C5.60512 29.6757 6.36146 29.9599 7.13566 29.929C7.9814 29.9456 8.81318 29.6977 9.52882 29.2158C10.1942 28.7708 10.7834 28.2076 11.2711 27.5505L11.3913 20.4935Z" fill="black"/>
<path d="M39.8727 31.2948L33.2874 31.7441L33.0003 31.4552V29.576L32.8501 29.5331C32.157 30.3483 31.3199 31.0088 30.3868 31.4766C29.4528 31.9708 28.4251 32.2294 27.3829 32.2326C26.3049 32.2323 25.2412 31.9702 24.2721 31.4659C23.2676 30.9528 22.3768 30.2175 21.6586 29.3085C20.8703 28.3075 20.2606 27.1605 19.8596 25.9244C19.4038 24.5177 19.1779 23.0376 19.192 21.549C19.1857 20.1294 19.4256 18.7209 19.8997 17.3947C20.3476 16.1316 21.0095 14.9675 21.8522 13.9607C22.6553 13.0277 23.6303 12.2822 24.716 11.7712C25.8007 11.2334 26.9814 10.9524 28.1773 10.9475C29.0525 10.946 29.9243 11.0659 30.7707 11.304C31.5344 11.5077 32.2712 11.8133 32.9636 12.2134V5.19558C32.9696 4.66028 32.879 4.12874 32.6966 3.63014C32.5464 3.20554 32.2873 2.83476 31.9489 2.56035C31.5086 2.26827 31.0166 2.07646 30.5037 1.99693C29.854 1.87673 29.1989 1.79223 28.5411 1.74375V0.470706L36.2546 0L36.5417 0.306671V27.5078C36.5302 27.9313 36.6197 28.3509 36.802 28.7273C36.985 29.0716 37.244 29.3629 37.5563 29.576C37.881 29.7639 38.242 29.8689 38.611 29.8826C39.0717 29.9219 39.4922 29.9504 39.8727 29.9646V31.2948ZM32.9636 27.7538V15.9398C32.6961 15.073 32.2289 14.2918 31.6051 13.6683C31.2148 13.3153 30.7756 13.029 30.3034 12.8196C29.7494 12.5846 29.157 12.4706 28.5611 12.4844C27.8142 12.4784 27.0809 12.6971 26.445 13.1156C25.7584 13.5846 25.1744 14.206 24.7327 14.9377C24.2064 15.8336 23.8272 16.8189 23.6112 17.8511C23.326 19.1361 23.1881 20.4532 23.2007 21.7736C23.1896 22.823 23.2927 23.87 23.5078 24.8939C23.7075 25.8201 24.0565 26.7021 24.5391 27.5006C24.9693 28.249 25.5567 28.8802 26.2547 29.3442C26.9998 29.8289 27.8591 30.0764 28.7313 30.0574C29.6246 30.0961 30.5082 29.8476 31.268 29.3442C31.899 28.9 32.4697 28.3648 32.9636 27.7538Z" fill="black"/>
<path d="M59.6117 12.7305C59.0327 12.8426 58.478 13.0688 57.9763 13.3972C57.3755 13.837 56.9108 14.4576 56.6411 15.1803C55.8912 17.006 55.1124 18.9078 54.3048 20.8857C53.497 22.8636 52.6604 24.9462 51.7947 27.1333C51.5411 27.7609 51.2696 28.5038 50.9803 29.362C50.6933 30.2214 50.4296 31.0487 50.1859 31.8367H48.6939C47.4857 28.6393 46.3732 25.7176 45.3563 23.0717C44.3394 20.4257 43.2802 17.7227 42.1787 14.9627C41.9297 14.3419 41.4955 13.8266 40.9437 13.4971C40.4157 13.1661 39.8354 12.9413 39.2314 12.8338V11.493H47.9597V12.9194C47.4742 12.9516 46.9932 13.0376 46.5244 13.1762C45.9504 13.3331 45.6633 13.547 45.6633 13.818C45.6827 13.9278 45.7152 14.0344 45.7601 14.1354C45.8235 14.3066 45.8869 14.492 45.9504 14.7202C46.4755 16.1109 47.2154 18.0532 48.1699 20.547C49.1246 23.0408 49.9033 25.0519 50.5064 26.5806C50.967 25.4109 51.5444 23.9489 52.2386 22.2052C52.9329 20.4614 53.6839 18.5109 54.4883 16.357C54.6152 16.0004 54.7386 15.6438 54.8521 15.3229C54.9665 15.0129 55.0253 14.6826 55.0257 14.3494C55.0212 14.2268 54.9902 14.107 54.9352 13.9994C54.8802 13.8917 54.8027 13.7992 54.7086 13.7289C54.4792 13.5319 54.2254 13.3699 53.9543 13.2475C53.6757 13.1166 53.3863 13.0139 53.0898 12.9408C52.8094 12.8731 52.5824 12.8231 52.4022 12.7982V11.493H59.6184L59.6117 12.7305Z" fill="black"/>
</g>
<defs>
<clipPath id="clip0_1221_4041">
<rect width="102" height="33" fill="white"/>
</clipPath>
</defs>
</svg>
