<svg width="169" height="34" viewBox="0 0 169 34" fill="none" xmlns="http://www.w3.org/2000/svg">
<path d="M0 16.659V16.5688C0 7.45803 6.86084 0 16.7007 0C21.5061 0 24.7559 1.28467 27.4086 3.24986C28.1378 3.79845 28.7836 4.80536 28.7836 6.04142C28.7836 7.96495 27.2281 9.47184 25.3045 9.47184C24.3393 9.47184 23.7004 9.10379 23.2005 8.78436C21.2353 7.31914 19.1728 6.49974 16.659 6.49974C11.2565 6.49974 7.36776 10.9857 7.36776 16.4785V16.5688C7.36776 22.0616 11.1662 26.6378 16.659 26.6378C19.6312 26.6378 21.6033 25.7212 23.6171 24.124C24.1657 23.6657 24.9018 23.3463 25.7212 23.3463C27.5058 23.3463 29.0197 24.8115 29.0197 26.5962C29.0197 27.6933 28.4711 28.5613 27.8322 29.1099C24.9504 31.6237 21.5616 33.1376 16.4368 33.1376C7.00666 33.1376 0 25.8601 0 16.659Z" fill="black"/>
<path d="M70.2544 4.0761C70.2544 2.1109 71.8099 0.548462 73.7751 0.548462H83.3372C90.9758 0.548462 95.6006 5.083 95.6006 11.6244V11.7147C95.6006 19.131 89.8369 22.9712 82.6497 22.9712H77.2958V29.332C77.2958 31.2972 75.7403 32.8527 73.7751 32.8527C71.8099 32.8527 70.2544 31.2972 70.2544 29.332V4.0761ZM82.8789 16.7075C86.3996 16.7075 88.462 14.6035 88.462 11.8605V11.7702C88.462 8.61064 86.2676 6.91626 82.74 6.91626H77.2958V16.7075H82.8789Z" fill="black"/>
<path d="M108.28 7.0482H101.51C99.725 7.0482 98.2598 5.58299 98.2598 3.79834C98.2598 2.01369 99.725 0.548462 101.51 0.548462H122.099C123.884 0.548462 125.349 2.01369 125.349 3.79834C125.349 5.58299 123.884 7.0482 122.099 7.0482H115.329V29.332C115.329 31.3042 113.773 32.8527 111.808 32.8527C109.843 32.8527 108.287 31.2972 108.287 29.332V7.0482H108.28Z" fill="black"/>
<path d="M130.481 29.0612V4.0761C130.481 2.1109 132.036 0.548462 134.002 0.548462H151.758C153.501 0.548462 154.917 1.96507 154.917 3.70806C154.917 5.4441 153.501 6.81904 151.758 6.81904H137.481V13.3188H149.702C151.445 13.3188 152.862 14.7354 152.862 16.4784C152.862 18.2144 151.445 19.5894 149.702 19.5894H137.481V26.3183H151.987C153.73 26.3183 155.147 27.7349 155.147 29.4779C155.147 31.2208 153.73 32.5888 151.987 32.5888H134.002C132.036 32.5819 130.481 31.0264 130.481 29.0612Z" fill="black"/>
<path d="M161.458 3.79841C161.458 1.83321 163.014 0.27771 164.979 0.27771C166.944 0.27771 168.5 1.83321 168.5 3.79841V29.3321C168.5 31.2973 166.944 32.8528 164.979 32.8528C163.014 32.8528 161.458 31.2973 161.458 29.3321V3.79841Z" fill="black"/>
<path d="M32.8939 29.4293C32.8523 31.3111 34.3452 32.8666 36.2202 32.9083C38.102 32.95 39.6575 31.457 39.6992 29.5821C39.7409 27.7002 38.2479 26.1447 36.3729 26.103C34.498 26.0614 32.9356 27.5474 32.8939 29.4293Z" fill="black"/>
<path d="M64.3442 28.0544L53.1779 2.84014C52.4002 1.1041 51.0253 0.048584 49.1087 0.048584H48.699C46.7754 0.048584 45.3588 1.1041 44.5811 2.84014L34.2412 26.1795C35.9148 25.1379 38.1369 25.5059 39.3799 27.0892C39.8451 27.6794 40.1021 28.3599 40.1854 29.0474L41.7409 25.3948L44.3519 19.1728L48.7892 8.6038L53.2266 19.1728L55.8376 25.3948L57.9902 30.4293C58.6291 31.8945 59.7263 32.8528 61.379 32.8528C63.2539 32.8528 64.7191 31.339 64.7191 29.4641C64.7122 29.0127 64.5733 28.5613 64.3442 28.0544Z" fill="black"/>
<path d="M57.7829 3.97207C58.0815 5.82616 59.8245 7.09694 61.6856 6.79834C63.5396 6.49974 64.8104 4.75676 64.5118 2.90267C64.2132 1.04163 62.4703 -0.222203 60.6092 0.076396C58.7482 0.368051 57.4843 2.11104 57.7829 3.97207Z" fill="black"/>
</svg>
