<svg width="157" height="32" viewBox="0 0 157 32" fill="none" xmlns="http://www.w3.org/2000/svg">
<path d="M0.230469 16.0838V16C0.230469 7.5432 6.59885 0.620483 15.7325 0.620483C20.1929 0.620483 23.2095 1.81294 25.6718 3.63708C26.3486 4.14629 26.948 5.08093 26.948 6.22827C26.948 8.01374 25.5042 9.41246 23.7187 9.41246C22.8228 9.41246 22.2298 9.07084 21.7657 8.77433C19.9415 7.41428 18.0271 6.65369 15.6938 6.65369C10.679 6.65369 7.06939 10.8176 7.06939 15.9162V16C7.06939 21.0986 10.5952 25.3463 15.6938 25.3463C18.4526 25.3463 20.2831 24.4955 22.1524 23.013C22.6616 22.5875 23.3449 22.291 24.1055 22.291C25.762 22.291 27.1672 23.6511 27.1672 25.3076C27.1672 26.3261 26.658 27.1318 26.065 27.641C23.39 29.9743 20.2445 31.3795 15.4875 31.3795C6.73421 31.3795 0.230469 24.6244 0.230469 16.0838Z" fill="white"/>
<path d="M65.4409 4.40407C65.4409 2.57993 66.8848 1.12964 68.7089 1.12964H77.5847C84.675 1.12964 88.9678 5.3387 88.9678 11.4106V11.4944C88.9678 18.3784 83.6179 21.9429 76.9465 21.9429H71.9769V27.8472C71.9769 29.6713 70.533 31.1152 68.7089 31.1152C66.8848 31.1152 65.4409 29.6713 65.4409 27.8472V4.40407ZM77.1593 16.1289C80.4272 16.1289 82.3416 14.1758 82.3416 11.6297V11.5459C82.3416 8.61314 80.3048 7.04037 77.0303 7.04037H71.9769V16.1289H77.1593Z" fill="white"/>
<path d="M100.74 7.16284H94.4556C92.799 7.16284 91.439 5.8028 91.439 4.14625C91.439 2.48969 92.799 1.12964 94.4556 1.12964H113.567C115.224 1.12964 116.584 2.48969 116.584 4.14625C116.584 5.8028 115.224 7.16284 113.567 7.16284H107.283V27.8472C107.283 29.6778 105.839 31.1152 104.015 31.1152C102.19 31.1152 100.747 29.6713 100.747 27.8472V7.16284H100.74Z" fill="white"/>
<path d="M121.346 27.5958V4.40407C121.346 2.57993 122.79 1.12964 124.614 1.12964H141.095C142.713 1.12964 144.028 2.44457 144.028 4.06245C144.028 5.67388 142.713 6.95013 141.095 6.95013H127.843V12.9833H139.187C140.805 12.9833 142.12 14.2983 142.12 15.9162C142.12 17.5276 140.805 18.8038 139.187 18.8038H127.843V25.0498H141.308C142.926 25.0498 144.241 26.3647 144.241 27.9826C144.241 29.6004 142.926 30.8702 141.308 30.8702H124.614C122.79 30.8638 121.346 29.42 121.346 27.5958Z" fill="white"/>
<path d="M150.101 4.14629C150.101 2.32214 151.544 0.878296 153.369 0.878296C155.193 0.878296 156.637 2.32214 156.637 4.14629V27.8472C156.637 29.6714 155.193 31.1152 153.369 31.1152C151.544 31.1152 150.101 29.6714 150.101 27.8472V4.14629Z" fill="white"/>
<path d="M30.7635 27.9374C30.7248 29.6842 32.1106 31.1281 33.851 31.1667C35.5978 31.2054 37.0416 29.8196 37.0803 28.0792C37.119 26.3324 35.7331 24.8886 33.9928 24.8499C32.2525 24.8112 30.8022 26.1906 30.7635 27.9374Z" fill="white"/>
<path d="M59.9574 26.6612L49.5926 3.25671C48.8707 1.64528 47.5945 0.665527 45.8155 0.665527H45.4351C43.6497 0.665527 42.3348 1.64528 41.6128 3.25671L32.0151 24.9208C33.5686 23.954 35.6312 24.2956 36.785 25.7652C37.2168 26.3131 37.4553 26.9448 37.5327 27.5829L38.9765 24.1924L41.4001 18.4171L45.5189 8.60667L49.6378 18.4171L52.0614 24.1924L54.0595 28.8656C54.6525 30.2257 55.671 31.1152 57.2051 31.1152C58.9454 31.1152 60.3055 29.71 60.3055 27.9696C60.299 27.5507 60.1701 27.1317 59.9574 26.6612Z" fill="white"/>
<path d="M53.8672 4.30748C54.1444 6.02849 55.7622 7.20806 57.4897 6.93089C59.2107 6.65372 60.3903 5.03584 60.1131 3.31483C59.836 1.58738 58.2181 0.414258 56.4906 0.691425C54.7632 0.962146 53.59 2.58002 53.8672 4.30748Z" fill="white"/>
</svg>
