<svg width="400" height="70" viewBox="0 0 400 70" fill="none" xmlns="http://www.w3.org/2000/svg">
<path d="M20.3126 25.4512C18.3335 25.4512 16.7502 25.5686 15.5232 25.8427C14.2961 26.0776 13.3462 26.5867 12.5942 27.3306C11.8817 28.0745 11.4067 29.1708 11.1297 30.5803C10.8526 31.9898 10.7338 33.8692 10.7338 36.1792V40.6036C10.7338 42.9136 10.8922 44.793 11.1693 46.2025C11.4464 47.612 11.9608 48.7083 12.6733 49.4522C13.3858 50.1961 14.3753 50.7052 15.6419 50.9401C16.9085 51.175 18.4523 51.2924 20.3126 51.2924C22.1334 51.2924 24.0728 51.2925 26.2102 51.2533C28.3476 51.2142 29.3372 51.175 31.0392 51.1359L29.3767 59.7887C27.6747 59.8279 26.7644 59.867 24.8645 59.9062C22.9646 59.9453 21.3417 59.9454 20.0751 59.9454C16.3545 59.9454 13.2274 59.593 10.6942 58.9273C8.161 58.2617 6.10281 57.1263 4.55913 55.5993C3.01545 54.0724 1.86756 52.0755 1.19468 49.648C0.521791 47.2205 0.205139 44.2057 0.205139 40.6427V36.2183C0.205139 32.6945 0.561411 29.7189 1.2343 27.2522C1.90718 24.7856 3.05499 22.7888 4.63825 21.2618C6.22151 19.7348 8.27982 18.5993 10.7735 17.9337C13.3067 17.2681 16.3941 16.9157 20.0751 16.9157C23.0042 16.9157 26.9227 16.994 31.8308 17.1507L30.1684 25.8036C27.9122 25.6861 25.9727 25.6078 24.3103 25.6078C22.6083 25.4903 21.3022 25.4512 20.3126 25.4512Z" fill="black"/>
<path d="M54.9853 23.7283C53.1645 23.7283 51.7001 23.8849 50.5918 24.1981C49.4835 24.5113 48.6126 25.0595 47.9398 25.8426C47.3065 26.6256 46.8711 27.722 46.6732 29.0532C46.4753 30.3844 46.3565 32.1071 46.3565 34.1823H63.5349V32.3028C63.5349 30.6976 63.4161 29.3663 63.139 28.2701C62.862 27.1738 62.4266 26.3124 61.7933 25.6468C61.16 24.9812 60.2893 24.5113 59.1414 24.1981C57.9935 23.8849 56.6081 23.7283 54.9853 23.7283ZM46.3565 41.9737C46.3565 43.9314 46.4753 45.5759 46.6732 46.8288C46.8711 48.0817 47.3065 49.0997 47.9794 49.8044C48.6523 50.5092 49.5627 51.0182 50.7501 51.2923C51.9376 51.5664 53.4812 51.6838 55.3811 51.6838H61.7538C64.1683 51.6838 67.0973 51.6447 70.62 51.5272L69.0368 59.7494C67.5327 59.7886 66.2264 59.8277 65.039 59.8669C63.8516 59.906 62.7433 59.906 61.635 59.906H58.3893H54.8665C51.0667 59.906 47.9794 59.4753 45.5253 58.5748C43.0713 57.7134 41.1318 56.4214 39.7465 54.7769C38.3215 53.1325 37.332 51.1357 36.7779 48.7473C36.2237 46.359 35.9466 43.6182 35.9466 40.5642V35.9441C35.9466 32.6553 36.2236 29.7579 36.8174 27.213C37.4111 24.7071 38.4402 22.5537 39.9047 20.8309C41.3692 19.1082 43.3484 17.8161 45.8024 16.9156C48.2565 16.0542 51.423 15.5844 55.1832 15.5844C58.706 15.5844 61.5954 15.9759 63.9307 16.759C66.2265 17.5421 68.0868 18.6775 69.5117 20.087C70.9367 21.4965 71.9262 23.2193 72.52 25.1378C73.1137 27.0955 73.3908 29.2097 73.3908 31.5198V32.9293C73.3908 34.8087 73.272 36.2965 73.074 37.5103C72.8761 38.6849 72.5199 39.6246 72.0054 40.251C71.4908 40.8775 70.8574 41.3473 70.0658 41.5822C69.2742 41.8172 68.2846 41.8955 67.0972 41.8955H46.3565V41.9737Z" fill="black"/>
<path d="M90.2529 59.7473H79.8826V31.6351C79.8826 28.8944 80.2388 26.5844 80.9908 24.705C81.7429 22.8257 82.8117 21.2987 84.2762 20.1241C85.7011 18.9886 87.4822 18.1272 89.5405 17.6182C91.5987 17.1092 93.9735 16.8351 96.6651 16.8351H101.85C103.275 16.8351 103.315 16.8743 104.7 16.9135L103.038 25.8013C101.969 25.7622 102.167 25.723 100.9 25.6839C99.6337 25.6447 98.565 25.6447 97.6942 25.6447C95.9922 25.6447 94.6464 25.8013 93.6965 26.1537C92.7465 26.4669 91.9946 26.9759 91.4404 27.6023C90.9259 28.2288 90.5696 29.0119 90.4509 29.9907C90.3321 30.9304 90.2529 32.105 90.2529 33.3971V59.7473Z" fill="black"/>
<path d="M131.813 59.7487H126.589C123.224 59.7487 120.493 59.5137 118.316 59.0047C116.139 58.4958 114.437 57.6344 113.21 56.4206C111.943 55.1677 111.073 53.5233 110.598 51.4482C110.123 49.373 109.885 46.7497 109.885 43.6566V7.04814L120.256 5.32538V16.9931H132.882L131.22 25.8027H120.256V43.0693C120.256 44.7137 120.335 46.045 120.533 47.1021C120.73 48.1593 121.047 48.9423 121.562 49.5296C122.076 50.1169 122.789 50.4693 123.699 50.665C124.649 50.8608 125.837 50.9392 127.261 50.9392H133.476L131.813 59.7487Z" fill="black"/>
<path d="M151.525 16.9929H141.155V59.7484H151.525V16.9929Z" fill="black"/>
<path d="M158.135 59.749V30.4622C158.135 27.7215 158.491 25.4114 159.243 23.5321C159.995 21.6527 161.104 20.1257 162.568 18.9511C164.033 17.7765 165.814 16.9543 167.951 16.4453C170.089 15.9363 172.543 15.6622 175.314 15.6622C178.203 15.6622 180.736 16.0538 182.953 16.9151C185.169 17.7374 186.871 18.9119 188.098 20.4389C189.325 18.9119 191.067 17.7374 193.284 16.9151C195.5 16.0929 198.113 15.6622 201.042 15.6622C203.773 15.6622 206.187 15.9363 208.325 16.4453C210.462 16.9543 212.243 17.8157 213.708 18.9511C215.172 20.0866 216.28 21.6136 217.032 23.5321C217.784 25.4114 218.141 27.7607 218.141 30.4622V59.749H207.77V31.95C207.77 30.6971 207.691 29.6008 207.572 28.6612C207.454 27.7215 207.137 26.9384 206.662 26.3119C206.187 25.6855 205.435 25.2156 204.485 24.9024C203.496 24.5892 202.189 24.4326 200.527 24.4326C198.983 24.4326 197.756 24.5892 196.846 24.8633C195.935 25.1374 195.223 25.5289 194.708 26.1162C194.154 26.6644 193.838 27.3691 193.679 28.1522C193.521 28.9744 193.442 29.9532 193.442 31.0495V59.749H183.072V31.95C183.072 30.6971 182.992 29.6008 182.874 28.6612C182.755 27.7215 182.399 26.9384 181.924 26.3119C181.409 25.6855 180.697 25.2156 179.747 24.9024C178.797 24.5892 177.49 24.4326 175.828 24.4326C174.166 24.4326 172.859 24.5892 171.91 24.9024C170.96 25.2156 170.247 25.6855 169.772 26.3119C169.297 26.9384 168.981 27.7215 168.862 28.6612C168.743 29.6008 168.664 30.6971 168.664 31.95V59.749H158.135Z" fill="black"/>
<path d="M236.111 16.9929H225.74V59.7484H236.111V16.9929Z" fill="black"/>
<path d="M243.789 59.7498V30.6196C243.789 27.9181 244.145 25.608 244.897 23.6895C245.649 21.7709 246.797 20.2048 248.341 19.0302C249.885 17.8556 251.864 16.9943 254.239 16.4461C256.653 15.898 259.463 15.6239 262.788 15.6239C269.398 15.6239 274.188 16.7593 277.196 19.0302C280.204 21.3011 281.708 25.1382 281.708 30.5805V59.7106H271.338V31.9117C271.338 30.6588 271.259 29.5625 271.1 28.6228C270.942 27.6832 270.586 26.9001 270.032 26.2736C269.478 25.6472 268.607 25.1773 267.459 24.8641C266.311 24.5509 264.767 24.3943 262.788 24.3943C260.809 24.3943 259.265 24.5509 258.118 24.8641C256.97 25.1773 256.099 25.6472 255.505 26.2736C254.911 26.9001 254.555 27.6832 254.397 28.6228C254.239 29.5625 254.159 30.6588 254.159 31.9117V59.7106H243.789V59.7498Z" fill="black"/>
<path d="M307.555 23.7284C305.734 23.7284 304.27 23.885 303.162 24.1982C302.053 24.5115 301.183 25.0596 300.549 25.8427C299.916 26.6257 299.481 27.7221 299.283 29.0533C299.085 30.3845 298.966 32.1072 298.966 34.1824H316.144V32.303C316.144 30.6977 316.026 29.3665 315.749 28.2702C315.471 27.1739 315.036 26.3125 314.403 25.6469C313.769 24.9813 312.899 24.5115 311.751 24.1982C310.603 23.885 309.218 23.7284 307.555 23.7284ZM298.966 41.9739C298.966 43.9315 299.085 45.576 299.283 46.8289C299.481 48.0818 299.916 49.0998 300.589 49.8046C301.262 50.5093 302.172 51.0183 303.36 51.2924C304.547 51.5665 306.091 51.684 307.991 51.684H314.363C316.778 51.684 319.707 51.6448 323.23 51.5273L321.646 59.7496C320.142 59.7887 318.836 59.8279 317.648 59.867C316.461 59.9062 315.353 59.9061 314.244 59.9061H310.999H307.476C303.676 59.9061 300.589 59.4755 298.135 58.5749C295.681 57.7136 293.741 56.4215 292.356 54.7771C290.931 53.1326 289.941 51.1358 289.387 48.7475C288.833 46.3591 288.556 43.6183 288.556 40.5643V35.9443C288.556 32.6554 288.833 29.758 289.427 27.2131C290.021 24.7073 291.05 22.5538 292.514 20.831C293.979 19.1083 295.958 17.8162 298.412 16.9157C300.866 16.0152 304.032 15.5845 307.793 15.5845C311.315 15.5845 314.205 15.976 316.54 16.7591C318.836 17.5422 320.696 18.6776 322.121 20.0871C323.546 21.4966 324.536 23.2194 325.129 25.1379C325.723 27.0956 326 29.2099 326 31.5199V32.9294C326 34.8088 325.881 36.2966 325.684 37.5104C325.486 38.685 325.129 39.6247 324.615 40.2512C324.1 40.8776 323.467 41.3475 322.675 41.5824C321.884 41.8173 320.894 41.8956 319.707 41.8956H298.966V41.9739Z" fill="black"/>
<path d="M236.111 5.28613V13.1559H225.74V6.69566L236.111 5.28613Z" fill="black"/>
</svg>
