<svg width="205" height="24" viewBox="0 0 205 24" fill="none" xmlns="http://www.w3.org/2000/svg">
<path d="M4.016 8.96V13.16H9.656V15.824H4.016V20.264H10.376V23H0.656V6.224H10.376V8.96H4.016ZM16.8614 20.168H24.3974V23H12.9734V20.408L20.4614 9.08H12.9734V6.248H24.3974V8.84L16.8614 20.168ZM38.6576 6.248V8.96H34.1936V23H30.8336V8.96H26.3696V6.248H38.6576ZM49.7491 23L46.0531 16.472H44.4691V23H41.1091V6.248H47.3971C48.6931 6.248 49.7971 6.48 50.7091 6.944C51.6211 7.392 52.3011 8.008 52.7491 8.792C53.2131 9.56 53.4451 10.424 53.4451 11.384C53.4451 12.488 53.1251 13.488 52.4851 14.384C51.8451 15.264 50.8931 15.872 49.6291 16.208L53.6371 23H49.7491ZM44.4691 13.952H47.2771C48.1891 13.952 48.8691 13.736 49.3171 13.304C49.7651 12.856 49.9891 12.24 49.9891 11.456C49.9891 10.688 49.7651 10.096 49.3171 9.68C48.8691 9.248 48.1891 9.032 47.2771 9.032H44.4691V13.952ZM66.7561 19.808H60.0841L58.9801 23H55.4521L61.4761 6.224H65.3881L71.4121 23H67.8601L66.7561 19.808ZM65.8441 17.12L63.4201 10.112L60.9961 17.12H65.8441ZM81.4398 23.168C79.8718 23.168 78.4318 22.8 77.1198 22.064C75.8078 21.328 74.7678 20.312 73.9998 19.016C73.2318 17.704 72.8478 16.224 72.8478 14.576C72.8478 12.944 73.2318 11.48 73.9998 10.184C74.7678 8.872 75.8078 7.848 77.1198 7.112C78.4318 6.376 79.8718 6.008 81.4398 6.008C83.0238 6.008 84.4638 6.376 85.7598 7.112C87.0718 7.848 88.1038 8.872 88.8558 10.184C89.6238 11.48 90.0078 12.944 90.0078 14.576C90.0078 16.224 89.6238 17.704 88.8558 19.016C88.1038 20.312 87.0718 21.328 85.7598 22.064C84.4478 22.8 83.0078 23.168 81.4398 23.168ZM81.4398 20.168C82.4478 20.168 83.3358 19.944 84.1038 19.496C84.8718 19.032 85.4718 18.376 85.9038 17.528C86.3358 16.68 86.5518 15.696 86.5518 14.576C86.5518 13.456 86.3358 12.48 85.9038 11.648C85.4718 10.8 84.8718 10.152 84.1038 9.704C83.3358 9.256 82.4478 9.032 81.4398 9.032C80.4318 9.032 79.5358 9.256 78.7518 9.704C77.9838 10.152 77.3838 10.8 76.9518 11.648C76.5198 12.48 76.3038 13.456 76.3038 14.576C76.3038 15.696 76.5198 16.68 76.9518 17.528C77.3838 18.376 77.9838 19.032 78.7518 19.496C79.5358 19.944 80.4318 20.168 81.4398 20.168ZM101.148 23L97.4516 16.472H95.8676V23H92.5076V6.248H98.7956C100.092 6.248 101.196 6.48 102.108 6.944C103.02 7.392 103.7 8.008 104.148 8.792C104.612 9.56 104.844 10.424 104.844 11.384C104.844 12.488 104.524 13.488 103.884 14.384C103.244 15.264 102.292 15.872 101.028 16.208L105.036 23H101.148ZM95.8676 13.952H98.6756C99.5876 13.952 100.268 13.736 100.716 13.304C101.164 12.856 101.388 12.24 101.388 11.456C101.388 10.688 101.164 10.096 100.716 9.68C100.268 9.248 99.5876 9.032 98.6756 9.032H95.8676V13.952ZM113.739 6.248C115.499 6.248 117.043 6.592 118.371 7.28C119.715 7.968 120.747 8.952 121.467 10.232C122.203 11.496 122.571 12.968 122.571 14.648C122.571 16.328 122.203 17.8 121.467 19.064C120.747 20.312 119.715 21.28 118.371 21.968C117.043 22.656 115.499 23 113.739 23H107.883V6.248H113.739ZM113.619 20.144C115.379 20.144 116.739 19.664 117.699 18.704C118.659 17.744 119.139 16.392 119.139 14.648C119.139 12.904 118.659 11.544 117.699 10.568C116.739 9.576 115.379 9.08 113.619 9.08H111.243V20.144H113.619ZM128.446 6.248V23H125.086V6.248H128.446ZM146.093 23H142.733L135.125 11.504V23H131.765V6.224H135.125L142.733 17.744V6.224H146.093V23ZM159.686 19.808H153.014L151.91 23H148.382L154.406 6.224H158.318L164.342 23H160.79L159.686 19.808ZM158.774 17.12L156.35 10.112L153.926 17.12H158.774ZM158.966 2.768L153.446 5.288V2.888L158.966 0.0319996V2.768ZM175.234 23L171.538 16.472H169.954V23H166.594V6.248H172.882C174.178 6.248 175.282 6.48 176.194 6.944C177.106 7.392 177.786 8.008 178.234 8.792C178.698 9.56 178.93 10.424 178.93 11.384C178.93 12.488 178.61 13.488 177.97 14.384C177.33 15.264 176.378 15.872 175.114 16.208L179.122 23H175.234ZM169.954 13.952H172.762C173.674 13.952 174.354 13.736 174.802 13.304C175.25 12.856 175.474 12.24 175.474 11.456C175.474 10.688 175.25 10.096 174.802 9.68C174.354 9.248 173.674 9.032 172.762 9.032H169.954V13.952ZM185.329 6.248V23H181.969V6.248H185.329ZM196.424 23.168C194.856 23.168 193.416 22.8 192.104 22.064C190.792 21.328 189.752 20.312 188.984 19.016C188.216 17.704 187.832 16.224 187.832 14.576C187.832 12.944 188.216 11.48 188.984 10.184C189.752 8.872 190.792 7.848 192.104 7.112C193.416 6.376 194.856 6.008 196.424 6.008C198.008 6.008 199.448 6.376 200.744 7.112C202.056 7.848 203.088 8.872 203.84 10.184C204.608 11.48 204.992 12.944 204.992 14.576C204.992 16.224 204.608 17.704 203.84 19.016C203.088 20.312 202.056 21.328 200.744 22.064C199.432 22.8 197.992 23.168 196.424 23.168ZM196.424 20.168C197.432 20.168 198.32 19.944 199.088 19.496C199.856 19.032 200.456 18.376 200.888 17.528C201.32 16.68 201.536 15.696 201.536 14.576C201.536 13.456 201.32 12.48 200.888 11.648C200.456 10.8 199.856 10.152 199.088 9.704C198.32 9.256 197.432 9.032 196.424 9.032C195.416 9.032 194.52 9.256 193.736 9.704C192.968 10.152 192.368 10.8 191.936 11.648C191.504 12.48 191.288 13.456 191.288 14.576C191.288 15.696 191.504 16.68 191.936 17.528C192.368 18.376 192.968 19.032 193.736 19.496C194.52 19.944 195.416 20.168 196.424 20.168Z" fill="black"/>
</svg>
