<svg width="138" height="33" viewBox="0 0 138 33" fill="none" xmlns="http://www.w3.org/2000/svg">
<g clip-path="url(#clip0_1221_4028)">
<path d="M73.2273 8.13949C68.2882 8.13949 65.2349 10.9999 63.8258 14.1301H63.5064V0H58.3652V32.5007H63.5064V27.6059H63.8234C65.4722 30.7147 68.5278 32.9496 72.9384 32.9496C80.6584 32.9496 84.8106 27.8758 84.8106 20.4813C84.7027 12.5996 80.5009 8.22068 73.2296 8.13949H73.2273ZM71.7805 28.2579C66.8907 28.2984 63.5041 25.8415 63.5041 20.8155V20.4287C63.5041 15.3049 66.5267 12.793 71.8768 12.793C76.9404 12.793 79.8011 14.7748 79.8552 20.5743C79.9256 28.1504 74.1878 28.2388 71.7805 28.2579Z" fill="black"/>
<path d="M19.7236 32.4982V8.60266H24.8648V32.5007H19.7236V32.4982Z" fill="black"/>
<path d="M29.4209 32.4984V8.60272H34.562V14.1301H34.8908C37.0421 9.77028 39.6609 8.1037 44.1303 8.15623C50.6195 8.23501 53.8089 12.6235 53.8089 18.1461V32.5007H48.6654V19.5405C48.6654 15.0732 46.7537 12.8169 41.9155 12.8169C36.7298 12.8169 34.562 17.0192 34.562 20.3237V32.4984H29.4209Z" fill="black"/>
<path d="M87.8945 32.4982V8.60266H93.038V32.5007H87.8945V32.4982Z" fill="black"/>
<path d="M107.646 32.4983C102.602 32.4983 99.4945 30.242 99.4945 24.4256V12.9435H95.5371V8.60273H99.4945V3.37378H104.539V8.59557H113.02V12.9363H104.539V24.1368C104.539 27.0712 105.857 27.8376 108.781 27.8376H113.02V32.4983H107.646Z" fill="black"/>
<path d="M129.974 19.2803L124.608 18.5186C121.106 18.034 120.174 17.3654 120.174 15.4959C120.174 13.2443 121.665 12.2845 125.914 12.2845C130.923 12.2845 132.38 13.71 132.44 16.408H137.422C137.246 10.9689 133.002 8.15625 126.052 8.15625C119.103 8.15625 115.228 11.1337 115.228 15.3025C115.228 19.4713 117.889 21.2024 122.278 21.7778L128.622 22.6422C131.933 23.1268 133.056 23.7475 133.056 25.7126C133.056 27.8233 131.699 28.7832 127.173 28.7832C122.36 28.7832 120.533 27.7851 120.503 24.7242H115.479C115.636 30.0391 119.852 32.9519 127.175 32.9519C133.709 32.9519 138 30.3088 138 25.8534C138 21.9186 135.484 20.0014 129.973 19.2755L129.982 19.2851L129.974 19.2803Z" fill="black"/>
<path d="M3.57695 32.4984V12.9531H0V8.6028H3.62626C4.19698 3.31655 8.15674 0.00488281 14.8832 0.00488281H17.2201V4.32653H14.0705C10.301 4.32653 8.44092 5.27681 8.63116 8.60042H17.2177V12.9507H8.7298V32.496H3.57695V32.4984Z" fill="black"/>
<path d="M134.707 5.53223C136.21 5.53223 137.428 4.29434 137.428 2.76734C137.428 1.24033 136.21 0.00244141 134.707 0.00244141C133.206 0.00244141 131.988 1.24033 131.988 2.76734C131.988 4.29434 133.206 5.53223 134.707 5.53223Z" fill="black"/>
<path d="M90.4639 5.53223C91.9659 5.53223 93.1836 4.29434 93.1836 2.76734C93.1836 1.24033 91.9659 0.00244141 90.4639 0.00244141C88.9619 0.00244141 87.7441 1.24033 87.7441 2.76734C87.7441 4.29434 88.9619 5.53223 90.4639 5.53223Z" fill="black"/>
<path d="M22.286 5.53223C23.7881 5.53223 25.0058 4.29434 25.0058 2.76734C25.0058 1.24033 23.7881 0.00244141 22.286 0.00244141C20.784 0.00244141 19.5664 1.24033 19.5664 2.76734C19.5664 4.29434 20.784 5.53223 22.286 5.53223Z" fill="black"/>
</g>
<defs>
<clipPath id="clip0_1221_4028">
<rect width="138" height="33" fill="white"/>
</clipPath>
</defs>
</svg>
