<svg width="400" height="70" viewBox="0 0 400 70" fill="none" xmlns="http://www.w3.org/2000/svg">
<path d="M31.8533 53.8354V59.6851H6.12388C5.71258 59.6851 5.34698 59.4566 5.16418 59.1824L0.182807 50.8192C0.0914054 50.6364 0 50.4536 0 50.2708V0.0457764H7.54061C7.54061 0.0457764 7.632 0.0457764 7.7234 0.0457764C7.9519 0.091477 8.31752 0.274279 8.50032 0.594183L10.6025 4.15883C10.7853 4.43304 10.7853 4.70724 10.7853 4.70724V44.5125C10.7853 44.741 10.8311 44.9238 10.9682 45.0609L13.0704 48.6255C13.2532 48.9454 13.6188 49.1739 14.0301 49.1739H28.5629C28.9742 49.1739 29.3398 49.4024 29.5226 49.7224L31.6248 53.287C31.8076 53.4241 31.8533 53.6526 31.8533 53.8354Z" fill="black"/>
<path d="M144.186 14.5325V55.2518C144.186 55.3889 144.231 55.526 144.323 55.6174L146.425 59.182C146.608 59.5019 146.973 59.6847 147.385 59.7304H154.925V25.0437H171.012V55.069C171.012 55.2518 171.058 55.4346 171.195 55.5717L173.297 59.182C173.48 59.5019 173.845 59.7304 174.257 59.7304H181.797V25.0894H197.838V55.1147C197.838 55.2975 197.884 55.526 198.021 55.6631L200.123 59.2277C200.306 59.5476 200.672 59.7304 201.083 59.7761H208.578V23.9925C208.578 23.9925 208.578 23.6269 208.441 23.3984C207.664 22.0274 203.916 15.8121 203.414 14.9438C203.094 14.4868 202.545 14.4868 202.5 14.4868H144.186V14.5325Z" fill="black"/>
<path d="M230.103 14.5325H265.476C265.887 14.5325 266.207 14.761 266.39 15.0809L271.371 23.3984C271.462 23.5812 271.554 23.764 271.554 23.9925V59.7304H264.15C263.739 59.7304 263.373 59.5019 263.19 59.182L261.088 55.663C260.997 55.5259 260.951 55.3431 260.905 55.1603V29.7965C260.905 29.4766 260.86 29.2938 260.768 29.1567L258.62 25.592C258.438 25.2721 258.118 25.0893 257.706 25.0436H240.889V59.6847H233.348C232.937 59.6847 232.571 59.4562 232.388 59.1363L230.286 55.6173C230.195 55.4802 230.149 55.3888 230.149 55.206V14.5325H230.103Z" fill="black"/>
<path d="M225.213 4.66154C225.213 4.66154 222.837 0.685586 222.837 0.639885C222.608 0.27428 222.197 0.0457764 221.74 0.0457764H216.941C216.484 0.0457764 216.073 0.27428 215.845 0.639885L213.468 4.61584C213.377 4.79864 213.285 5.02714 213.285 5.25565C213.285 5.48415 213.377 5.71265 213.468 5.89546L215.845 9.87141C216.073 10.237 216.484 10.4655 216.941 10.4655H221.694C222.151 10.4655 222.563 10.237 222.791 9.87141L225.167 5.89546C225.305 5.75836 225.396 5.52985 225.396 5.30135C225.396 5.07285 225.305 4.84434 225.213 4.66154Z" fill="black"/>
<path d="M224.711 19.1939C224.711 19.1939 224.711 18.9197 224.528 18.6455L222.426 15.1266L222.38 15.0809L222.288 14.8981C222.288 14.8524 222.243 14.8524 222.243 14.8524C222.197 14.8067 222.197 14.8067 222.151 14.761C222.151 14.761 222.106 14.761 222.106 14.7153C222.06 14.6696 222.014 14.6696 221.923 14.6239H221.877C221.877 14.6239 221.74 14.5782 221.694 14.5782C221.649 14.5782 221.649 14.5325 221.603 14.5325H221.466H213.971V50.2704C213.971 50.4989 214.017 50.6817 214.154 50.8188L219.135 59.182C219.318 59.5019 219.683 59.6847 220.095 59.6847H224.756V19.1939H224.711Z" fill="black"/>
<path d="M129.379 44.5124C129.379 44.7409 129.287 44.9237 129.196 45.0608L127.094 48.6255C126.911 48.9454 126.545 49.1739 126.134 49.1739H103.329C102.918 49.1739 102.552 48.9454 102.37 48.6255C102.37 48.6255 100.267 45.1065 100.267 45.0608C100.176 44.878 100.085 44.6952 100.085 44.5124V29.7054C100.085 29.4769 100.13 29.2941 100.267 29.1113L102.37 25.5467C102.552 25.2267 102.918 24.9982 103.329 24.9982H126.18C126.591 24.9982 126.957 25.2267 127.139 25.5467L129.242 29.1113C129.333 29.2941 129.424 29.4769 129.424 29.7054V44.5124H129.379ZM138.747 50.225V48.5798V23.9471C138.747 23.7643 138.702 23.5815 138.61 23.3987L133.675 15.0812C133.492 14.7156 133.08 14.5328 132.669 14.5328H100.039V4.70717C100.039 4.66146 100.039 4.43296 99.8561 4.11306L97.7539 0.548409C97.5711 0.228505 97.2055 0.0457006 96.977 0C96.8856 0 96.7942 0 96.7942 0H89.2536V50.1336C89.2536 50.4078 89.2993 50.5449 89.4364 50.7734C89.4821 50.8648 89.5278 50.9105 89.5278 50.9105L94.4177 59.1366C94.6005 59.4565 94.9661 59.6393 95.3774 59.6393H132.623C133.035 59.6393 133.4 59.4108 133.583 59.1366L138.565 50.7277C138.793 50.4535 138.747 50.225 138.747 50.225Z" fill="black"/>
<path d="M287.64 25.0437H311.131C311.496 25.0894 311.816 25.2722 311.999 25.5921L314.101 29.1567C314.192 29.2938 314.238 29.4766 314.284 29.7051V34.4123H290.885C290.474 34.4123 290.108 34.1838 289.925 33.8639L287.823 30.2992C287.732 30.1164 287.64 29.9336 287.64 29.7051V25.0437ZM276.946 14.4868V50.2247C276.946 50.4532 276.992 50.636 277.129 50.8188L282.111 59.182C282.156 59.2734 282.202 59.3191 282.293 59.4105C282.522 59.5933 282.796 59.7304 283.07 59.7304H323.515V53.8808C323.515 53.6523 323.47 53.4694 323.333 53.3323L321.23 49.7677C321.048 49.4478 320.682 49.2193 320.271 49.2193H290.839C290.474 49.1736 290.108 48.9908 289.971 48.7166L287.869 45.1519C287.777 44.9691 287.686 44.7863 287.686 44.5578V42.3185H318.717C319.311 42.3185 319.859 41.9986 320.134 41.5416L323.241 36.3317C323.378 36.1032 323.47 35.7833 323.47 35.5091V23.9011C323.47 23.9011 323.47 23.6726 323.378 23.4898C323.013 22.8957 318.306 15.0352 318.306 15.0352C318.123 14.7153 317.803 14.5325 317.346 14.5325H276.946V14.4868Z" fill="black"/>
<path d="M73.1676 49.1736H49.6318C49.2662 49.1279 48.9463 48.9451 48.7635 48.6252L46.6612 45.0605C46.5698 44.9234 46.5241 44.7406 46.5241 44.5121V39.805H67.455H69.9228C70.3342 39.805 70.6998 40.0335 70.8826 40.3534L72.9848 43.918C73.0762 44.1008 73.1676 44.2836 73.1676 44.4664V49.1736ZM83.8615 59.6847V23.9468C83.8615 23.7183 83.8158 23.5355 83.6787 23.3527L78.8802 15.3094L78.6974 15.0352C78.6517 14.9438 78.606 14.8981 78.5146 14.8067C78.3318 14.6239 78.0576 14.4868 77.7376 14.4868H37.2926V20.3822C37.2926 20.6107 37.3383 20.7935 37.4754 20.9306L39.5776 24.4953C39.7604 24.8152 40.126 25.0437 40.5373 25.0437H69.9686C70.3342 25.0894 70.6998 25.2722 70.8369 25.5464L72.9391 29.111C73.0305 29.2938 73.1219 29.4766 73.1219 29.7051V31.8988H42.0912C41.4971 31.8988 40.9487 32.2187 40.6745 32.6757L37.5668 37.8855C37.4297 38.114 37.3383 38.4339 37.3383 38.7081V50.3161C37.3383 50.3161 37.3383 50.5446 37.4297 50.7274C37.7953 51.3215 42.5025 59.182 42.5025 59.182C42.6853 59.5019 43.0509 59.6847 43.4622 59.6847H83.8615Z" fill="black"/>
</svg>
