<svg width="161" height="40" viewBox="0 0 161 40" fill="none" xmlns="http://www.w3.org/2000/svg">
<g clip-path="url(#clip0_1704_3289)">
<path d="M77.3658 17.8065V28.1192C77.3674 28.4042 77.3112 28.6867 77.2004 28.9498C77.0897 29.2128 76.9267 29.4511 76.7212 29.6504C76.5156 29.8498 76.2718 30.006 76.0041 30.11C75.7364 30.2139 75.4503 30.2634 75.1629 30.2555C74.8736 30.2694 74.5845 30.2237 74.3138 30.1214C74.0431 30.0191 73.7967 29.8623 73.5902 29.6609C73.3836 29.4596 73.2213 29.218 73.1135 28.9514C73.0057 28.6847 72.9547 28.3989 72.9638 28.1118V18.633C72.9638 16.2826 72.0261 14.6739 69.3766 14.6739C66.4407 14.6739 65.302 16.2826 65.302 18.5924V28.1192C65.3036 28.4026 65.2479 28.6836 65.1383 28.9454C65.0287 29.2072 64.8674 29.4446 64.6638 29.6437C64.4603 29.8428 64.2187 29.9994 63.9531 30.1045C63.6876 30.2096 63.4036 30.2609 63.1177 30.2555C62.8263 30.2741 62.5342 30.2322 62.26 30.1325C61.9859 30.0327 61.7357 29.8773 61.5256 29.6763C61.3154 29.4752 61.1499 29.2328 61.0396 28.9647C60.9293 28.6966 60.8767 28.4086 60.8851 28.1192V18.633C60.8851 16.2826 59.9473 14.6739 57.2979 14.6739C54.2429 14.6739 53.2047 16.4856 53.2047 18.9208V28.1192C53.1813 28.6825 52.9392 29.215 52.529 29.6054C52.1188 29.9957 51.5722 30.2137 51.0037 30.2137C50.4351 30.2137 49.8886 29.9957 49.4783 29.6054C49.0681 29.215 48.826 28.6825 48.8026 28.1192V13.1058C48.7904 12.8116 48.8383 12.5181 48.9434 12.2427C49.0486 11.9674 49.2087 11.716 49.4143 11.5036C49.6199 11.2912 49.8667 11.1222 50.1398 11.0067C50.4129 10.8912 50.7068 10.8317 51.0037 10.8317C51.3006 10.8317 51.5944 10.8912 51.8676 11.0067C52.1407 11.1222 52.3875 11.2912 52.593 11.5036C52.7986 11.716 52.9588 11.9674 53.0639 12.2427C53.169 12.5181 53.2169 12.8116 53.2047 13.1058C53.9787 11.9103 55.6904 10.63 58.4143 10.63C61.7632 10.63 63.4266 11.7037 64.4462 13.3124C65.7486 11.5377 67.5012 10.63 70.2734 10.63C75.8551 10.63 77.3658 14.2201 77.3658 17.8065Z" fill="white"/>
<path d="M85.5485 28.0417C85.5607 28.3359 85.5128 28.6294 85.4076 28.9048C85.3025 29.1801 85.1424 29.4315 84.9368 29.644C84.7312 29.8564 84.4844 30.0254 84.2113 30.1408C83.9382 30.2563 83.6443 30.3158 83.3474 30.3158C83.0505 30.3158 82.7567 30.2563 82.4835 30.1408C82.2104 30.0254 81.9637 29.8564 81.7581 29.644C81.5525 29.4315 81.3923 29.1801 81.2872 28.9048C81.1821 28.6294 81.1342 28.3359 81.1464 28.0417V13.1058C81.1342 12.8117 81.1821 12.5181 81.2872 12.2428C81.3923 11.9675 81.5525 11.716 81.7581 11.5036C81.9637 11.2912 82.2104 11.1222 82.4835 11.0068C82.7567 10.8913 83.0505 10.8318 83.3474 10.8318C83.6443 10.8318 83.9382 10.8913 84.2113 11.0068C84.4844 11.1222 84.7312 11.2912 84.9368 11.5036C85.1424 11.716 85.3025 11.9675 85.4076 12.2428C85.5128 12.5181 85.5607 12.8117 85.5485 13.1058V28.0417Z" fill="white"/>
<path d="M105.795 17.8065V28.1192C105.797 28.4039 105.74 28.6861 105.63 28.9489C105.519 29.2117 105.357 29.4498 105.152 29.6491C104.946 29.8484 104.703 30.0047 104.436 30.1089C104.168 30.2131 103.883 30.2629 103.596 30.2555C103.306 30.2699 103.017 30.2247 102.745 30.1226C102.474 30.0205 102.228 29.8638 102.021 29.6623C101.814 29.4609 101.651 29.2191 101.543 28.9523C101.435 28.6854 101.384 28.3992 101.393 28.1118V18.633C101.393 16.2826 100.455 14.6739 97.8057 14.6739C94.7507 14.6739 93.7125 16.4856 93.7125 18.9208V28.1192C93.6892 28.6825 93.447 29.215 93.0368 29.6054C92.6266 29.9957 92.0801 30.2137 91.5115 30.2137C90.9429 30.2137 90.3964 29.9957 89.9861 29.6054C89.5759 29.215 89.3338 28.6825 89.3105 28.1192V13.1058C89.2983 12.8116 89.3461 12.5181 89.4513 12.2427C89.5564 11.9674 89.7165 11.716 89.9221 11.5036C90.1277 11.2912 90.3745 11.1222 90.6476 11.0067C90.9207 10.8912 91.2146 10.8317 91.5115 10.8317C91.8084 10.8317 92.1022 10.8912 92.3754 11.0067C92.6485 11.1222 92.8953 11.2912 93.1009 11.5036C93.3064 11.716 93.4666 11.9674 93.5717 12.2427C93.6768 12.5181 93.7247 12.8116 93.7125 13.1058C94.4865 11.9103 96.1982 10.63 98.9221 10.63C104.493 10.63 105.795 14.2201 105.795 17.8065Z" fill="white"/>
<path d="M117.996 10.63C124.88 10.63 126.146 15.9911 126.146 18.8396C126.146 20.3634 126.146 22.1382 123.66 22.1382H113.594C113.594 25.0899 115.671 26.4699 118.361 26.4699C119.808 26.4755 121.22 26.0274 122.395 25.1895C122.767 24.8966 123.226 24.7321 123.701 24.721C123.958 24.7214 124.212 24.7726 124.449 24.8715C124.686 24.9705 124.9 25.1152 125.08 25.2972C125.26 25.4792 125.401 25.695 125.496 25.9318C125.591 26.1686 125.637 26.4218 125.632 26.6765C125.63 26.9646 125.566 27.2489 125.447 27.5114C125.327 27.7738 125.153 28.0085 124.936 28.2003C124.244 28.8608 122.086 30.4695 118.376 30.4695C112.712 30.4695 109.207 27.3775 109.207 20.5073C109.192 14.1758 112.452 10.63 117.996 10.63ZM113.725 18.4263H121.792C121.792 16.4044 120.649 14.423 118.004 14.423C115.63 14.423 113.918 15.7845 113.725 18.4263Z" fill="white"/>
<path d="M133.637 13.3641C134.411 11.7554 136.327 10.726 138.039 10.726C138.601 10.726 139.141 10.9475 139.538 11.3419C139.936 11.7364 140.16 12.2713 140.16 12.8291C140.16 13.3869 139.936 13.9218 139.538 14.3162C139.141 14.7106 138.601 14.9322 138.039 14.9322C135.226 14.9322 133.637 16.7475 133.637 19.5111V28.0897C133.637 28.668 133.405 29.2226 132.992 29.6316C132.58 30.0405 132.021 30.2703 131.437 30.2703C130.854 30.2703 130.295 30.0405 129.882 29.6316C129.47 29.2226 129.238 28.668 129.238 28.0897V13.1575C129.238 12.5791 129.47 12.0245 129.882 11.6155C130.295 11.2066 130.854 10.9769 131.437 10.9769C132.021 10.9769 132.58 11.2066 132.992 11.6155C133.405 12.0245 133.637 12.5791 133.637 13.1575V13.3641Z" fill="white"/>
<path d="M149.227 28.7022L142.953 14.0578C142.843 13.7817 142.788 13.4874 142.789 13.1907C142.789 12.6093 143.02 12.0511 143.431 11.6369C143.843 11.2227 144.402 10.9856 144.989 10.9769C145.433 10.9725 145.868 11.1051 146.233 11.3562C146.598 11.6074 146.876 11.9647 147.028 12.379L151.512 23.8355L155.977 12.3679C156.129 11.9536 156.406 11.5963 156.772 11.3452C157.137 11.094 157.572 10.9615 158.016 10.9658C158.602 10.9745 159.162 11.2116 159.573 11.6258C159.985 12.0401 160.215 12.5982 160.215 13.1796C160.217 13.4763 160.161 13.7706 160.052 14.0467L152.487 31.3809C150.693 35.4396 148.129 38.3138 144.051 38.3138C143.499 38.3138 142.97 38.0965 142.58 37.7097C142.19 37.3229 141.971 36.7983 141.971 36.2513C141.971 35.7043 142.19 35.1797 142.58 34.7929C142.97 34.4061 143.499 34.1887 144.051 34.1887C146.659 34.1887 147.884 32.1004 149.227 28.7022Z" fill="white"/>
<path d="M17.7199 9.75492e-06C8.39109 9.75492e-06 1.04563 6.92557 0.230709 15.921C0.21586 16.1124 0.240992 16.3047 0.30453 16.486C0.368068 16.6672 0.468646 16.8335 0.599971 16.9745C0.731297 17.1154 0.890545 17.228 1.06775 17.3051C1.24496 17.3823 1.43631 17.4223 1.62984 17.4228H34.1374C34.333 17.4232 34.5265 17.3829 34.7055 17.3046C34.8844 17.2263 35.0448 17.1116 35.1763 16.968C35.3078 16.8244 35.4075 16.6551 35.4689 16.4709C35.5303 16.2868 35.5521 16.0919 35.5328 15.8989C35.0855 11.5285 33.0137 7.47955 29.7209 4.5406C26.4282 1.60165 22.1501 -0.0169425 17.7199 9.75492e-06ZM17.9171 15.4709C17.1811 15.4709 16.4617 15.2545 15.8498 14.8491C15.2378 14.4437 14.7609 13.8674 14.4793 13.1932C14.1976 12.519 14.1239 11.7771 14.2675 11.0614C14.4111 10.3457 14.7655 9.68821 15.2859 9.1722C15.8063 8.65619 16.4693 8.30478 17.1912 8.16241C17.913 8.02004 18.6612 8.09311 19.3411 8.37237C20.0211 8.65164 20.6022 9.12456 21.0111 9.73132C21.42 10.3381 21.6382 11.0515 21.6382 11.7812C21.6382 12.2673 21.5414 12.7486 21.3532 13.1975C21.165 13.6463 20.8893 14.0539 20.5418 14.3968C20.1943 14.7396 19.7818 15.011 19.3282 15.1954C18.8746 15.3797 18.3887 15.4733 17.8985 15.4709H17.9171Z" fill="white"/>
<path d="M31.0454 21.6512C31.0202 20.9971 30.7405 20.3781 30.2649 19.9242C29.7892 19.4703 29.1548 19.2167 28.4946 19.2167C27.8345 19.2167 27.2 19.4703 26.7244 19.9242C26.2488 20.3781 25.969 20.9971 25.9438 21.6512V26.9976C25.9438 29.1447 25.0859 31.2043 23.5579 32.7257C22.0299 34.247 19.9562 35.1061 17.7909 35.1149C16.7229 35.1154 15.6655 34.9059 14.6798 34.4985C13.694 34.091 12.7996 33.4937 12.0483 32.7412C11.2969 31.9886 10.7036 31.0958 10.3026 30.1143C9.90168 29.1329 9.70105 28.0823 9.71237 27.0234V21.5848C9.71237 20.9331 9.45127 20.308 8.9865 19.8472C8.52174 19.3863 7.89139 19.1274 7.23411 19.1274C6.57684 19.1274 5.94649 19.3863 5.48172 19.8472C5.01696 20.308 4.75586 20.9331 4.75586 21.5848V27.0086V27.0271C4.76381 29.6056 5.54409 32.1236 6.9977 34.2616C8.4513 36.3997 10.5127 38.0614 12.9203 39.0358C15.3279 40.0102 17.9732 40.2535 20.5205 39.7348C23.0678 39.216 25.4022 37.9587 27.2276 36.1222C28.4367 34.9378 29.3967 33.5274 30.0521 31.9725C30.7074 30.4176 31.0451 28.7492 31.0454 27.064V21.6512Z" fill="white"/>
<path d="M81.7228 5.01069C82.1687 4.64159 82.7382 4.45194 83.3184 4.47928C83.8986 4.50661 84.4473 4.74893 84.856 5.15827C85.0635 5.36586 85.2234 5.61537 85.3249 5.8898C85.4264 6.16424 85.467 6.45714 85.4439 6.74853C85.4384 7.04185 85.369 7.33053 85.2406 7.59481C85.1121 7.85909 84.9276 8.09273 84.6997 8.27976C84.2538 8.64885 83.6843 8.8385 83.1041 8.81117C82.5239 8.78383 81.9752 8.54152 81.5665 8.13217C81.3635 7.92215 81.2078 7.67179 81.1097 7.39765C81.0115 7.12351 80.9732 6.83183 80.9972 6.54191C81.0033 6.25053 81.071 5.96366 81.196 5.69988C81.321 5.4361 81.5005 5.2013 81.7228 5.01069Z" fill="white"/>
</g>
<defs>
<clipPath id="clip0_1704_3289">
<rect width="160" height="40" fill="white" transform="translate(0.230469)"/>
</clipPath>
</defs>
</svg>
