<svg width="101" height="22" viewBox="0 0 200 22" fill="none" xmlns="http://www.w3.org/2000/svg">
<path d="M19.1376 9.57418V16.2774C19.1386 16.4627 19.1021 16.6463 19.0301 16.8173C18.9581 16.9883 18.8522 17.1432 18.7186 17.2728C18.585 17.4023 18.4265 17.5039 18.2524 17.5715C18.0784 17.639 17.8925 17.6712 17.7057 17.6661C17.5176 17.6751 17.3297 17.6454 17.1538 17.5789C16.9778 17.5124 16.8177 17.4105 16.6834 17.2796C16.5491 17.1487 16.4436 16.9917 16.3736 16.8184C16.3035 16.6451 16.2704 16.4593 16.2763 16.2726V10.1114C16.2763 8.58368 15.6667 7.53802 13.9446 7.53802C12.0362 7.53802 11.2961 8.58368 11.2961 10.085V16.2774C11.2971 16.4617 11.2609 16.6443 11.1897 16.8145C11.1185 16.9847 11.0136 17.139 10.8813 17.2684C10.749 17.3978 10.5919 17.4996 10.4193 17.5679C10.2467 17.6362 10.0621 17.6696 9.87633 17.6661C9.6869 17.6781 9.49701 17.6509 9.31881 17.5861C9.14061 17.5212 8.97801 17.4203 8.84142 17.2896C8.70483 17.1589 8.59725 17.0013 8.52556 16.8271C8.45387 16.6528 8.41966 16.4656 8.4251 16.2774V10.1114C8.4251 8.58368 7.81558 7.53802 6.09345 7.53802C4.10769 7.53802 3.43286 8.71559 3.43286 10.2985V16.2774C3.41768 16.6436 3.26031 16.9897 2.99366 17.2435C2.72702 17.4972 2.37177 17.6389 2.0022 17.6389C1.63262 17.6389 1.27736 17.4972 1.01072 17.2435C0.744081 16.9897 0.586708 16.6436 0.571522 16.2774V6.51875C0.563592 6.32755 0.594723 6.13673 0.663047 5.95776C0.73137 5.77879 0.835475 5.61537 0.969107 5.4773C1.10274 5.33924 1.26314 5.22938 1.44067 5.15434C1.6182 5.07929 1.8092 5.04061 2.0022 5.04061C2.19519 5.04061 2.38618 5.07929 2.56372 5.15434C2.74125 5.22938 2.90165 5.33924 3.03528 5.4773C3.16891 5.61537 3.27302 5.77879 3.34134 5.95776C3.40966 6.13673 3.44079 6.32755 3.43286 6.51875C3.93596 5.7417 5.04857 4.90948 6.81907 4.90948C8.99591 4.90948 10.0771 5.60739 10.7398 6.65305C11.5864 5.49947 12.7256 4.90948 14.5275 4.90948C18.1556 4.90948 19.1376 7.24303 19.1376 9.57418Z" fill="black"/>
<path d="M24.4563 16.2271C24.4642 16.4183 24.4331 16.6091 24.3648 16.788C24.2965 16.967 24.1923 17.1304 24.0587 17.2685C23.9251 17.4066 23.7647 17.5164 23.5872 17.5915C23.4096 17.6665 23.2186 17.7052 23.0256 17.7052C22.8326 17.7052 22.6416 17.6665 22.4641 17.5915C22.2866 17.5164 22.1262 17.4066 21.9925 17.2685C21.8589 17.1304 21.7548 16.967 21.6865 16.788C21.6182 16.6091 21.587 16.4183 21.595 16.2271V6.51872C21.587 6.32752 21.6182 6.13671 21.6865 5.95774C21.7548 5.77877 21.8589 5.61535 21.9925 5.47728C22.1262 5.33921 22.2866 5.22936 22.4641 5.15432C22.6416 5.07927 22.8326 5.04059 23.0256 5.04059C23.2186 5.04059 23.4096 5.07927 23.5872 5.15432C23.7647 5.22936 23.9251 5.33921 24.0587 5.47728C24.1923 5.61535 24.2965 5.77877 24.3648 5.95774C24.4331 6.13671 24.4642 6.32752 24.4563 6.51872V16.2271Z" fill="black"/>
<path d="M37.6165 9.57418V16.2774C37.6176 16.4625 37.5811 16.6459 37.5092 16.8168C37.4374 16.9876 37.3317 17.1424 37.1983 17.2719C37.065 17.4014 36.9068 17.503 36.733 17.5708C36.5593 17.6385 36.3737 17.6709 36.1871 17.6661C35.9988 17.6754 35.8106 17.646 35.6344 17.5796C35.4581 17.5133 35.2977 17.4114 35.1631 17.2805C35.0286 17.1496 34.9229 16.9924 34.8527 16.819C34.7825 16.6455 34.7493 16.4595 34.7552 16.2726V10.1114C34.7552 8.58368 34.1457 7.53802 32.4235 7.53802C30.4378 7.53802 29.7629 8.71559 29.7629 10.2985V16.2774C29.7478 16.6436 29.5904 16.9897 29.3237 17.2435C29.0571 17.4972 28.7018 17.6389 28.3323 17.6389C27.9627 17.6389 27.6074 17.4972 27.3408 17.2435C27.0742 16.9897 26.9168 16.6436 26.9016 16.2774V6.51875C26.8937 6.32755 26.9248 6.13673 26.9931 5.95776C27.0614 5.77879 27.1656 5.61537 27.2992 5.4773C27.4328 5.33924 27.5932 5.22938 27.7707 5.15434C27.9483 5.07929 28.1393 5.04061 28.3323 5.04061C28.5253 5.04061 28.7163 5.07929 28.8938 5.15434C29.0713 5.22938 29.2317 5.33924 29.3654 5.4773C29.499 5.61537 29.6031 5.77879 29.6714 5.95776C29.7397 6.13673 29.7709 6.32755 29.7629 6.51875C30.266 5.7417 31.3786 4.90948 33.1491 4.90948C36.77 4.90948 37.6165 7.24303 37.6165 9.57418Z" fill="black"/>
<path d="M45.5475 4.90948C50.0221 4.90948 50.8445 8.39422 50.8445 10.2457C50.8445 11.2362 50.8445 12.3898 49.2288 12.3898H42.6862C42.6862 14.3084 44.0358 15.2054 45.7846 15.2054C46.7252 15.2091 47.6428 14.9178 48.4064 14.3732C48.6485 14.1828 48.9465 14.0758 49.2554 14.0686C49.4224 14.0689 49.5877 14.1022 49.7416 14.1665C49.8955 14.2308 50.035 14.3248 50.1519 14.4432C50.2687 14.5615 50.3606 14.7017 50.4222 14.8556C50.4839 15.0096 50.5139 15.1741 50.5107 15.3397C50.5091 15.5269 50.4681 15.7118 50.3902 15.8824C50.3123 16.0529 50.1993 16.2055 50.0584 16.3302C49.6085 16.7595 48.2057 17.8052 45.7942 17.8052C42.1129 17.8052 39.8345 15.7954 39.8345 11.3297C39.8248 7.21425 41.9436 4.90948 45.5475 4.90948ZM42.7708 9.9771H48.0146C48.0146 8.66283 47.2721 7.37494 45.5524 7.37494C44.0092 7.37494 42.8966 8.25991 42.7708 9.9771Z" fill="black"/>
<path d="M55.7134 6.68665C56.2165 5.64099 57.4621 4.97186 58.5748 4.97186C58.9404 4.97186 59.2911 5.11589 59.5496 5.37226C59.8082 5.62863 59.9534 5.97634 59.9534 6.3389C59.9534 6.70145 59.8082 7.04917 59.5496 7.30553C59.2911 7.5619 58.9404 7.70593 58.5748 7.70593C56.7462 7.70593 55.7134 8.88589 55.7134 10.6822V16.2583C55.7134 16.6342 55.5628 16.9947 55.2947 17.2605C55.0267 17.5263 54.6631 17.6757 54.284 17.6757C53.9048 17.6757 53.5412 17.5263 53.2732 17.2605C53.0051 16.9947 52.8545 16.6342 52.8545 16.2583V6.55234C52.8545 6.17643 53.0051 5.81591 53.2732 5.55009C53.5412 5.28428 53.9048 5.13495 54.284 5.13495C54.6631 5.13495 55.0267 5.28428 55.2947 5.55009C55.5628 5.81591 55.7134 6.17643 55.7134 6.55234V6.68665Z" fill="black"/>
<path d="M65.8478 16.6564L61.7699 7.13753C61.6986 6.95807 61.6625 6.76679 61.6635 6.57393C61.6634 6.196 61.8133 5.83322 62.0808 5.56397C62.3483 5.29472 62.7118 5.14062 63.0929 5.13495C63.3818 5.13214 63.6645 5.21829 63.9019 5.38153C64.1393 5.54477 64.3198 5.77704 64.4184 6.0463L67.3329 13.493L70.2354 6.03911C70.334 5.76985 70.5145 5.53758 70.7519 5.37434C70.9893 5.2111 71.272 5.12494 71.5609 5.12775C71.942 5.13342 72.3055 5.28753 72.573 5.55678C72.8405 5.82603 72.9904 6.1888 72.9903 6.56673C72.9913 6.7596 72.9552 6.95088 72.8839 7.13033L67.9666 18.3976C66.8008 21.0357 65.1343 22.904 62.4834 22.904C62.1248 22.904 61.7809 22.7627 61.5274 22.5113C61.2738 22.2599 61.1313 21.9189 61.1313 21.5633C61.1313 21.2078 61.2738 20.8668 61.5274 20.6153C61.7809 20.3639 62.1248 20.2227 62.4834 20.2227C64.1789 20.2227 64.9747 18.8652 65.8478 16.6564Z" fill="black"/>
<path d="M21.9698 1.25689C22.2597 1.01698 22.6298 0.893709 23.0069 0.911475C23.3841 0.92924 23.7408 1.08675 24.0064 1.35282C24.1413 1.48775 24.2452 1.64993 24.3112 1.82832C24.3771 2.0067 24.4035 2.19708 24.3885 2.38649C24.385 2.57715 24.3399 2.76479 24.2564 2.93657C24.1729 3.10835 24.053 3.26022 23.9048 3.38179C23.6149 3.6217 23.2448 3.74497 22.8677 3.7272C22.4905 3.70944 22.1339 3.55193 21.8682 3.28586C21.7363 3.14934 21.6351 2.98661 21.5713 2.80842C21.5075 2.63023 21.4826 2.44064 21.4982 2.25219C21.5021 2.06279 21.5461 1.87632 21.6274 1.70487C21.7086 1.53341 21.8253 1.38079 21.9698 1.25689Z" fill="black"/>
</svg>
