<svg width="181" height="50" viewBox="0 0 181 50" fill="none" xmlns="http://www.w3.org/2000/svg">
<path d="M49.0341 24.8988C49.0341 38.0648 38.3765 48.738 25.2297 48.738C12.083 48.738 1.42539 38.0648 1.42539 24.8988C1.42539 11.7327 12.083 1.05952 25.2297 1.05952C38.3765 1.05952 49.0341 11.7327 49.0341 24.8988Z" fill="black"/>
<path fill-rule="evenodd" clip-rule="evenodd" d="M22.9474 0.0556377C17.9775 0.553658 13.427 2.40539 9.57055 5.49915C8.44753 6.40004 6.66282 8.18671 5.77186 9.30198C1.25391 14.9576 -0.591451 22.066 0.606586 29.1983C1.46985 34.3375 3.81559 38.8764 7.54617 42.6259C8.95728 44.0441 9.9189 44.8359 11.5293 45.9055C14.5947 47.9415 17.9031 49.2009 21.7144 49.7825C23.0585 49.9876 25.9211 50.0659 27.3931 49.9377C32.4662 49.4957 37.002 47.6669 40.9934 44.4539C42.1634 43.5121 44.1988 41.4438 45.0247 40.3576C47.7614 36.7584 49.348 33.0522 50.023 28.6827C50.2664 27.1062 50.3264 23.9041 50.1426 22.2886C49.3374 15.2102 45.7847 9.05805 40.0402 4.79469C36.7524 2.35455 32.7508 0.743335 28.5442 0.165885C27.4093 0.0101249 24.0601 -0.0558807 22.9474 0.0556377ZM20.3276 5.40336L24.4954 7.18313L24.537 13.1472L11.7934 13.2006L10.9995 13.4108C10.1908 13.625 9.21656 13.9961 8.76794 14.261L8.5189 14.4079L8.47643 14.0393C8.45309 13.8365 8.35211 12.7134 8.25208 11.5435L8.07021 9.41644L8.78064 8.69903C10.6551 6.80655 12.6464 5.35674 15.0086 4.1645C15.5981 3.86696 16.0982 3.62359 16.12 3.62359C16.1419 3.62359 18.0352 4.42456 20.3276 5.40336ZM35.7341 4.14179C38.1577 5.35681 40.4952 7.06851 42.1842 8.86496C42.774 9.49221 42.789 9.51803 42.7507 9.84249C42.7291 10.0257 42.641 11.0157 42.555 12.0423C42.4691 13.0689 42.3792 14.055 42.3554 14.2337L42.312 14.5584L41.6556 14.2174C40.8226 13.7848 39.787 13.4412 38.8307 13.2803C38.1942 13.1731 37.2009 13.1543 32.182 13.1543H26.2816V7.21395L30.4693 5.42179C32.7726 4.43615 34.6665 3.62812 34.678 3.62621C34.6896 3.62431 35.1648 3.85632 35.7341 4.14179ZM38.7029 16.4902C41.083 17.0921 42.866 18.9096 43.4398 21.3189C43.5765 21.8926 43.598 22.18 43.5661 23.0035C43.5208 24.1731 43.3935 24.6969 42.9192 25.6645C42.1033 27.329 40.6028 28.5463 38.7385 29.0561L38.0707 29.2387H12.3491L11.6499 29.0193C10.4799 28.6522 9.77251 28.2392 8.90385 27.4163C7.57133 26.154 6.81985 24.2381 6.93941 22.4078C7.04356 20.814 7.60269 19.5124 8.68307 18.349C9.7356 17.2156 11.1261 16.51 12.627 16.3476C12.9108 16.3168 18.7517 16.3004 25.6068 16.311C37.8015 16.3299 38.0843 16.3338 38.7029 16.4902ZM14.2754 18.7104C13.643 18.9115 13.0989 19.5039 12.9489 20.1548C12.9048 20.3466 12.8682 21.6042 12.867 22.9692C12.8649 25.771 12.9048 26.0392 13.4054 26.595C13.8861 27.1283 14.1576 27.2095 15.4676 27.2115C16.7327 27.2135 17.0061 27.1449 17.4568 26.7128C17.6024 26.573 17.7989 26.3157 17.8934 26.1409C18.0577 25.8367 18.0661 25.7119 18.091 23.2021C18.1083 21.4515 18.0871 20.4444 18.0271 20.1698C17.9112 19.6398 17.5742 19.1797 17.0959 18.8984C16.7326 18.6847 16.6653 18.6739 15.604 18.6579C14.9927 18.6488 14.3949 18.6724 14.2754 18.7104ZM37.4753 19.5594C35.2682 19.8948 32.7824 20.8428 30.9199 22.0592C30.5865 22.277 30.2859 22.4445 30.2518 22.4314C30.2177 22.4184 29.6993 21.8068 29.0999 21.0723C28.3372 20.1379 27.9742 19.7506 27.8909 19.7826C27.8254 19.8077 27.2582 20.2062 26.6303 20.668L25.4887 21.5077L25.8322 21.9577C26.0212 22.2052 26.9371 23.4086 27.8676 24.6318C28.7981 25.855 29.5888 26.8886 29.6248 26.9287C29.6624 26.9706 29.9706 26.733 30.3477 26.3716C32.9819 23.8471 36.6257 22.2972 39.9429 22.2901C40.3177 22.2893 40.6431 22.2697 40.6662 22.2467C40.6893 22.2237 40.5292 21.5803 40.3104 20.817L39.9126 19.4292L39.071 19.437C38.6081 19.4413 37.8901 19.4964 37.4753 19.5594ZM47.3614 26.0417C47.7895 26.5332 48.2085 27.0125 48.2925 27.107C48.441 27.2738 48.4416 27.3039 48.3139 28.1793C47.9109 30.9406 47.1496 33.334 45.9155 35.7189L45.3982 36.7186L40.9803 37.7381C38.5504 38.2988 36.5049 38.7603 36.4347 38.7638C36.323 38.7694 35.7289 38.1359 33.4709 35.6032L32.9199 34.9851L33.7784 32.3761L35.9642 32.3758C37.5023 32.3756 38.3623 32.341 38.8664 32.2593C41.2528 31.872 43.4237 30.544 44.9398 28.544C45.4859 27.8236 46.194 26.4469 46.4108 25.6842C46.4946 25.3894 46.5676 25.1481 46.5731 25.1481C46.5786 25.1481 46.9333 25.5502 47.3614 26.0417ZM4.18776 25.8794C5.12707 28.6792 7.40922 30.9531 10.228 31.898C11.44 32.3042 12.0942 32.3761 14.5797 32.3761H16.8292L17.2288 33.6224C17.4486 34.3078 17.6284 34.9087 17.6284 34.9578C17.6284 35.0516 14.4447 38.649 14.2739 38.7482C14.2196 38.7798 12.1404 38.333 9.65375 37.7553L5.13239 36.705L4.59565 35.6724C3.97476 34.4778 3.38555 33.0294 2.99171 31.7296C2.67479 30.6835 2.26007 28.7098 2.18203 27.8762L2.12876 27.3079L3.02735 26.2703C3.52161 25.6996 3.9411 25.2478 3.95968 25.2664C3.97817 25.2849 4.08082 25.5608 4.18776 25.8794ZM33.0321 37.8281C33.8385 38.7298 34.5968 39.5849 34.7172 39.7282L34.9361 39.9889L32.5977 43.9069C30.391 47.6043 30.2444 47.8283 29.9971 47.8822C28.2374 48.2658 25.1777 48.4426 23.2948 48.2693C21.9507 48.1457 20.3862 47.879 20.3092 47.7605C20.0599 47.3762 15.7296 40.0981 15.7093 40.029C15.6951 39.9806 16.4336 39.0982 17.3505 38.0682L19.0177 36.1953L31.5661 36.1887L33.0321 37.8281Z" fill="white"/>
<path fill-rule="evenodd" clip-rule="evenodd" d="M108.313 22.2767V32.5534H110.36H112.407V31.5451V30.537L113.066 31.1531C114.366 32.3683 115.993 32.9729 117.963 32.9729C119.728 32.9729 121.035 32.5249 122.406 31.4498C125.121 29.3205 126.004 24.9245 124.399 21.5284C123.436 19.4906 121.867 18.1137 119.801 17.493C119.034 17.2626 117.134 17.2327 116.291 17.4377C115.371 17.6612 113.886 18.4293 113.22 19.0262L112.617 19.567V15.7835V12H110.465H108.313V22.2767ZM131.659 13.8443C130.798 14.8587 130.077 15.7317 130.058 15.7843C130.038 15.8397 130.814 15.88 131.902 15.88H133.78L134.54 14.9323L135.299 13.9848L136.055 14.9263L136.811 15.8679L138.734 15.8739L140.657 15.88L140.433 15.5953C140.31 15.4387 139.573 14.5657 138.796 13.6553L137.382 12H135.304H133.226L131.659 13.8443ZM156.643 12.1347C156.614 12.2089 156.604 13.0936 156.62 14.1009L156.649 15.9324L158.827 15.9607L161.005 15.9891V13.9945V12H158.85C157.191 12 156.683 12.031 156.643 12.1347ZM75.25 22.9494V32.5534H77.5576H79.8652L79.893 29.5092L79.9209 26.4649L82.0734 29.483L84.226 32.501L86.9805 32.529C88.4954 32.5443 89.7349 32.5302 89.7349 32.4977C89.7349 32.4651 88.6571 30.9425 87.3397 29.1141C86.0225 27.2856 84.9115 25.7338 84.8711 25.6654C84.8236 25.5848 85.048 25.4092 85.5081 25.1667C87.9455 23.8829 89.1418 21.8636 88.96 19.3405C88.8344 17.5974 88.3751 16.5057 87.3284 15.4627C86.4998 14.637 85.5037 14.112 84.0009 13.7089C82.9869 13.4369 82.8824 13.43 79.1074 13.3882L75.25 13.3454V22.9494ZM142.636 15.4081V17.4529L144.237 17.4541C145.117 17.4547 146.014 17.4844 146.23 17.5202L146.623 17.5851L146.65 25.043L146.677 32.501L148.96 32.5293L151.243 32.5575V25.0718V17.5863L151.73 17.5196C151.998 17.4829 152.919 17.4529 153.777 17.4529H155.337V15.4081V13.3632H148.986H142.636V15.4081ZM96.1376 17.2302C93.1107 17.8951 90.8069 19.886 89.8928 22.6265C89.2066 24.6836 89.3763 26.8607 90.3724 28.7783C92.2201 32.3355 96.5994 34.0454 100.843 32.8666C103.792 32.0475 106.133 29.5772 106.697 26.69C106.901 25.6499 106.853 24.0426 106.59 23.0632C105.873 20.3956 103.675 18.2412 100.808 17.3967C99.5146 17.0155 97.4498 16.942 96.1376 17.2302ZM133.557 17.1821C130.224 17.8337 127.667 20.1388 126.884 23.1968C126.608 24.2781 126.61 25.9428 126.89 27.0575C127.591 29.8459 129.778 32.0296 132.746 32.9046C133.686 33.1818 135.247 33.3062 136.293 33.1873C137.659 33.0321 138.357 32.828 139.587 32.2237C140.544 31.754 140.807 31.5624 141.634 30.7297C142.717 29.6405 143.155 28.9591 143.611 27.6521C144.029 26.4557 144.125 24.7388 143.846 23.4657C143.204 20.5412 141.034 18.3038 137.96 17.3967C136.798 17.0537 134.729 16.9528 133.557 17.1821ZM171.78 17.3531C170.291 17.6028 169.001 18.2291 167.987 19.1942L167.407 19.7463V18.7569V17.7675H165.36H163.313L163.34 27.9656L163.366 38.1636H165.466H167.565L167.593 34.4672C167.608 32.434 167.647 30.7707 167.681 30.7707C167.714 30.7707 168.004 31.0044 168.325 31.2902C170.796 33.4906 174.895 33.5609 177.375 31.4457C178.565 30.4308 179.415 29.1171 179.915 27.5199C180.128 26.8371 180.16 26.5191 180.16 25.108C180.16 23.2422 180.034 22.6288 179.374 21.2805C178.856 20.2235 178.185 19.3867 177.349 18.7548C175.733 17.5331 173.723 17.0272 171.78 17.3531ZM82.1377 17.5676C83.5472 17.8129 84.3818 18.659 84.3818 19.8429C84.3818 21.0278 83.8861 21.8321 82.8412 22.3427C82.3295 22.5928 82.0917 22.6375 81.0596 22.677L79.8684 22.7226V20.0877V17.4529H80.6732C81.116 17.4529 81.7749 17.5045 82.1377 17.5676ZM156.701 25.1627V32.5577L158.827 32.5294L160.952 32.501L160.979 25.1342L161.006 17.7675H158.854H156.701V25.1627ZM99.6113 21.014C101.175 21.6025 102.178 23.0146 102.303 24.805C102.477 27.3061 100.788 29.3552 98.44 29.4911C96.6262 29.596 95.1585 28.7202 94.4097 27.0863C93.4548 25.0023 94.2648 22.3135 96.1599 21.2766C97.2176 20.698 98.5101 20.5996 99.6113 21.014ZM136.837 21.0383C137.549 21.303 138.315 21.9122 138.738 22.5493C139.698 23.997 139.731 26.1616 138.816 27.6068C138.451 28.1838 137.656 28.8673 136.987 29.181C136.466 29.4247 136.259 29.4599 135.341 29.4599C134.469 29.4599 134.203 29.4192 133.767 29.219C132.524 28.6487 131.771 27.8023 131.389 26.5472C131.064 25.4765 131.139 24.148 131.578 23.2205C132.183 21.9424 133.251 21.0795 134.554 20.8153C135.178 20.6889 136.154 20.7843 136.837 21.0383ZM118.316 21.362C120.199 22.2235 121.119 24.3566 120.487 26.3994C119.881 28.3611 117.865 29.5957 115.917 29.1987C114.553 28.9209 113.288 27.9056 112.812 26.7069C112.624 26.2324 112.572 25.8923 112.568 25.108C112.565 24.2019 112.594 24.0483 112.897 23.4091C113.421 22.3056 114.276 21.5673 115.503 21.1586C116.177 20.9343 117.607 21.0377 118.316 21.362ZM173.418 21.4175C174.235 21.8197 174.976 22.576 175.366 23.4073C175.618 23.944 175.647 24.1283 175.647 25.1627C175.647 26.2568 175.629 26.3556 175.303 27.0172C174.52 28.6056 172.681 29.5472 171.015 29.213C169.189 28.8467 167.936 27.6036 167.61 25.8339C167.238 23.8192 168.559 21.7167 170.549 21.1557C170.821 21.079 171.4 21.0343 171.885 21.0524C172.594 21.079 172.856 21.1414 173.418 21.4175Z" fill="white"/>
</svg>
