<svg width="200" height="30" viewBox="0 0 200 30" fill="none" xmlns="http://www.w3.org/2000/svg">
<path d="M7.56404 0.806322C6.82401 0.926867 5.69378 1.26171 4.87302 1.62333C4.429 1.81085 3.9177 2.03854 3.72933 2.1189C3.24494 2.31981 1.41505 4.19492 1.14594 4.74406C0.621192 5.82894 0.43282 6.79329 0.43282 8.36034C0.43282 9.5122 0.500096 10.1015 0.688468 10.7042C1.45541 13.0749 3.50059 14.7089 7.20075 15.9278C8.78846 16.4501 10.2416 17.093 11.2777 17.7493C12.8115 18.727 12.8788 20.5887 11.3988 21.5933C10.6453 22.1022 10.0129 22.196 7.69859 22.1156C5.33049 22.0487 4.63082 21.8879 2.61255 20.9772C2.04744 20.7227 1.53614 20.5352 1.50923 20.5754C1.41505 20.6557 0.109897 24.5131 0.0157107 24.9819C-0.0784752 25.4239 0.217538 25.6248 1.8187 26.1605C4.1868 26.9641 5.22285 27.1382 7.83315 27.2052C11.1162 27.299 12.9057 27.0043 15.0047 26.0132C16.1619 25.464 17.2921 24.3524 17.8841 23.1603C18.9875 20.9772 18.9067 17.7225 17.7092 15.7001C16.6463 13.9053 15.2873 12.9544 11.9101 11.6418C7.34876 9.87383 6.98547 9.67292 6.64909 8.62822C6.43381 7.98532 6.43381 7.90496 6.66255 7.24867C6.87783 6.63256 6.97202 6.51202 7.56404 6.21736C8.19643 5.90931 8.37135 5.88252 10.3223 5.88252C12.5559 5.88252 13.1076 6.00306 14.8029 6.83347C15.1662 7.00758 15.5295 7.15491 15.6102 7.15491C15.7044 7.15491 15.8793 6.87365 16.0139 6.51202C16.5655 5.09229 17.319 2.81537 17.319 2.60107C17.319 2.35999 17.0095 2.19926 15.368 1.60994C13.5919 0.967047 12.7981 0.833111 10.3223 0.792929C9.03065 0.766142 7.79278 0.779535 7.56404 0.806322Z" fill="#000000"/>
<path d="M26.6703 1.39563C25.3652 1.6635 24.1273 2.48052 23.4949 3.48504C23.172 4.02079 22.8356 5.15925 22.8356 5.77536V6.21735H31.4469H40.0582V3.73952V1.26169L33.6401 1.27509C30.1014 1.28848 26.9664 1.34206 26.6703 1.39563Z" fill="#000000"/>
<path d="M46.6781 1.40905C45.225 1.69032 43.866 2.68144 43.3009 3.87348C42.9914 4.52977 42.7627 5.42714 42.7492 5.97628V6.35131H46.5839H50.4186V16.5305V26.7097H53.3788H56.3389V16.5305V6.35131H60.1063H63.8738V3.80651V1.26172L55.572 1.27511C50.9972 1.28851 47.001 1.34208 46.6781 1.40905Z" fill="#000000"/>
<path d="M71.0454 1.4626C69.9824 1.75726 69.3904 2.10549 68.6907 2.82875C67.9507 3.63237 67.7085 4.07436 67.5874 4.87798C67.5336 5.21282 67.4663 5.64142 67.4259 5.84232L67.3452 6.21735H75.97H84.5947V3.73952V1.26169L78.1766 1.27509C73.0771 1.27509 71.597 1.31527 71.0454 1.4626Z" fill="#000000"/>
<path d="M88.3621 13.9857V26.7097H91.3223H94.2824V13.9857V1.26172H91.3223H88.3621V13.9857Z" fill="#000000"/>
<path d="M99.9336 13.9857V26.7097H102.894H105.854L105.867 18.5663C105.867 14.0527 105.921 10.5569 105.988 10.7042C106.042 10.8516 106.325 11.2132 106.594 11.5079C107.347 12.3115 108.007 13.1285 108.007 13.2624C108.007 13.3294 108.141 13.5169 108.316 13.6642C108.478 13.825 108.935 14.4009 109.325 14.9366C111.465 17.8832 112.043 18.727 112.043 18.8476C112.043 18.9279 112.272 19.2896 112.555 19.6646C113.106 20.3879 114.061 21.8478 114.061 21.9549C114.061 21.9951 114.519 22.7183 115.071 23.5889C115.622 24.4461 116.08 25.2096 116.08 25.2765C116.08 25.3435 116.268 25.6917 116.51 26.0534L116.927 26.7097H119.47H122V13.9857V1.26172H119.04H116.08L116.066 8.58805C116.066 12.6329 116.026 15.834 115.986 15.7269C115.878 15.4456 115.165 14.4143 114.694 13.8518C114.479 13.5839 114.169 13.1553 114.008 12.8874C113.591 12.1909 110.913 8.4809 110.55 8.09248C110.375 7.91836 109.985 7.4228 109.689 7.0076C109.393 6.579 108.827 5.85574 108.451 5.38696C108.06 4.91818 107.67 4.44941 107.576 4.32886C107.132 3.79312 106.163 2.73502 105.477 2.02516L104.724 1.26172H102.329H99.9336V13.9857Z" fill="#000000"/>
<path d="M22.8356 18.8744V26.7097H31.9179H41.0001V24.2318V21.754H34.878H28.7559V18.8074V15.8608H33.8016H38.8472V13.4499V11.0391H30.8414H22.8356V18.8744Z" fill="#000000"/>
<path d="M67.3721 19.0083V26.7097H70.3995H73.4269V21.4861V16.2626H78.4053H83.3837V13.7848V11.307H75.3779H67.3721V19.0083Z" fill="#000000"/>
</svg>
