<svg width="153" height="34" viewBox="0 0 153 34" fill="none" xmlns="http://www.w3.org/2000/svg">
<path d="M9.43955 0.534935C8.51603 0.685368 7.10556 1.10323 6.08128 1.55453C5.52717 1.78853 4.8891 2.07268 4.65402 2.17297C4.04953 2.42369 1.76591 4.76373 1.43008 5.44903C0.775217 6.80292 0.540138 8.00637 0.540138 9.96198C0.540138 11.3994 0.624095 12.1349 0.859174 12.887C1.81628 15.8455 4.36857 17.8847 8.98619 19.4057C10.9676 20.0576 12.781 20.8599 14.074 21.6789C15.9882 22.8991 16.0721 25.2224 14.2251 26.476C13.2848 27.1112 12.4956 27.2282 9.60747 27.1279C6.65219 27.0443 5.77904 26.8437 3.26034 25.7072C2.5551 25.3896 1.91703 25.1556 1.88345 25.2057C1.76591 25.306 0.137146 30.1198 0.0196062 30.7048C-0.0979332 31.2564 0.271476 31.5071 2.26965 32.1757C5.22492 33.1786 6.51786 33.3959 9.77538 33.4795C13.8725 33.5965 16.1057 33.2287 18.7252 31.9918C20.1692 31.3065 21.5797 29.9192 22.3185 28.4316C23.6954 25.7072 23.5947 21.6455 22.1002 19.1216C20.7737 16.8818 19.0778 15.6951 14.8632 14.0571C9.17089 11.8507 8.71753 11.6 8.29774 10.2963C8.02908 9.49397 8.02908 9.39368 8.31453 8.57467C8.58319 7.80579 8.70073 7.65536 9.43955 7.28764C10.2287 6.9032 10.447 6.86978 12.8818 6.86978C15.6691 6.86978 16.3576 7.02021 18.4733 8.05651C18.9267 8.2738 19.38 8.45766 19.4808 8.45766C19.5983 8.45766 19.8166 8.10666 19.9845 7.65536C20.673 5.88361 21.6133 3.04213 21.6133 2.77469C21.6133 2.47383 21.2271 2.27325 19.1785 1.53781C16.9621 0.735512 15.9714 0.568363 12.8818 0.518219C11.2698 0.484791 9.72501 0.501507 9.43955 0.534935Z" fill="#F9FAFB"/>
<path d="M33.2831 1.27034C31.6543 1.60463 30.1095 2.62422 29.3203 3.87782C28.9173 4.5464 28.4976 5.96714 28.4976 6.73602V7.2876H39.244H49.9905V4.19539V1.10319L41.981 1.1199C37.5649 1.13662 33.6525 1.20348 33.2831 1.27034Z" fill="#F9FAFB"/>
<path d="M58.2522 1.28705C56.4387 1.63805 54.7428 2.87494 54.0376 4.36254C53.6514 5.18155 53.3659 6.30143 53.3491 6.98673V7.45474H58.1347H62.9202V20.1579V32.861H66.6143H70.3084V20.1579V7.45474H75.01H79.7115V4.27896V1.10319L69.3513 1.1199C63.6422 1.13661 58.6552 1.20347 58.2522 1.28705Z" fill="#F9FAFB"/>
<path d="M88.6611 1.35391C87.3346 1.72163 86.5957 2.15621 85.7226 3.0588C84.7991 4.06168 84.4968 4.61326 84.3457 5.61614C84.2785 6.034 84.1946 6.56887 84.1442 6.81959L84.0435 7.2876H94.8067H105.57V4.19539V1.10319L97.5605 1.1199C91.1966 1.1199 89.3495 1.17005 88.6611 1.35391Z" fill="#F9FAFB"/>
<path d="M110.271 16.9821V32.861H113.966H117.66V16.9821V1.10319H113.966H110.271V16.9821Z" fill="#F9FAFB"/>
<path d="M124.712 16.9821V32.861H128.407H132.101L132.117 22.6985C132.117 17.0656 132.185 12.7031 132.269 12.887C132.336 13.0709 132.688 13.5221 133.024 13.8899C133.964 14.8927 134.787 15.9123 134.787 16.0795C134.787 16.1631 134.955 16.3971 135.173 16.5809C135.375 16.7815 135.946 17.5002 136.433 18.1688C139.103 21.846 139.825 22.899 139.825 23.0495C139.825 23.1498 140.11 23.6011 140.463 24.0691C141.151 24.9717 142.343 26.7936 142.343 26.9273C142.343 26.9774 142.914 27.88 143.603 28.9665C144.291 30.0362 144.862 30.9889 144.862 31.0725C144.862 31.1561 145.097 31.5907 145.399 32.0419L145.92 32.861H149.093H152.25V16.9821V1.10319H148.556H144.862L144.845 10.2461C144.845 15.2939 144.795 19.2887 144.744 19.155C144.61 18.804 143.72 17.5169 143.133 16.8149C142.864 16.4806 142.478 15.9458 142.276 15.6115C141.756 14.7423 138.414 10.1124 137.961 9.62764C137.742 9.41035 137.256 8.79191 136.886 8.27376C136.517 7.73889 135.811 6.8363 135.341 6.25129C134.854 5.66628 134.367 5.08126 134.25 4.93083C133.696 4.26225 132.487 2.94179 131.63 2.05592L130.69 1.10319H127.701H124.712V16.9821Z" fill="#F9FAFB"/>
<path d="M28.4976 23.0829V32.861H39.8317H51.1659V29.7688V26.6766H43.5258H35.8858V22.9993V19.3221H42.1825H48.4793V16.3135V13.3049H38.4884H28.4976V23.0829Z" fill="#F9FAFB"/>
<path d="M84.0771 23.2501V32.861H87.8552H91.6333V26.3423V19.8236H97.8461H104.059V16.7314V13.6391H94.068H84.0771V23.2501Z" fill="#F9FAFB"/>
</svg>
