<svg width="101" height="33" viewBox="0 0 101 33" fill="none" xmlns="http://www.w3.org/2000/svg">
<path d="M1.82059 25.7551C3.18603 26.3914 5.78862 27.3827 8.08574 27.3735C9.63141 27.3613 10.2912 26.78 10.2912 26.0304C10.2912 25.2105 9.59781 24.5955 7.64281 23.696C5.07382 22.4997 2.61481 20.6304 2.61481 17.6473C2.61481 12.6909 6.983 9.58242 13.181 9.58242C16.0371 9.58242 18.1845 10.1178 19.3911 10.7542L17.6164 16.1635C16.6053 15.7321 14.9679 15.2058 12.8846 15.2058C11.394 15.2058 10.4409 15.6617 10.4409 16.5734C10.4409 17.2006 11.284 17.8615 13.0099 18.6355C15.42 19.8073 18.3678 21.4962 18.3678 24.8556C18.3678 30.1638 13.7949 32.9786 7.35873 32.9786C4.35598 32.9786 1.44486 32.1923 0 31.1337L1.82059 25.7551ZM18.2426 32.4982L24.3489 0.146851H32.0589L28.4635 19.0914H28.5552C29.2486 18.1919 29.887 17.3016 30.5346 16.448L35.3457 10.0811H44.8977L35.4801 19.3423L41.507 32.4982H32.8287L29.5204 23.5338L27.2111 25.8468L25.9495 32.4982H18.2426ZM41.6261 32.4982L45.8691 10.0811H53.6249L49.382 32.4982H41.6261ZM46.9138 4.21602C46.9138 1.67662 48.9391 0 51.224 0C53.3958 0 54.9659 1.38902 54.9659 3.60105C54.9659 6.29955 52.8857 7.7926 50.5306 7.7926C48.4595 7.7926 46.9138 6.425 46.9138 4.21602ZM52.1343 32.4982L54.9079 17.7116C55.5005 14.7285 55.864 12.1524 56.1939 10.0781H63.0181L62.6668 13.5078H62.7584C64.8967 10.693 67.5451 9.57936 70.3799 9.57936C74.464 9.57936 76.1563 12.131 76.1563 15.6739C76.1563 16.6866 75.9638 18.4642 75.7805 19.5014L73.3124 32.4982H65.5565L67.8414 20.3336C67.9789 19.5809 68.0675 18.7396 68.0675 17.9747C68.0675 16.6866 67.6704 15.7994 66.3843 15.7994C64.4965 15.7994 62.5843 18.247 61.6985 22.9403L59.8901 32.4982H52.1343ZM90.6416 32.4982C90.721 31.2102 90.8004 29.9252 90.8462 28.6371H90.7332C88.8332 31.9628 86.0596 33 83.6922 33C79.6661 33 76.7764 29.8915 76.7764 25.0269C76.7764 17.5892 81.4836 9.57936 93.0273 9.57936C95.917 9.57936 98.9992 10.1729 101 10.8215L98.6112 22.5548C98.1439 25.0024 97.6673 29.5703 97.7345 32.4982H90.6416ZM92.3033 15.5607C91.8146 15.4689 91.2678 15.423 90.8707 15.423C87.2662 15.423 84.8652 20.2999 84.8652 23.5797C84.8652 25.6541 85.7632 26.7678 87.0951 26.7678C88.5277 26.7678 90.4033 25.3451 91.3839 20.0582L92.3033 15.5607Z" fill="black"/>
</svg>
