<svg width="102" height="34" viewBox="0 0 102 34" fill="none" xmlns="http://www.w3.org/2000/svg">
<path d="M2.45731 26.2551C3.82275 26.8914 6.42534 27.8827 8.72246 27.8735C10.2681 27.8613 10.9279 27.28 10.9279 26.5304C10.9279 25.7105 10.2345 25.0955 8.27953 24.196C5.71054 22.9997 3.25153 21.1304 3.25153 18.1473C3.25153 13.1909 7.61972 10.0824 13.8177 10.0824C16.6738 10.0824 18.8212 10.6178 20.0278 11.2542L18.2531 16.6635C17.242 16.2321 15.6046 15.7058 13.5214 15.7058C12.0307 15.7058 11.0776 16.1617 11.0776 17.0734C11.0776 17.7006 11.9207 18.3615 13.6466 19.1355C16.0568 20.3073 19.0045 21.9962 19.0045 25.3556C19.0045 30.6638 14.4317 33.4786 7.99545 33.4786C4.99269 33.4786 2.08158 32.6923 0.636719 31.6337L2.45731 26.2551ZM18.8793 32.9982L24.9856 0.646851H32.6956L29.1002 19.5914H29.1919C29.8853 18.6919 30.5237 17.8016 31.1713 16.948L35.9824 10.5811H45.5344L36.1168 19.8423L42.1437 32.9982H33.4654L30.1572 24.0338L27.8478 26.3468L26.5862 32.9982H18.8793ZM42.2629 32.9982L46.5058 10.5811H54.2617L50.0187 32.9982H42.2629ZM47.5505 4.71602C47.5505 2.17662 49.5758 0.5 51.8607 0.5C54.0326 0.5 55.6027 1.88902 55.6027 4.10105C55.6027 6.79955 53.5224 8.2926 51.1673 8.2926C49.0962 8.2926 47.5505 6.925 47.5505 4.71602ZM52.771 32.9982L55.5446 18.2116C56.1372 15.2285 56.5007 12.6524 56.8306 10.5781H63.6548L63.3035 14.0078H63.3952C65.5334 11.193 68.1818 10.0794 71.0166 10.0794C75.1007 10.0794 76.793 12.631 76.793 16.1739C76.793 17.1866 76.6005 18.9642 76.4173 20.0014L73.9491 32.9982H66.1933L68.4781 20.8336C68.6156 20.0809 68.7042 19.2396 68.7042 18.4747C68.7042 17.1866 68.3071 16.2994 67.0211 16.2994C65.1333 16.2994 63.221 18.747 62.3352 23.4403L60.5268 32.9982H52.771ZM91.2783 32.9982C91.3577 31.7102 91.4371 30.4252 91.483 29.1371H91.3699C89.4699 32.4628 86.6963 33.5 84.3289 33.5C80.3028 33.5 77.4131 30.3915 77.4131 25.5269C77.4131 18.0892 82.1204 10.0794 93.664 10.0794C96.5537 10.0794 99.6359 10.6729 101.637 11.3215L99.248 23.0548C98.7806 25.5024 98.3041 30.0703 98.3713 32.9982H91.2783ZM92.94 16.0607C92.4513 15.9689 91.9045 15.923 91.5074 15.923C87.9029 15.923 85.5019 20.7999 85.5019 24.0797C85.5019 26.1541 86.4 27.2678 87.7318 27.2678C89.1644 27.2678 91.04 25.8451 92.0206 20.5582L92.94 16.0607Z" fill="white"/>
</svg>
