<svg width="612" height="547" viewBox="0 0 612 547" fill="none" xmlns="http://www.w3.org/2000/svg">
<path d="M306.5 546.208C454.789 546.208 575 424.215 575 273.728C575 123.242 454.789 1.24854 306.5 1.24854C158.211 1.24854 38 123.242 38 273.728C38 424.215 158.211 546.208 306.5 546.208Z" stroke="#242424" stroke-dasharray="6 6"/>
<path d="M219.1 324.868C296.94 324.868 360.043 260.83 360.043 181.836C360.043 102.842 296.94 38.8044 219.1 38.8044C141.259 38.8044 78.1572 102.842 78.1572 181.836C78.1572 260.83 141.259 324.868 219.1 324.868Z" stroke="#3F3F3F"/>
<path d="M219.1 510.25C296.94 510.25 360.043 446.212 360.043 367.218C360.043 288.223 296.94 224.187 219.1 224.187C141.259 224.187 78.1572 288.223 78.1572 367.218C78.1572 446.212 141.259 510.25 219.1 510.25Z" stroke="#3F3F3F"/>
<path d="M392.325 324.868C470.165 324.868 533.268 260.83 533.268 181.836C533.268 102.842 470.165 38.8044 392.325 38.8044C314.486 38.8044 251.383 102.842 251.383 181.836C251.383 260.83 314.486 324.868 392.325 324.868Z" stroke="#3F3F3F"/>
<path d="M392.325 510.25C470.165 510.25 533.268 446.212 533.268 367.218C533.268 288.223 470.165 224.187 392.325 224.187C314.486 224.187 251.383 288.223 251.383 367.218C251.383 446.212 314.486 510.25 392.325 510.25Z" stroke="#3F3F3F"/>
<path d="M380.198 377L385.004 363.59H387.092L391.898 377H390.008L388.91 373.85H383.186L382.088 377H380.198ZM383.744 372.23H388.352L385.796 364.868H386.3L383.744 372.23ZM393.39 380.6V367.298H395.028V369.386L394.812 368.972C395.172 368.396 395.664 367.94 396.288 367.604C396.912 367.256 397.626 367.082 398.43 367.082C399.342 367.082 400.158 367.304 400.878 367.748C401.61 368.192 402.186 368.798 402.606 369.566C403.026 370.322 403.236 371.186 403.236 372.158C403.236 373.106 403.026 373.964 402.606 374.732C402.186 375.5 401.61 376.106 400.878 376.55C400.158 376.994 399.336 377.216 398.412 377.216C397.632 377.216 396.918 377.042 396.27 376.694C395.634 376.346 395.142 375.854 394.794 375.218L395.064 374.93V380.6H393.39ZM398.286 375.596C398.898 375.596 399.444 375.446 399.924 375.146C400.404 374.846 400.776 374.438 401.04 373.922C401.316 373.394 401.454 372.806 401.454 372.158C401.454 371.486 401.316 370.898 401.04 370.394C400.776 369.878 400.404 369.47 399.924 369.17C399.444 368.858 398.898 368.702 398.286 368.702C397.674 368.702 397.122 368.852 396.63 369.152C396.15 369.452 395.766 369.866 395.478 370.394C395.202 370.91 395.064 371.498 395.064 372.158C395.064 372.806 395.202 373.394 395.478 373.922C395.766 374.438 396.15 374.846 396.63 375.146C397.122 375.446 397.674 375.596 398.286 375.596ZM405.431 377V367.298H407.069V369.08L406.889 368.828C407.117 368.276 407.465 367.868 407.933 367.604C408.401 367.328 408.971 367.19 409.643 367.19H410.237V368.774H409.391C408.707 368.774 408.155 368.99 407.735 369.422C407.315 369.842 407.105 370.442 407.105 371.222V377H405.431ZM416.188 377.216C415.252 377.216 414.418 376.994 413.686 376.55C412.954 376.106 412.378 375.5 411.958 374.732C411.538 373.952 411.328 373.082 411.328 372.122C411.328 371.15 411.532 370.286 411.94 369.53C412.36 368.774 412.924 368.18 413.632 367.748C414.352 367.304 415.156 367.082 416.044 367.082C416.764 367.082 417.4 367.214 417.952 367.478C418.516 367.73 418.99 368.078 419.374 368.522C419.77 368.954 420.07 369.452 420.274 370.016C420.49 370.568 420.598 371.144 420.598 371.744C420.598 371.876 420.586 372.026 420.562 372.194C420.55 372.35 420.532 372.5 420.508 372.644H412.552V371.204H419.536L418.744 371.852C418.852 371.228 418.792 370.67 418.564 370.178C418.336 369.686 418 369.296 417.556 369.008C417.112 368.72 416.608 368.576 416.044 368.576C415.48 368.576 414.964 368.72 414.496 369.008C414.028 369.296 413.662 369.71 413.398 370.25C413.146 370.778 413.044 371.408 413.092 372.14C413.044 372.848 413.152 373.472 413.416 374.012C413.692 374.54 414.076 374.954 414.568 375.254C415.072 375.542 415.618 375.686 416.206 375.686C416.854 375.686 417.4 375.536 417.844 375.236C418.288 374.936 418.648 374.552 418.924 374.084L420.328 374.804C420.136 375.248 419.836 375.656 419.428 376.028C419.032 376.388 418.558 376.676 418.006 376.892C417.466 377.108 416.86 377.216 416.188 377.216ZM422.78 377V367.298H424.418V369.188L424.148 369.026C424.388 368.414 424.772 367.94 425.3 367.604C425.84 367.256 426.47 367.082 427.19 367.082C427.886 367.082 428.504 367.238 429.044 367.55C429.596 367.862 430.028 368.294 430.34 368.846C430.664 369.398 430.826 370.022 430.826 370.718V377H429.134V371.258C429.134 370.718 429.038 370.262 428.846 369.89C428.654 369.518 428.378 369.23 428.018 369.026C427.67 368.81 427.268 368.702 426.812 368.702C426.356 368.702 425.948 368.81 425.588 369.026C425.24 369.23 424.964 369.524 424.76 369.908C424.556 370.28 424.454 370.73 424.454 371.258V377H422.78ZM437.632 377.216C436.72 377.216 435.898 376.994 435.166 376.55C434.446 376.106 433.876 375.5 433.456 374.732C433.036 373.964 432.826 373.106 432.826 372.158C432.826 371.186 433.036 370.322 433.456 369.566C433.876 368.798 434.446 368.192 435.166 367.748C435.898 367.304 436.72 367.082 437.632 367.082C438.436 367.082 439.15 367.256 439.774 367.604C440.398 367.94 440.89 368.396 441.25 368.972L440.98 369.386V363.374H442.672V377H441.034V374.93L441.25 375.218C440.914 375.854 440.422 376.346 439.774 376.694C439.138 377.042 438.424 377.216 437.632 377.216ZM437.776 375.596C438.388 375.596 438.934 375.446 439.414 375.146C439.894 374.846 440.272 374.438 440.548 373.922C440.836 373.394 440.98 372.806 440.98 372.158C440.98 371.498 440.836 370.91 440.548 370.394C440.272 369.866 439.894 369.452 439.414 369.152C438.934 368.852 438.388 368.702 437.776 368.702C437.176 368.702 436.63 368.858 436.138 369.17C435.658 369.47 435.28 369.878 435.004 370.394C434.728 370.898 434.59 371.486 434.59 372.158C434.59 372.806 434.728 373.394 435.004 373.922C435.28 374.438 435.658 374.846 436.138 375.146C436.618 375.446 437.164 375.596 437.776 375.596ZM445.263 377V367.298H446.937V377H445.263ZM445.263 365.75V363.59H446.937V365.75H445.263ZM448.58 377V375.578L454.358 368.288L454.646 368.9H448.868V367.298H456.14V368.72L450.416 376.028L450.128 375.398H456.176V377H448.58ZM460.658 377.216C460.022 377.216 459.458 377.102 458.966 376.874C458.486 376.634 458.108 376.31 457.832 375.902C457.556 375.482 457.418 375.002 457.418 374.462C457.418 373.946 457.526 373.484 457.742 373.076C457.97 372.656 458.318 372.302 458.786 372.014C459.266 371.726 459.866 371.522 460.586 371.402L464.186 370.808V372.212L460.964 372.752C460.34 372.86 459.884 373.058 459.596 373.346C459.32 373.634 459.182 373.988 459.182 374.408C459.182 374.804 459.338 375.134 459.65 375.398C459.974 375.662 460.376 375.794 460.856 375.794C461.468 375.794 461.996 375.668 462.44 375.416C462.896 375.152 463.25 374.798 463.502 374.354C463.766 373.91 463.898 373.418 463.898 372.878V370.412C463.898 369.884 463.7 369.458 463.304 369.134C462.92 368.798 462.41 368.63 461.774 368.63C461.222 368.63 460.73 368.774 460.298 369.062C459.878 369.338 459.566 369.71 459.362 370.178L457.904 369.422C458.084 368.978 458.372 368.582 458.768 368.234C459.164 367.874 459.626 367.592 460.154 367.388C460.682 367.184 461.234 367.082 461.81 367.082C462.554 367.082 463.208 367.226 463.772 367.514C464.336 367.79 464.774 368.18 465.086 368.684C465.41 369.176 465.572 369.752 465.572 370.412V377H463.934V375.164L464.24 375.272C464.036 375.656 463.76 375.992 463.412 376.28C463.064 376.568 462.656 376.796 462.188 376.964C461.72 377.132 461.21 377.216 460.658 377.216ZM472.577 377.216C471.665 377.216 470.843 376.994 470.111 376.55C469.391 376.106 468.821 375.5 468.401 374.732C467.981 373.964 467.771 373.106 467.771 372.158C467.771 371.186 467.981 370.322 468.401 369.566C468.821 368.798 469.391 368.192 470.111 367.748C470.843 367.304 471.665 367.082 472.577 367.082C473.381 367.082 474.095 367.256 474.719 367.604C475.343 367.94 475.835 368.396 476.195 368.972L475.925 369.386V363.374H477.617V377H475.979V374.93L476.195 375.218C475.859 375.854 475.367 376.346 474.719 376.694C474.083 377.042 473.369 377.216 472.577 377.216ZM472.721 375.596C473.333 375.596 473.879 375.446 474.359 375.146C474.839 374.846 475.217 374.438 475.493 373.922C475.781 373.394 475.925 372.806 475.925 372.158C475.925 371.498 475.781 370.91 475.493 370.394C475.217 369.866 474.839 369.452 474.359 369.152C473.879 368.852 473.333 368.702 472.721 368.702C472.121 368.702 471.575 368.858 471.083 369.17C470.603 369.47 470.225 369.878 469.949 370.394C469.673 370.898 469.535 371.486 469.535 372.158C469.535 372.806 469.673 373.394 469.949 373.922C470.225 374.438 470.603 374.846 471.083 375.146C471.563 375.446 472.109 375.596 472.721 375.596ZM484.816 377.216C483.88 377.216 483.034 377 482.278 376.568C481.522 376.124 480.922 375.518 480.478 374.75C480.034 373.982 479.812 373.112 479.812 372.14C479.812 371.168 480.028 370.304 480.46 369.548C480.904 368.792 481.504 368.192 482.26 367.748C483.016 367.304 483.868 367.082 484.816 367.082C485.752 367.082 486.598 367.304 487.354 367.748C488.11 368.18 488.704 368.774 489.136 369.53C489.58 370.286 489.802 371.156 489.802 372.14C489.802 373.124 489.574 374 489.118 374.768C488.662 375.524 488.056 376.124 487.3 376.568C486.556 377 485.728 377.216 484.816 377.216ZM484.816 375.596C485.416 375.596 485.956 375.446 486.436 375.146C486.928 374.846 487.312 374.432 487.588 373.904C487.876 373.376 488.02 372.788 488.02 372.14C488.02 371.48 487.876 370.898 487.588 370.394C487.312 369.878 486.928 369.47 486.436 369.17C485.956 368.858 485.416 368.702 484.816 368.702C484.204 368.702 483.652 368.858 483.16 369.17C482.68 369.47 482.296 369.878 482.008 370.394C481.72 370.898 481.576 371.48 481.576 372.14C481.576 372.788 481.72 373.376 482.008 373.904C482.296 374.432 482.68 374.846 483.16 375.146C483.652 375.446 484.204 375.596 484.816 375.596Z" fill="#F8F8F8"/>
<path d="M128.494 191V177.59H133.228C134.116 177.59 134.896 177.758 135.568 178.094C136.24 178.43 136.762 178.91 137.134 179.534C137.518 180.158 137.71 180.89 137.71 181.73C137.71 182.57 137.518 183.302 137.134 183.926C136.762 184.538 136.24 185.018 135.568 185.366C134.908 185.702 134.128 185.87 133.228 185.87H130.258V191H128.494ZM130.258 184.25H133.282C133.822 184.25 134.29 184.148 134.686 183.944C135.082 183.74 135.388 183.446 135.604 183.062C135.82 182.678 135.928 182.234 135.928 181.73C135.928 181.214 135.82 180.77 135.604 180.398C135.388 180.014 135.082 179.72 134.686 179.516C134.29 179.312 133.822 179.21 133.282 179.21H130.258V184.25ZM142.074 191.216C141.438 191.216 140.874 191.102 140.382 190.874C139.902 190.634 139.524 190.31 139.248 189.902C138.972 189.482 138.834 189.002 138.834 188.462C138.834 187.946 138.942 187.484 139.158 187.076C139.386 186.656 139.734 186.302 140.202 186.014C140.682 185.726 141.282 185.522 142.002 185.402L145.602 184.808V186.212L142.38 186.752C141.756 186.86 141.3 187.058 141.012 187.346C140.736 187.634 140.598 187.988 140.598 188.408C140.598 188.804 140.754 189.134 141.066 189.398C141.39 189.662 141.792 189.794 142.272 189.794C142.884 189.794 143.412 189.668 143.856 189.416C144.312 189.152 144.666 188.798 144.918 188.354C145.182 187.91 145.314 187.418 145.314 186.878V184.412C145.314 183.884 145.116 183.458 144.72 183.134C144.336 182.798 143.826 182.63 143.19 182.63C142.638 182.63 142.146 182.774 141.714 183.062C141.294 183.338 140.982 183.71 140.778 184.178L139.32 183.422C139.5 182.978 139.788 182.582 140.184 182.234C140.58 181.874 141.042 181.592 141.57 181.388C142.098 181.184 142.65 181.082 143.226 181.082C143.97 181.082 144.624 181.226 145.188 181.514C145.752 181.79 146.19 182.18 146.502 182.684C146.826 183.176 146.988 183.752 146.988 184.412V191H145.35V189.164L145.656 189.272C145.452 189.656 145.176 189.992 144.828 190.28C144.48 190.568 144.072 190.796 143.604 190.964C143.136 191.132 142.626 191.216 142.074 191.216ZM149.583 191V181.298H151.257V191H149.583ZM149.583 179.75V177.59H151.257V179.75H149.583ZM152.757 191L156.159 186.14L152.775 181.298H154.791L157.689 185.51H156.663L159.525 181.298H161.559L158.175 186.14L161.541 191H159.525L156.663 186.788H157.671L154.809 191H152.757ZM165.716 191.216C165.08 191.216 164.516 191.102 164.024 190.874C163.544 190.634 163.166 190.31 162.89 189.902C162.614 189.482 162.476 189.002 162.476 188.462C162.476 187.946 162.584 187.484 162.8 187.076C163.028 186.656 163.376 186.302 163.844 186.014C164.324 185.726 164.924 185.522 165.644 185.402L169.244 184.808V186.212L166.022 186.752C165.398 186.86 164.942 187.058 164.654 187.346C164.378 187.634 164.24 187.988 164.24 188.408C164.24 188.804 164.396 189.134 164.708 189.398C165.032 189.662 165.434 189.794 165.914 189.794C166.526 189.794 167.054 189.668 167.498 189.416C167.954 189.152 168.308 188.798 168.56 188.354C168.824 187.91 168.956 187.418 168.956 186.878V184.412C168.956 183.884 168.758 183.458 168.362 183.134C167.978 182.798 167.468 182.63 166.832 182.63C166.28 182.63 165.788 182.774 165.356 183.062C164.936 183.338 164.624 183.71 164.42 184.178L162.962 183.422C163.142 182.978 163.43 182.582 163.826 182.234C164.222 181.874 164.684 181.592 165.212 181.388C165.74 181.184 166.292 181.082 166.868 181.082C167.612 181.082 168.266 181.226 168.83 181.514C169.394 181.79 169.832 182.18 170.144 182.684C170.468 183.176 170.63 183.752 170.63 184.412V191H168.992V189.164L169.298 189.272C169.094 189.656 168.818 189.992 168.47 190.28C168.122 190.568 167.714 190.796 167.246 190.964C166.778 191.132 166.268 191.216 165.716 191.216ZM168.02 179.48C167.696 179.48 167.432 179.426 167.228 179.318C167.036 179.21 166.868 179.084 166.724 178.94C166.58 178.796 166.436 178.67 166.292 178.562C166.148 178.454 165.974 178.4 165.77 178.4C165.578 178.4 165.422 178.478 165.302 178.634C165.194 178.778 165.14 179.036 165.14 179.408H163.79C163.79 178.604 163.964 178.004 164.312 177.608C164.672 177.2 165.134 176.996 165.698 176.996C166.022 176.996 166.286 177.05 166.49 177.158C166.694 177.266 166.868 177.392 167.012 177.536C167.156 177.68 167.294 177.806 167.426 177.914C167.57 178.022 167.744 178.076 167.948 178.076C168.164 178.076 168.332 177.992 168.452 177.824C168.572 177.644 168.632 177.392 168.632 177.068H169.964C169.964 177.812 169.784 178.4 169.424 178.832C169.064 179.264 168.596 179.48 168.02 179.48ZM177.834 191.216C176.898 191.216 176.052 191 175.296 190.568C174.54 190.124 173.94 189.518 173.496 188.75C173.052 187.982 172.83 187.112 172.83 186.14C172.83 185.168 173.046 184.304 173.478 183.548C173.922 182.792 174.522 182.192 175.278 181.748C176.034 181.304 176.886 181.082 177.834 181.082C178.77 181.082 179.616 181.304 180.372 181.748C181.128 182.18 181.722 182.774 182.154 183.53C182.598 184.286 182.82 185.156 182.82 186.14C182.82 187.124 182.592 188 182.136 188.768C181.68 189.524 181.074 190.124 180.318 190.568C179.574 191 178.746 191.216 177.834 191.216ZM177.834 189.596C178.434 189.596 178.974 189.446 179.454 189.146C179.946 188.846 180.33 188.432 180.606 187.904C180.894 187.376 181.038 186.788 181.038 186.14C181.038 185.48 180.894 184.898 180.606 184.394C180.33 183.878 179.946 183.47 179.454 183.17C178.974 182.858 178.434 182.702 177.834 182.702C177.222 182.702 176.67 182.858 176.178 183.17C175.698 183.47 175.314 183.878 175.026 184.394C174.738 184.898 174.594 185.48 174.594 186.14C174.594 186.788 174.738 187.376 175.026 187.904C175.314 188.432 175.698 188.846 176.178 189.146C176.67 189.446 177.222 189.596 177.834 189.596Z" fill="#F8F8F8"/>
<path d="M379.102 191.216C378.25 191.216 377.47 191.06 376.762 190.748C376.054 190.424 375.454 189.986 374.962 189.434C374.47 188.882 374.116 188.264 373.9 187.58L375.43 186.95C375.754 187.814 376.234 188.48 376.87 188.948C377.518 189.404 378.274 189.632 379.138 189.632C379.666 189.632 380.128 189.548 380.524 189.38C380.92 189.212 381.226 188.978 381.442 188.678C381.67 188.366 381.784 188.006 381.784 187.598C381.784 187.034 381.622 186.59 381.298 186.266C380.986 185.93 380.524 185.678 379.912 185.51L377.446 184.754C376.474 184.454 375.73 183.98 375.214 183.332C374.698 182.684 374.44 181.94 374.44 181.1C374.44 180.368 374.614 179.726 374.962 179.174C375.322 178.61 375.814 178.172 376.438 177.86C377.074 177.536 377.794 177.374 378.598 177.374C379.402 177.374 380.128 177.518 380.776 177.806C381.436 178.094 381.994 178.484 382.45 178.976C382.906 179.456 383.242 180.008 383.458 180.632L381.946 181.262C381.658 180.506 381.226 179.936 380.65 179.552C380.074 179.156 379.396 178.958 378.616 178.958C378.136 178.958 377.71 179.042 377.338 179.21C376.978 179.366 376.696 179.6 376.492 179.912C376.3 180.212 376.204 180.572 376.204 180.992C376.204 181.484 376.36 181.922 376.672 182.306C376.984 182.69 377.458 182.984 378.094 183.188L380.344 183.854C381.4 184.178 382.198 184.64 382.738 185.24C383.278 185.84 383.548 186.584 383.548 187.472C383.548 188.204 383.356 188.852 382.972 189.416C382.6 189.98 382.078 190.424 381.406 190.748C380.746 191.06 379.978 191.216 379.102 191.216ZM385.933 191V181.298H387.607V191H385.933ZM385.933 179.75V177.59H387.607V179.75H385.933ZM390.204 191V181.298H391.842V183.188L391.572 183.026C391.812 182.414 392.196 181.94 392.724 181.604C393.264 181.256 393.894 181.082 394.614 181.082C395.31 181.082 395.928 181.238 396.468 181.55C397.02 181.862 397.452 182.294 397.764 182.846C398.088 183.398 398.25 184.022 398.25 184.718V191H396.558V185.258C396.558 184.718 396.462 184.262 396.27 183.89C396.078 183.518 395.802 183.23 395.442 183.026C395.094 182.81 394.692 182.702 394.236 182.702C393.78 182.702 393.372 182.81 393.012 183.026C392.664 183.23 392.388 183.524 392.184 183.908C391.98 184.28 391.878 184.73 391.878 185.258V191H390.204ZM405.272 194.96C404.588 194.96 403.952 194.852 403.364 194.636C402.788 194.42 402.29 194.12 401.87 193.736C401.462 193.364 401.15 192.926 400.934 192.422L402.5 191.702C402.668 192.158 402.986 192.542 403.454 192.854C403.934 193.178 404.534 193.34 405.254 193.34C405.806 193.34 406.304 193.232 406.748 193.016C407.204 192.812 407.564 192.5 407.828 192.08C408.092 191.672 408.224 191.174 408.224 190.586V188.408L408.53 188.732C408.194 189.392 407.708 189.896 407.072 190.244C406.448 190.592 405.758 190.766 405.002 190.766C404.09 190.766 403.274 190.556 402.554 190.136C401.834 189.704 401.27 189.122 400.862 188.39C400.454 187.646 400.25 186.824 400.25 185.924C400.25 185.012 400.454 184.19 400.862 183.458C401.27 182.726 401.828 182.15 402.536 181.73C403.256 181.298 404.072 181.082 404.984 181.082C405.74 181.082 406.424 181.256 407.036 181.604C407.66 181.94 408.158 182.408 408.53 183.008L408.278 183.458V181.298H409.916V190.586C409.916 191.426 409.718 192.176 409.322 192.836C408.926 193.496 408.374 194.012 407.666 194.384C406.97 194.768 406.172 194.96 405.272 194.96ZM405.146 189.146C405.722 189.146 406.238 189.002 406.694 188.714C407.162 188.426 407.534 188.042 407.81 187.562C408.086 187.07 408.224 186.524 408.224 185.924C408.224 185.336 408.086 184.796 407.81 184.304C407.534 183.812 407.162 183.422 406.694 183.134C406.238 182.846 405.722 182.702 405.146 182.702C404.558 182.702 404.024 182.846 403.544 183.134C403.064 183.422 402.686 183.812 402.41 184.304C402.146 184.784 402.014 185.324 402.014 185.924C402.014 186.524 402.146 187.07 402.41 187.562C402.686 188.042 403.058 188.426 403.526 188.714C404.006 189.002 404.546 189.146 405.146 189.146ZM415.949 191.216C415.253 191.216 414.623 191.054 414.059 190.73C413.507 190.406 413.075 189.956 412.763 189.38C412.463 188.792 412.313 188.12 412.313 187.364V181.298H413.987V187.184C413.987 187.664 414.083 188.084 414.275 188.444C414.479 188.804 414.755 189.086 415.103 189.29C415.463 189.494 415.871 189.596 416.327 189.596C416.783 189.596 417.185 189.494 417.533 189.29C417.893 189.086 418.169 188.792 418.361 188.408C418.565 188.024 418.667 187.568 418.667 187.04V181.298H420.359V191H418.721V189.11L418.991 189.272C418.763 189.884 418.373 190.364 417.821 190.712C417.281 191.048 416.657 191.216 415.949 191.216ZM422.952 191V177.374H424.626V191H422.952ZM430.068 191.216C429.432 191.216 428.868 191.102 428.376 190.874C427.896 190.634 427.518 190.31 427.242 189.902C426.966 189.482 426.828 189.002 426.828 188.462C426.828 187.946 426.936 187.484 427.152 187.076C427.38 186.656 427.728 186.302 428.196 186.014C428.676 185.726 429.276 185.522 429.996 185.402L433.596 184.808V186.212L430.374 186.752C429.75 186.86 429.294 187.058 429.006 187.346C428.73 187.634 428.592 187.988 428.592 188.408C428.592 188.804 428.748 189.134 429.06 189.398C429.384 189.662 429.786 189.794 430.266 189.794C430.878 189.794 431.406 189.668 431.85 189.416C432.306 189.152 432.66 188.798 432.912 188.354C433.176 187.91 433.308 187.418 433.308 186.878V184.412C433.308 183.884 433.11 183.458 432.714 183.134C432.33 182.798 431.82 182.63 431.184 182.63C430.632 182.63 430.14 182.774 429.708 183.062C429.288 183.338 428.976 183.71 428.772 184.178L427.314 183.422C427.494 182.978 427.782 182.582 428.178 182.234C428.574 181.874 429.036 181.592 429.564 181.388C430.092 181.184 430.644 181.082 431.22 181.082C431.964 181.082 432.618 181.226 433.182 181.514C433.746 181.79 434.184 182.18 434.496 182.684C434.82 183.176 434.982 183.752 434.982 184.412V191H433.344V189.164L433.65 189.272C433.446 189.656 433.17 189.992 432.822 190.28C432.474 190.568 432.066 190.796 431.598 190.964C431.13 191.132 430.62 191.216 430.068 191.216ZM437.577 191V181.298H439.215V183.08L439.035 182.828C439.263 182.276 439.611 181.868 440.079 181.604C440.547 181.328 441.117 181.19 441.789 181.19H442.383V182.774H441.537C440.853 182.774 440.301 182.99 439.881 183.422C439.461 183.842 439.251 184.442 439.251 185.222V191H437.577ZM443.87 191V181.298H445.544V191H443.87ZM443.87 179.75V177.59H445.544V179.75H443.87ZM452.552 191.216C451.64 191.216 450.818 190.994 450.086 190.55C449.366 190.106 448.796 189.5 448.376 188.732C447.956 187.964 447.746 187.106 447.746 186.158C447.746 185.186 447.956 184.322 448.376 183.566C448.796 182.798 449.366 182.192 450.086 181.748C450.818 181.304 451.64 181.082 452.552 181.082C453.356 181.082 454.07 181.256 454.694 181.604C455.318 181.94 455.81 182.396 456.17 182.972L455.9 183.386V177.374H457.592V191H455.954V188.93L456.17 189.218C455.834 189.854 455.342 190.346 454.694 190.694C454.058 191.042 453.344 191.216 452.552 191.216ZM452.696 189.596C453.308 189.596 453.854 189.446 454.334 189.146C454.814 188.846 455.192 188.438 455.468 187.922C455.756 187.394 455.9 186.806 455.9 186.158C455.9 185.498 455.756 184.91 455.468 184.394C455.192 183.866 454.814 183.452 454.334 183.152C453.854 182.852 453.308 182.702 452.696 182.702C452.096 182.702 451.55 182.858 451.058 183.17C450.578 183.47 450.2 183.878 449.924 184.394C449.648 184.898 449.51 185.486 449.51 186.158C449.51 186.806 449.648 187.394 449.924 187.922C450.2 188.438 450.578 188.846 451.058 189.146C451.538 189.446 452.084 189.596 452.696 189.596ZM463.027 191.216C462.391 191.216 461.827 191.102 461.335 190.874C460.855 190.634 460.477 190.31 460.201 189.902C459.925 189.482 459.787 189.002 459.787 188.462C459.787 187.946 459.895 187.484 460.111 187.076C460.339 186.656 460.687 186.302 461.155 186.014C461.635 185.726 462.235 185.522 462.955 185.402L466.555 184.808V186.212L463.333 186.752C462.709 186.86 462.253 187.058 461.965 187.346C461.689 187.634 461.551 187.988 461.551 188.408C461.551 188.804 461.707 189.134 462.019 189.398C462.343 189.662 462.745 189.794 463.225 189.794C463.837 189.794 464.365 189.668 464.809 189.416C465.265 189.152 465.619 188.798 465.871 188.354C466.135 187.91 466.267 187.418 466.267 186.878V184.412C466.267 183.884 466.069 183.458 465.673 183.134C465.289 182.798 464.779 182.63 464.143 182.63C463.591 182.63 463.099 182.774 462.667 183.062C462.247 183.338 461.935 183.71 461.731 184.178L460.273 183.422C460.453 182.978 460.741 182.582 461.137 182.234C461.533 181.874 461.995 181.592 462.523 181.388C463.051 181.184 463.603 181.082 464.179 181.082C464.923 181.082 465.577 181.226 466.141 181.514C466.705 181.79 467.143 182.18 467.455 182.684C467.779 183.176 467.941 183.752 467.941 184.412V191H466.303V189.164L466.609 189.272C466.405 189.656 466.129 189.992 465.781 190.28C465.433 190.568 465.025 190.796 464.557 190.964C464.089 191.132 463.579 191.216 463.027 191.216ZM474.946 191.216C474.034 191.216 473.212 190.994 472.48 190.55C471.76 190.106 471.19 189.5 470.77 188.732C470.35 187.964 470.14 187.106 470.14 186.158C470.14 185.186 470.35 184.322 470.77 183.566C471.19 182.798 471.76 182.192 472.48 181.748C473.212 181.304 474.034 181.082 474.946 181.082C475.75 181.082 476.464 181.256 477.088 181.604C477.712 181.94 478.204 182.396 478.564 182.972L478.294 183.386V177.374H479.986V191H478.348V188.93L478.564 189.218C478.228 189.854 477.736 190.346 477.088 190.694C476.452 191.042 475.738 191.216 474.946 191.216ZM475.09 189.596C475.702 189.596 476.248 189.446 476.728 189.146C477.208 188.846 477.586 188.438 477.862 187.922C478.15 187.394 478.294 186.806 478.294 186.158C478.294 185.498 478.15 184.91 477.862 184.394C477.586 183.866 477.208 183.452 476.728 183.152C476.248 182.852 475.702 182.702 475.09 182.702C474.49 182.702 473.944 182.858 473.452 183.17C472.972 183.47 472.594 183.878 472.318 184.394C472.042 184.898 471.904 185.486 471.904 186.158C471.904 186.806 472.042 187.394 472.318 187.922C472.594 188.438 472.972 188.846 473.452 189.146C473.932 189.446 474.478 189.596 475.09 189.596ZM487.041 191.216C486.105 191.216 485.271 190.994 484.539 190.55C483.807 190.106 483.231 189.5 482.811 188.732C482.391 187.952 482.181 187.082 482.181 186.122C482.181 185.15 482.385 184.286 482.793 183.53C483.213 182.774 483.777 182.18 484.485 181.748C485.205 181.304 486.009 181.082 486.897 181.082C487.617 181.082 488.253 181.214 488.805 181.478C489.369 181.73 489.843 182.078 490.227 182.522C490.623 182.954 490.923 183.452 491.127 184.016C491.343 184.568 491.451 185.144 491.451 185.744C491.451 185.876 491.439 186.026 491.415 186.194C491.403 186.35 491.385 186.5 491.361 186.644H483.405V185.204H490.389L489.597 185.852C489.705 185.228 489.645 184.67 489.417 184.178C489.189 183.686 488.853 183.296 488.409 183.008C487.965 182.72 487.461 182.576 486.897 182.576C486.333 182.576 485.817 182.72 485.349 183.008C484.881 183.296 484.515 183.71 484.251 184.25C483.999 184.778 483.897 185.408 483.945 186.14C483.897 186.848 484.005 187.472 484.269 188.012C484.545 188.54 484.929 188.954 485.421 189.254C485.925 189.542 486.471 189.686 487.059 189.686C487.707 189.686 488.253 189.536 488.697 189.236C489.141 188.936 489.501 188.552 489.777 188.084L491.181 188.804C490.989 189.248 490.689 189.656 490.281 190.028C489.885 190.388 489.411 190.676 488.859 190.892C488.319 191.108 487.713 191.216 487.041 191.216Z" fill="#F8F8F8"/>
<path d="M128.6 376.009V362.599H137.33V364.219H130.364V368.467H136.97V370.087H130.364V374.389H137.33V376.009H128.6ZM138.22 376.009L141.622 371.149L138.238 366.307H140.254L143.152 370.519H142.126L144.988 366.307H147.022L143.638 371.149L147.004 376.009H144.988L142.126 371.797H143.134L140.272 376.009H138.22ZM148.511 379.609V366.307H150.149V368.395L149.933 367.981C150.293 367.405 150.785 366.949 151.409 366.613C152.033 366.265 152.747 366.091 153.551 366.091C154.463 366.091 155.279 366.313 155.999 366.757C156.731 367.201 157.307 367.807 157.727 368.575C158.147 369.331 158.357 370.195 158.357 371.167C158.357 372.115 158.147 372.973 157.727 373.741C157.307 374.509 156.731 375.115 155.999 375.559C155.279 376.003 154.457 376.225 153.533 376.225C152.753 376.225 152.039 376.051 151.391 375.703C150.755 375.355 150.263 374.863 149.915 374.227L150.185 373.939V379.609H148.511ZM153.407 374.605C154.019 374.605 154.565 374.455 155.045 374.155C155.525 373.855 155.897 373.447 156.161 372.931C156.437 372.403 156.575 371.815 156.575 371.167C156.575 370.495 156.437 369.907 156.161 369.403C155.897 368.887 155.525 368.479 155.045 368.179C154.565 367.867 154.019 367.711 153.407 367.711C152.795 367.711 152.243 367.861 151.751 368.161C151.271 368.461 150.887 368.875 150.599 369.403C150.323 369.919 150.185 370.507 150.185 371.167C150.185 371.815 150.323 372.403 150.599 372.931C150.887 373.447 151.271 373.855 151.751 374.155C152.243 374.455 152.795 374.605 153.407 374.605ZM160.552 376.009V362.383H162.226V376.009H160.552ZM169.432 376.225C168.496 376.225 167.65 376.009 166.894 375.577C166.138 375.133 165.538 374.527 165.094 373.759C164.65 372.991 164.428 372.121 164.428 371.149C164.428 370.177 164.644 369.313 165.076 368.557C165.52 367.801 166.12 367.201 166.876 366.757C167.632 366.313 168.484 366.091 169.432 366.091C170.368 366.091 171.214 366.313 171.97 366.757C172.726 367.189 173.32 367.783 173.752 368.539C174.196 369.295 174.418 370.165 174.418 371.149C174.418 372.133 174.19 373.009 173.734 373.777C173.278 374.533 172.672 375.133 171.916 375.577C171.172 376.009 170.344 376.225 169.432 376.225ZM169.432 374.605C170.032 374.605 170.572 374.455 171.052 374.155C171.544 373.855 171.928 373.441 172.204 372.913C172.492 372.385 172.636 371.797 172.636 371.149C172.636 370.489 172.492 369.907 172.204 369.403C171.928 368.887 171.544 368.479 171.052 368.179C170.572 367.867 170.032 367.711 169.432 367.711C168.82 367.711 168.268 367.867 167.776 368.179C167.296 368.479 166.912 368.887 166.624 369.403C166.336 369.907 166.192 370.489 166.192 371.149C166.192 371.797 166.336 372.385 166.624 372.913C166.912 373.441 167.296 373.855 167.776 374.155C168.268 374.455 168.82 374.605 169.432 374.605ZM176.601 376.009V366.307H178.239V368.089L178.059 367.837C178.287 367.285 178.635 366.877 179.103 366.613C179.571 366.337 180.141 366.199 180.813 366.199H181.407V367.783H180.561C179.877 367.783 179.325 367.999 178.905 368.431C178.485 368.851 178.275 369.451 178.275 370.231V376.009H176.601ZM185.738 376.225C185.102 376.225 184.538 376.111 184.046 375.883C183.566 375.643 183.188 375.319 182.912 374.911C182.636 374.491 182.498 374.011 182.498 373.471C182.498 372.955 182.606 372.493 182.822 372.085C183.05 371.665 183.398 371.311 183.866 371.023C184.346 370.735 184.946 370.531 185.666 370.411L189.266 369.817V371.221L186.044 371.761C185.42 371.869 184.964 372.067 184.676 372.355C184.4 372.643 184.262 372.997 184.262 373.417C184.262 373.813 184.418 374.143 184.73 374.407C185.054 374.671 185.456 374.803 185.936 374.803C186.548 374.803 187.076 374.677 187.52 374.425C187.976 374.161 188.33 373.807 188.582 373.363C188.846 372.919 188.978 372.427 188.978 371.887V369.421C188.978 368.893 188.78 368.467 188.384 368.143C188 367.807 187.49 367.639 186.854 367.639C186.302 367.639 185.81 367.783 185.378 368.071C184.958 368.347 184.646 368.719 184.442 369.187L182.984 368.431C183.164 367.987 183.452 367.591 183.848 367.243C184.244 366.883 184.706 366.601 185.234 366.397C185.762 366.193 186.314 366.091 186.89 366.091C187.634 366.091 188.288 366.235 188.852 366.523C189.416 366.799 189.854 367.189 190.166 367.693C190.49 368.185 190.652 368.761 190.652 369.421V376.009H189.014V374.173L189.32 374.281C189.116 374.665 188.84 375.001 188.492 375.289C188.144 375.577 187.736 375.805 187.268 375.973C186.8 376.141 186.29 376.225 185.738 376.225ZM197.748 376.225C196.8 376.225 195.954 376.003 195.21 375.559C194.478 375.115 193.902 374.509 193.482 373.741C193.062 372.973 192.852 372.109 192.852 371.149C192.852 370.177 193.062 369.313 193.482 368.557C193.902 367.801 194.478 367.201 195.21 366.757C195.954 366.313 196.8 366.091 197.748 366.091C198.384 366.091 198.978 366.205 199.53 366.433C200.082 366.661 200.568 366.967 200.988 367.351C201.408 367.735 201.714 368.185 201.906 368.701L200.412 369.421C200.184 368.917 199.836 368.509 199.368 368.197C198.9 367.873 198.36 367.711 197.748 367.711C197.16 367.711 196.626 367.861 196.146 368.161C195.678 368.461 195.306 368.869 195.03 369.385C194.754 369.901 194.616 370.495 194.616 371.167C194.616 371.815 194.754 372.403 195.03 372.931C195.306 373.447 195.678 373.855 196.146 374.155C196.626 374.455 197.16 374.605 197.748 374.605C198.36 374.605 198.9 374.449 199.368 374.137C199.836 373.813 200.184 373.387 200.412 372.859L201.906 373.615C201.714 374.119 201.408 374.569 200.988 374.965C200.568 375.349 200.082 375.655 199.53 375.883C198.978 376.111 198.384 376.225 197.748 376.225ZM197.964 380.185C197.628 380.185 197.28 380.125 196.92 380.005C196.56 379.897 196.266 379.747 196.038 379.555L196.452 378.457C196.632 378.613 196.836 378.733 197.064 378.817C197.292 378.901 197.514 378.943 197.73 378.943C197.994 378.943 198.204 378.877 198.36 378.745C198.516 378.625 198.594 378.463 198.594 378.259C198.594 377.995 198.456 377.785 198.18 377.629C197.904 377.485 197.466 377.377 196.866 377.305L197.28 375.829H198.378L198.18 376.639C198.804 376.759 199.278 376.969 199.602 377.269C199.938 377.569 200.106 377.935 200.106 378.367C200.106 378.907 199.902 379.345 199.494 379.681C199.098 380.017 198.588 380.185 197.964 380.185ZM206.814 376.225C206.178 376.225 205.614 376.111 205.122 375.883C204.642 375.643 204.264 375.319 203.988 374.911C203.712 374.491 203.574 374.011 203.574 373.471C203.574 372.955 203.682 372.493 203.898 372.085C204.126 371.665 204.474 371.311 204.942 371.023C205.422 370.735 206.022 370.531 206.742 370.411L210.342 369.817V371.221L207.12 371.761C206.496 371.869 206.04 372.067 205.752 372.355C205.476 372.643 205.338 372.997 205.338 373.417C205.338 373.813 205.494 374.143 205.806 374.407C206.13 374.671 206.532 374.803 207.012 374.803C207.624 374.803 208.152 374.677 208.596 374.425C209.052 374.161 209.406 373.807 209.658 373.363C209.922 372.919 210.054 372.427 210.054 371.887V369.421C210.054 368.893 209.856 368.467 209.46 368.143C209.076 367.807 208.566 367.639 207.93 367.639C207.378 367.639 206.886 367.783 206.454 368.071C206.034 368.347 205.722 368.719 205.518 369.187L204.06 368.431C204.24 367.987 204.528 367.591 204.924 367.243C205.32 366.883 205.782 366.601 206.31 366.397C206.838 366.193 207.39 366.091 207.966 366.091C208.71 366.091 209.364 366.235 209.928 366.523C210.492 366.799 210.93 367.189 211.242 367.693C211.566 368.185 211.728 368.761 211.728 369.421V376.009H210.09V374.173L210.396 374.281C210.192 374.665 209.916 375.001 209.568 375.289C209.22 375.577 208.812 375.805 208.344 375.973C207.876 376.141 207.366 376.225 206.814 376.225ZM209.118 364.489C208.794 364.489 208.53 364.435 208.326 364.327C208.134 364.219 207.966 364.093 207.822 363.949C207.678 363.805 207.534 363.679 207.39 363.571C207.246 363.463 207.072 363.409 206.868 363.409C206.676 363.409 206.52 363.487 206.4 363.643C206.292 363.787 206.238 364.045 206.238 364.417H204.888C204.888 363.613 205.062 363.013 205.41 362.617C205.77 362.209 206.232 362.005 206.796 362.005C207.12 362.005 207.384 362.059 207.588 362.167C207.792 362.275 207.966 362.401 208.11 362.545C208.254 362.689 208.392 362.815 208.524 362.923C208.668 363.031 208.842 363.085 209.046 363.085C209.262 363.085 209.43 363.001 209.55 362.833C209.67 362.653 209.73 362.401 209.73 362.077H211.062C211.062 362.821 210.882 363.409 210.522 363.841C210.162 364.273 209.694 364.489 209.118 364.489ZM218.932 376.225C217.996 376.225 217.15 376.009 216.394 375.577C215.638 375.133 215.038 374.527 214.594 373.759C214.15 372.991 213.928 372.121 213.928 371.149C213.928 370.177 214.144 369.313 214.576 368.557C215.02 367.801 215.62 367.201 216.376 366.757C217.132 366.313 217.984 366.091 218.932 366.091C219.868 366.091 220.714 366.313 221.47 366.757C222.226 367.189 222.82 367.783 223.252 368.539C223.696 369.295 223.918 370.165 223.918 371.149C223.918 372.133 223.69 373.009 223.234 373.777C222.778 374.533 222.172 375.133 221.416 375.577C220.672 376.009 219.844 376.225 218.932 376.225ZM218.932 374.605C219.532 374.605 220.072 374.455 220.552 374.155C221.044 373.855 221.428 373.441 221.704 372.913C221.992 372.385 222.136 371.797 222.136 371.149C222.136 370.489 221.992 369.907 221.704 369.403C221.428 368.887 221.044 368.479 220.552 368.179C220.072 367.867 219.532 367.711 218.932 367.711C218.32 367.711 217.768 367.867 217.276 368.179C216.796 368.479 216.412 368.887 216.124 369.403C215.836 369.907 215.692 370.489 215.692 371.149C215.692 371.797 215.836 372.385 216.124 372.913C216.412 373.441 216.796 373.855 217.276 374.155C217.768 374.455 218.32 374.605 218.932 374.605Z" fill="#F8F8F8"/>
<rect x="50" y="494" width="67" height="21" rx="10.5" fill="#FC9173"/>
<path d="M62.43 504.056H62.832C62.984 504.056 63.108 504.036 63.204 503.996C63.3 503.952 63.386 503.884 63.462 503.792L66.078 500.672C66.17 500.556 66.264 500.476 66.36 500.432C66.46 500.384 66.584 500.36 66.732 500.36H67.932L64.842 504.008C64.758 504.112 64.676 504.2 64.596 504.272C64.52 504.34 64.436 504.396 64.344 504.44C64.464 504.484 64.572 504.546 64.668 504.626C64.764 504.702 64.858 504.804 64.95 504.932L68.154 509H66.93C66.842 509 66.766 508.994 66.702 508.982C66.642 508.97 66.588 508.952 66.54 508.928C66.496 508.904 66.456 508.874 66.42 508.838C66.388 508.802 66.358 508.762 66.33 508.718L63.63 505.418C63.59 505.366 63.55 505.322 63.51 505.286C63.47 505.25 63.422 505.22 63.366 505.196C63.314 505.172 63.254 505.156 63.186 505.148C63.118 505.136 63.038 505.13 62.946 505.13H62.43V509H61.026V500.36H62.43V504.056ZM72.4523 505.25C72.4523 505.034 72.4203 504.834 72.3563 504.65C72.2963 504.462 72.2063 504.3 72.0863 504.164C71.9663 504.024 71.8163 503.916 71.6363 503.84C71.4603 503.76 71.2563 503.72 71.0243 503.72C70.5563 503.72 70.1883 503.854 69.9203 504.122C69.6523 504.39 69.4823 504.766 69.4103 505.25H72.4523ZM69.3743 506.042C69.3903 506.39 69.4443 506.692 69.5363 506.948C69.6283 507.2 69.7503 507.41 69.9023 507.578C70.0583 507.746 70.2423 507.872 70.4543 507.956C70.6703 508.036 70.9103 508.076 71.1743 508.076C71.4263 508.076 71.6443 508.048 71.8283 507.992C72.0123 507.932 72.1723 507.868 72.3083 507.8C72.4443 507.728 72.5603 507.664 72.6563 507.608C72.7523 507.548 72.8403 507.518 72.9203 507.518C73.0243 507.518 73.1043 507.558 73.1603 507.638L73.5263 508.112C73.3743 508.292 73.2023 508.444 73.0103 508.568C72.8183 508.692 72.6143 508.794 72.3983 508.874C72.1823 508.95 71.9603 509.004 71.7323 509.036C71.5043 509.072 71.2823 509.09 71.0663 509.09C70.6423 509.09 70.2483 509.02 69.8843 508.88C69.5243 508.736 69.2103 508.526 68.9423 508.25C68.6783 507.974 68.4703 507.632 68.3183 507.224C68.1703 506.816 68.0963 506.346 68.0963 505.814C68.0963 505.39 68.1623 504.994 68.2943 504.626C68.4303 504.258 68.6223 503.938 68.8703 503.666C69.1223 503.394 69.4263 503.18 69.7823 503.024C70.1423 502.864 70.5483 502.784 71.0003 502.784C71.3763 502.784 71.7243 502.846 72.0443 502.97C72.3643 503.09 72.6403 503.268 72.8723 503.504C73.1043 503.74 73.2843 504.03 73.4123 504.374C73.5443 504.714 73.6103 505.102 73.6103 505.538C73.6103 505.738 73.5883 505.872 73.5443 505.94C73.5003 506.008 73.4203 506.042 73.3043 506.042H69.3743ZM76.0193 503.69C76.1513 503.554 76.2873 503.432 76.4273 503.324C76.5713 503.212 76.7233 503.116 76.8833 503.036C77.0433 502.956 77.2133 502.894 77.3933 502.85C77.5733 502.806 77.7693 502.784 77.9813 502.784C78.3173 502.784 78.6113 502.84 78.8633 502.952C79.1193 503.064 79.3333 503.222 79.5053 503.426C79.6813 503.63 79.8133 503.876 79.9013 504.164C79.9893 504.448 80.0333 504.762 80.0333 505.106V509H78.7493V505.106C78.7493 504.694 78.6533 504.374 78.4613 504.146C78.2733 503.918 77.9853 503.804 77.5973 503.804C77.3093 503.804 77.0413 503.87 76.7933 504.002C76.5493 504.134 76.3193 504.314 76.1033 504.542V509H74.8133V502.88H75.5933C75.7693 502.88 75.8813 502.962 75.9293 503.126L76.0193 503.69ZM82.7459 503.69C82.8779 503.554 83.0139 503.432 83.1539 503.324C83.2979 503.212 83.4499 503.116 83.6099 503.036C83.7699 502.956 83.9399 502.894 84.1199 502.85C84.2999 502.806 84.4959 502.784 84.7079 502.784C85.0439 502.784 85.3379 502.84 85.5899 502.952C85.8459 503.064 86.0599 503.222 86.2319 503.426C86.4079 503.63 86.5399 503.876 86.6279 504.164C86.7159 504.448 86.7599 504.762 86.7599 505.106V509H85.4759V505.106C85.4759 504.694 85.3799 504.374 85.1879 504.146C84.9999 503.918 84.7119 503.804 84.3239 503.804C84.0359 503.804 83.7679 503.87 83.5199 504.002C83.2759 504.134 83.0459 504.314 82.8299 504.542V509H81.5399V502.88H82.3199C82.4959 502.88 82.6079 502.962 82.6559 503.126L82.7459 503.69ZM92.2805 505.25C92.2805 505.034 92.2485 504.834 92.1845 504.65C92.1245 504.462 92.0345 504.3 91.9145 504.164C91.7945 504.024 91.6445 503.916 91.4645 503.84C91.2885 503.76 91.0845 503.72 90.8525 503.72C90.3845 503.72 90.0165 503.854 89.7485 504.122C89.4805 504.39 89.3105 504.766 89.2385 505.25H92.2805ZM89.2025 506.042C89.2185 506.39 89.2725 506.692 89.3645 506.948C89.4565 507.2 89.5785 507.41 89.7305 507.578C89.8865 507.746 90.0705 507.872 90.2825 507.956C90.4985 508.036 90.7385 508.076 91.0025 508.076C91.2545 508.076 91.4725 508.048 91.6565 507.992C91.8405 507.932 92.0005 507.868 92.1365 507.8C92.2725 507.728 92.3885 507.664 92.4845 507.608C92.5805 507.548 92.6685 507.518 92.7485 507.518C92.8525 507.518 92.9325 507.558 92.9885 507.638L93.3545 508.112C93.2025 508.292 93.0305 508.444 92.8385 508.568C92.6465 508.692 92.4425 508.794 92.2265 508.874C92.0105 508.95 91.7885 509.004 91.5605 509.036C91.3325 509.072 91.1105 509.09 90.8945 509.09C90.4705 509.09 90.0765 509.02 89.7125 508.88C89.3525 508.736 89.0385 508.526 88.7705 508.25C88.5065 507.974 88.2985 507.632 88.1465 507.224C87.9985 506.816 87.9245 506.346 87.9245 505.814C87.9245 505.39 87.9905 504.994 88.1225 504.626C88.2585 504.258 88.4505 503.938 88.6985 503.666C88.9505 503.394 89.2545 503.18 89.6105 503.024C89.9705 502.864 90.3765 502.784 90.8285 502.784C91.2045 502.784 91.5525 502.846 91.8725 502.97C92.1925 503.09 92.4685 503.268 92.7005 503.504C92.9325 503.74 93.1125 504.03 93.2405 504.374C93.3725 504.714 93.4385 505.102 93.4385 505.538C93.4385 505.738 93.4165 505.872 93.3725 505.94C93.3285 506.008 93.2485 506.042 93.1325 506.042H89.2025ZM98.5475 504.386C98.3675 504.154 98.1695 503.992 97.9535 503.9C97.7375 503.808 97.5035 503.762 97.2515 503.762C96.7475 503.762 96.3535 503.948 96.0695 504.32C95.7855 504.688 95.6435 505.234 95.6435 505.958C95.6435 506.334 95.6755 506.656 95.7395 506.924C95.8035 507.188 95.8955 507.404 96.0155 507.572C96.1355 507.74 96.2815 507.862 96.4535 507.938C96.6255 508.014 96.8195 508.052 97.0355 508.052C97.3635 508.052 97.6455 507.982 97.8815 507.842C98.1215 507.698 98.3435 507.496 98.5475 507.236V504.386ZM99.8375 500.12V509H99.0575C98.8855 509 98.7755 508.918 98.7275 508.754L98.6135 508.088C98.3575 508.388 98.0655 508.63 97.7375 508.814C97.4135 508.998 97.0355 509.09 96.6035 509.09C96.2595 509.09 95.9475 509.022 95.6675 508.886C95.3875 508.746 95.1475 508.544 94.9475 508.28C94.7475 508.016 94.5915 507.69 94.4795 507.302C94.3715 506.91 94.3175 506.462 94.3175 505.958C94.3175 505.502 94.3775 505.08 94.4975 504.692C94.6215 504.304 94.7975 503.968 95.0255 503.684C95.2535 503.396 95.5295 503.172 95.8535 503.012C96.1815 502.848 96.5475 502.766 96.9515 502.766C97.3115 502.766 97.6175 502.824 97.8695 502.94C98.1215 503.052 98.3475 503.21 98.5475 503.414V500.12H99.8375ZM106.845 502.88L103.473 510.74C103.429 510.832 103.375 510.904 103.311 510.956C103.251 511.008 103.157 511.034 103.029 511.034H102.075L103.203 508.586L100.707 502.88H101.829C101.937 502.88 102.019 502.906 102.075 502.958C102.135 503.006 102.179 503.064 102.207 503.132L103.665 506.606C103.701 506.706 103.733 506.806 103.761 506.906C103.793 507.002 103.823 507.102 103.851 507.206C103.883 507.102 103.915 507 103.947 506.9C103.979 506.8 104.015 506.7 104.055 506.6L105.453 503.132C105.481 503.06 105.527 503 105.591 502.952C105.659 502.904 105.733 502.88 105.813 502.88H106.845Z" fill="white"/>
<path d="M130.25 481.161L121.271 483.577C120.42 483.806 120.26 484.946 121.016 485.4L124.586 487.544C124.733 487.633 124.856 487.759 124.941 487.909L126.992 491.532C127.427 492.3 128.57 492.17 128.821 491.324L131.469 482.411C131.691 481.661 131.006 480.957 130.25 481.161Z" fill="#FC9173"/>
<rect x="411" y="524" width="55" height="21" rx="10.5" fill="#FC9173"/>
<path d="M427.972 531.53H425.278V539H423.88V531.53H421.18V530.36H427.972V531.53ZM430.119 533.606C430.371 533.358 430.647 533.16 430.947 533.012C431.247 532.86 431.597 532.784 431.997 532.784C432.333 532.784 432.627 532.84 432.879 532.952C433.135 533.064 433.349 533.222 433.521 533.426C433.697 533.63 433.829 533.876 433.917 534.164C434.005 534.448 434.049 534.762 434.049 535.106V539H432.765V535.106C432.765 534.694 432.669 534.374 432.477 534.146C432.289 533.918 432.001 533.804 431.613 533.804C431.325 533.804 431.057 533.87 430.809 534.002C430.565 534.134 430.335 534.314 430.119 534.542V539H428.829V530.12H430.119V533.606ZM438.825 536.324C438.365 536.34 437.977 536.378 437.661 536.438C437.345 536.494 437.089 536.568 436.893 536.66C436.697 536.748 436.555 536.854 436.467 536.978C436.383 537.102 436.341 537.238 436.341 537.386C436.341 537.53 436.363 537.654 436.407 537.758C436.455 537.858 436.519 537.942 436.599 538.01C436.683 538.074 436.779 538.122 436.887 538.154C436.999 538.182 437.121 538.196 437.253 538.196C437.589 538.196 437.877 538.134 438.117 538.01C438.361 537.882 438.597 537.698 438.825 537.458V536.324ZM435.405 533.732C436.097 533.088 436.921 532.766 437.877 532.766C438.229 532.766 438.541 532.824 438.813 532.94C439.089 533.052 439.319 533.212 439.503 533.42C439.691 533.628 439.833 533.876 439.929 534.164C440.029 534.448 440.079 534.764 440.079 535.112V539H439.503C439.379 539 439.285 538.982 439.221 538.946C439.157 538.906 439.103 538.828 439.059 538.712L438.933 538.214C438.777 538.354 438.623 538.48 438.471 538.592C438.319 538.7 438.161 538.792 437.997 538.868C437.837 538.944 437.663 539 437.475 539.036C437.291 539.076 437.087 539.096 436.863 539.096C436.615 539.096 436.383 539.062 436.167 538.994C435.955 538.926 435.771 538.824 435.615 538.688C435.459 538.548 435.335 538.376 435.243 538.172C435.155 537.968 435.111 537.728 435.111 537.452C435.111 537.216 435.173 536.986 435.297 536.762C435.425 536.538 435.633 536.338 435.921 536.162C436.213 535.982 436.595 535.834 437.067 535.718C437.543 535.602 438.129 535.536 438.825 535.52V535.112C438.825 534.672 438.731 534.344 438.543 534.128C438.355 533.912 438.079 533.804 437.715 533.804C437.467 533.804 437.259 533.836 437.091 533.9C436.923 533.96 436.777 534.026 436.653 534.098C436.529 534.17 436.419 534.238 436.323 534.302C436.227 534.362 436.125 534.392 436.017 534.392C435.929 534.392 435.853 534.37 435.789 534.326C435.729 534.278 435.679 534.22 435.639 534.152L435.405 533.732ZM442.904 530.12V539H441.614V530.12H442.904ZM448.511 535.25C448.511 535.034 448.479 534.834 448.415 534.65C448.355 534.462 448.265 534.3 448.145 534.164C448.025 534.024 447.875 533.916 447.695 533.84C447.519 533.76 447.315 533.72 447.083 533.72C446.615 533.72 446.247 533.854 445.979 534.122C445.711 534.39 445.541 534.766 445.469 535.25H448.511ZM445.433 536.042C445.449 536.39 445.503 536.692 445.595 536.948C445.687 537.2 445.809 537.41 445.961 537.578C446.117 537.746 446.301 537.872 446.513 537.956C446.729 538.036 446.969 538.076 447.233 538.076C447.485 538.076 447.703 538.048 447.887 537.992C448.071 537.932 448.231 537.868 448.367 537.8C448.503 537.728 448.619 537.664 448.715 537.608C448.811 537.548 448.899 537.518 448.979 537.518C449.083 537.518 449.163 537.558 449.219 537.638L449.585 538.112C449.433 538.292 449.261 538.444 449.069 538.568C448.877 538.692 448.673 538.794 448.457 538.874C448.241 538.95 448.019 539.004 447.791 539.036C447.563 539.072 447.341 539.09 447.125 539.09C446.701 539.09 446.307 539.02 445.943 538.88C445.583 538.736 445.269 538.526 445.001 538.25C444.737 537.974 444.529 537.632 444.377 537.224C444.229 536.816 444.155 536.346 444.155 535.814C444.155 535.39 444.221 534.994 444.353 534.626C444.489 534.258 444.681 533.938 444.929 533.666C445.181 533.394 445.485 533.18 445.841 533.024C446.201 532.864 446.607 532.784 447.059 532.784C447.435 532.784 447.783 532.846 448.103 532.97C448.423 533.09 448.699 533.268 448.931 533.504C449.163 533.74 449.343 534.03 449.471 534.374C449.603 534.714 449.669 535.102 449.669 535.538C449.669 535.738 449.647 535.872 449.603 535.94C449.559 536.008 449.479 536.042 449.363 536.042H445.433ZM454.526 533.99C454.494 534.046 454.458 534.086 454.418 534.11C454.378 534.134 454.328 534.146 454.268 534.146C454.2 534.146 454.126 534.126 454.046 534.086C453.966 534.042 453.872 533.994 453.764 533.942C453.656 533.89 453.528 533.844 453.38 533.804C453.236 533.76 453.066 533.738 452.87 533.738C452.71 533.738 452.564 533.758 452.432 533.798C452.304 533.834 452.194 533.888 452.102 533.96C452.014 534.028 451.946 534.11 451.898 534.206C451.85 534.298 451.826 534.398 451.826 534.506C451.826 534.65 451.87 534.77 451.958 534.866C452.046 534.962 452.162 535.046 452.306 535.118C452.45 535.186 452.614 535.248 452.798 535.304C452.982 535.36 453.17 535.42 453.362 535.484C453.554 535.548 453.742 535.622 453.926 535.706C454.11 535.79 454.274 535.894 454.418 536.018C454.562 536.138 454.678 536.286 454.766 536.462C454.854 536.634 454.898 536.844 454.898 537.092C454.898 537.38 454.846 537.646 454.742 537.89C454.638 538.134 454.486 538.346 454.286 538.526C454.086 538.706 453.836 538.846 453.536 538.946C453.24 539.046 452.9 539.096 452.516 539.096C452.304 539.096 452.098 539.076 451.898 539.036C451.702 539 451.514 538.95 451.334 538.886C451.158 538.818 450.992 538.738 450.836 538.646C450.684 538.554 450.548 538.454 450.428 538.346L450.728 537.854C450.764 537.794 450.808 537.748 450.86 537.716C450.916 537.68 450.984 537.662 451.064 537.662C451.148 537.662 451.23 537.69 451.31 537.746C451.394 537.798 451.49 537.856 451.598 537.92C451.71 537.984 451.844 538.044 452 538.1C452.156 538.152 452.35 538.178 452.582 538.178C452.774 538.178 452.94 538.156 453.08 538.112C453.22 538.064 453.336 538 453.428 537.92C453.52 537.84 453.588 537.75 453.632 537.65C453.676 537.546 453.698 537.436 453.698 537.32C453.698 537.164 453.654 537.036 453.566 536.936C453.478 536.836 453.36 536.75 453.212 536.678C453.068 536.606 452.902 536.542 452.714 536.486C452.53 536.43 452.342 536.37 452.15 536.306C451.958 536.242 451.768 536.168 451.58 536.084C451.396 536 451.23 535.894 451.082 535.766C450.938 535.634 450.822 535.476 450.734 535.292C450.646 535.104 450.602 534.876 450.602 534.608C450.602 534.364 450.65 534.132 450.746 533.912C450.846 533.692 450.99 533.498 451.178 533.33C451.37 533.162 451.604 533.03 451.88 532.934C452.16 532.834 452.482 532.784 452.846 532.784C453.258 532.784 453.632 532.85 453.968 532.982C454.304 533.114 454.586 533.294 454.814 533.522L454.526 533.99Z" fill="white"/>
<path d="M403.116 512.364L405.648 521.31C405.888 522.159 407.03 522.304 407.474 521.542L409.572 517.945C409.659 517.796 409.783 517.672 409.932 517.585L413.529 515.487C414.291 515.043 414.146 513.901 413.297 513.661L404.351 511.129C403.598 510.916 402.903 511.611 403.116 512.364Z" fill="#FC9173"/>
<rect x="560" y="269.999" width="52" height="21" rx="10.5" fill="#9743DF"/>
<path d="M573.714 280.763C574.026 280.763 574.3 280.723 574.536 280.643C574.776 280.563 574.974 280.451 575.13 280.307C575.29 280.159 575.41 279.981 575.49 279.773C575.57 279.565 575.61 279.333 575.61 279.077C575.61 278.825 575.57 278.599 575.49 278.399C575.414 278.199 575.298 278.029 575.142 277.889C574.986 277.749 574.788 277.643 574.548 277.571C574.312 277.495 574.034 277.457 573.714 277.457H572.43V280.763H573.714ZM573.714 276.359C574.278 276.359 574.766 276.425 575.178 276.557C575.594 276.689 575.936 276.875 576.204 277.115C576.476 277.351 576.678 277.637 576.81 277.973C576.942 278.305 577.008 278.673 577.008 279.077C577.008 279.489 576.938 279.867 576.798 280.211C576.658 280.551 576.45 280.845 576.174 281.093C575.898 281.337 575.554 281.529 575.142 281.669C574.734 281.805 574.258 281.873 573.714 281.873H572.43V284.999H571.026V276.359H573.714ZM581.819 281.249C581.819 281.033 581.787 280.833 581.723 280.649C581.663 280.461 581.573 280.299 581.453 280.163C581.333 280.023 581.183 279.915 581.003 279.839C580.827 279.759 580.623 279.719 580.391 279.719C579.923 279.719 579.555 279.853 579.287 280.121C579.019 280.389 578.849 280.765 578.777 281.249H581.819ZM578.741 282.041C578.757 282.389 578.811 282.691 578.903 282.947C578.995 283.199 579.117 283.409 579.269 283.577C579.425 283.745 579.609 283.871 579.821 283.955C580.037 284.035 580.277 284.075 580.541 284.075C580.793 284.075 581.011 284.047 581.195 283.991C581.379 283.931 581.539 283.867 581.675 283.799C581.811 283.727 581.927 283.663 582.023 283.607C582.119 283.547 582.207 283.517 582.287 283.517C582.391 283.517 582.471 283.557 582.527 283.637L582.893 284.111C582.741 284.291 582.569 284.443 582.377 284.567C582.185 284.691 581.981 284.793 581.765 284.873C581.549 284.949 581.327 285.003 581.099 285.035C580.871 285.071 580.649 285.089 580.433 285.089C580.009 285.089 579.615 285.019 579.251 284.879C578.891 284.735 578.577 284.525 578.309 284.249C578.045 283.973 577.837 283.631 577.685 283.223C577.537 282.815 577.463 282.345 577.463 281.813C577.463 281.389 577.529 280.993 577.661 280.625C577.797 280.257 577.989 279.937 578.237 279.665C578.489 279.393 578.793 279.179 579.149 279.023C579.509 278.863 579.915 278.783 580.367 278.783C580.743 278.783 581.091 278.845 581.411 278.969C581.731 279.089 582.007 279.267 582.239 279.503C582.471 279.739 582.651 280.029 582.779 280.373C582.911 280.713 582.977 281.101 582.977 281.537C582.977 281.737 582.955 281.871 582.911 281.939C582.867 282.007 582.787 282.041 582.671 282.041H578.741ZM588.086 280.385C587.906 280.153 587.708 279.991 587.492 279.899C587.276 279.807 587.042 279.761 586.79 279.761C586.286 279.761 585.892 279.947 585.608 280.319C585.324 280.687 585.182 281.233 585.182 281.957C585.182 282.333 585.214 282.655 585.278 282.923C585.342 283.187 585.434 283.403 585.554 283.571C585.674 283.739 585.82 283.861 585.992 283.937C586.164 284.013 586.358 284.051 586.574 284.051C586.902 284.051 587.184 283.981 587.42 283.841C587.66 283.697 587.882 283.495 588.086 283.235V280.385ZM589.376 276.119V284.999H588.596C588.424 284.999 588.314 284.917 588.266 284.753L588.152 284.087C587.896 284.387 587.604 284.629 587.276 284.813C586.952 284.997 586.574 285.089 586.142 285.089C585.798 285.089 585.486 285.021 585.206 284.885C584.926 284.745 584.686 284.543 584.486 284.279C584.286 284.015 584.13 283.689 584.018 283.301C583.91 282.909 583.856 282.461 583.856 281.957C583.856 281.501 583.916 281.079 584.036 280.691C584.16 280.303 584.336 279.967 584.564 279.683C584.792 279.395 585.068 279.171 585.392 279.011C585.72 278.847 586.086 278.765 586.49 278.765C586.85 278.765 587.156 278.823 587.408 278.939C587.66 279.051 587.886 279.209 588.086 279.413V276.119H589.376ZM592.172 280.013C592.364 279.625 592.596 279.321 592.868 279.101C593.14 278.877 593.466 278.765 593.846 278.765C593.978 278.765 594.102 278.781 594.218 278.813C594.334 278.841 594.438 278.885 594.53 278.945L594.44 279.917C594.424 279.985 594.398 280.033 594.362 280.061C594.33 280.085 594.286 280.097 594.23 280.097C594.17 280.097 594.084 280.087 593.972 280.067C593.86 280.043 593.742 280.031 593.618 280.031C593.438 280.031 593.278 280.057 593.138 280.109C593.002 280.161 592.878 280.237 592.766 280.337C592.658 280.437 592.562 280.559 592.478 280.703C592.394 280.847 592.316 281.011 592.244 281.195V284.999H590.954V278.879H591.704C591.84 278.879 591.934 278.905 591.986 278.957C592.038 279.005 592.074 279.091 592.094 279.215L592.172 280.013ZM597.818 278.783C598.27 278.783 598.678 278.857 599.042 279.005C599.41 279.153 599.722 279.363 599.978 279.635C600.238 279.907 600.438 280.237 600.578 280.625C600.718 281.013 600.788 281.449 600.788 281.933C600.788 282.417 600.718 282.853 600.578 283.241C600.438 283.629 600.238 283.961 599.978 284.237C599.722 284.509 599.41 284.719 599.042 284.867C598.678 285.015 598.27 285.089 597.818 285.089C597.362 285.089 596.95 285.015 596.582 284.867C596.218 284.719 595.906 284.509 595.646 284.237C595.386 283.961 595.186 283.629 595.046 283.241C594.906 282.853 594.836 282.417 594.836 281.933C594.836 281.449 594.906 281.013 595.046 280.625C595.186 280.237 595.386 279.907 595.646 279.635C595.906 279.363 596.218 279.153 596.582 279.005C596.95 278.857 597.362 278.783 597.818 278.783ZM597.818 284.081C598.37 284.081 598.78 283.897 599.048 283.529C599.32 283.157 599.456 282.627 599.456 281.939C599.456 281.251 599.32 280.721 599.048 280.349C598.78 279.973 598.37 279.785 597.818 279.785C597.258 279.785 596.842 279.973 596.57 280.349C596.298 280.721 596.162 281.251 596.162 281.939C596.162 282.627 596.298 283.157 596.57 283.529C596.842 283.897 597.258 284.081 597.818 284.081Z" fill="white"/>
<path d="M546.111 258.364L548.643 267.31C548.883 268.159 550.024 268.304 550.469 267.542L552.567 263.945C552.654 263.796 552.778 263.672 552.927 263.585L556.524 261.487C557.286 261.043 557.141 259.901 556.292 259.661L547.345 257.129C546.593 256.916 545.898 257.611 546.111 258.364Z" fill="#9743DF"/>
<rect x="330.794" y="2" width="59" height="21" rx="10.5" fill="#FC9173"/>
<path d="M348.894 12.746V16.166C348.034 16.786 347.034 17.096 345.894 17.096C345.194 17.096 344.56 16.988 343.992 16.772C343.428 16.552 342.946 16.248 342.546 15.86C342.146 15.468 341.838 15.002 341.622 14.462C341.406 13.922 341.298 13.328 341.298 12.68C341.298 12.028 341.402 11.432 341.61 10.892C341.818 10.348 342.116 9.882 342.504 9.494C342.892 9.102 343.36 8.8 343.908 8.588C344.456 8.372 345.072 8.264 345.756 8.264C346.104 8.264 346.426 8.292 346.722 8.348C347.022 8.4 347.3 8.474 347.556 8.57C347.812 8.666 348.048 8.782 348.264 8.918C348.48 9.054 348.678 9.206 348.858 9.374L348.456 10.016C348.392 10.116 348.31 10.178 348.21 10.202C348.11 10.226 348.002 10.202 347.886 10.13C347.77 10.062 347.646 9.99 347.514 9.914C347.386 9.838 347.238 9.768 347.07 9.704C346.902 9.636 346.708 9.582 346.488 9.542C346.268 9.498 346.008 9.476 345.708 9.476C345.252 9.476 344.84 9.552 344.472 9.704C344.108 9.852 343.796 10.066 343.536 10.346C343.276 10.622 343.076 10.958 342.936 11.354C342.796 11.75 342.726 12.192 342.726 12.68C342.726 13.196 342.8 13.658 342.948 14.066C343.096 14.47 343.306 14.814 343.578 15.098C343.85 15.378 344.178 15.592 344.562 15.74C344.95 15.888 345.382 15.962 345.858 15.962C346.214 15.962 346.53 15.924 346.806 15.848C347.086 15.772 347.36 15.666 347.628 15.53V13.814H346.422C346.33 13.814 346.258 13.79 346.206 13.742C346.154 13.69 346.128 13.624 346.128 13.544V12.746H348.894ZM353.557 14.324C353.097 14.34 352.709 14.378 352.393 14.438C352.077 14.494 351.821 14.568 351.625 14.66C351.429 14.748 351.287 14.854 351.199 14.978C351.115 15.102 351.073 15.238 351.073 15.386C351.073 15.53 351.095 15.654 351.139 15.758C351.187 15.858 351.251 15.942 351.331 16.01C351.415 16.074 351.511 16.122 351.619 16.154C351.731 16.182 351.853 16.196 351.985 16.196C352.321 16.196 352.609 16.134 352.849 16.01C353.093 15.882 353.329 15.698 353.557 15.458V14.324ZM350.137 11.732C350.829 11.088 351.653 10.766 352.609 10.766C352.961 10.766 353.273 10.824 353.545 10.94C353.821 11.052 354.051 11.212 354.235 11.42C354.423 11.628 354.565 11.876 354.661 12.164C354.761 12.448 354.811 12.764 354.811 13.112V17H354.235C354.111 17 354.017 16.982 353.953 16.946C353.889 16.906 353.835 16.828 353.791 16.712L353.665 16.214C353.509 16.354 353.355 16.48 353.203 16.592C353.051 16.7 352.893 16.792 352.729 16.868C352.569 16.944 352.395 17 352.207 17.036C352.023 17.076 351.819 17.096 351.595 17.096C351.347 17.096 351.115 17.062 350.899 16.994C350.687 16.926 350.503 16.824 350.347 16.688C350.191 16.548 350.067 16.376 349.975 16.172C349.887 15.968 349.843 15.728 349.843 15.452C349.843 15.216 349.905 14.986 350.029 14.762C350.157 14.538 350.365 14.338 350.653 14.162C350.945 13.982 351.327 13.834 351.799 13.718C352.275 13.602 352.861 13.536 353.557 13.52V13.112C353.557 12.672 353.463 12.344 353.275 12.128C353.087 11.912 352.811 11.804 352.447 11.804C352.199 11.804 351.991 11.836 351.823 11.9C351.655 11.96 351.509 12.026 351.385 12.098C351.261 12.17 351.151 12.238 351.055 12.302C350.959 12.362 350.857 12.392 350.749 12.392C350.661 12.392 350.585 12.37 350.521 12.326C350.461 12.278 350.411 12.22 350.371 12.152L350.137 11.732ZM357.612 15.464C357.792 15.696 357.988 15.86 358.2 15.956C358.416 16.048 358.65 16.094 358.902 16.094C359.41 16.094 359.806 15.91 360.09 15.542C360.374 15.174 360.516 14.604 360.516 13.832C360.516 13.128 360.392 12.614 360.144 12.29C359.9 11.966 359.55 11.804 359.094 11.804C358.778 11.804 358.502 11.876 358.266 12.02C358.034 12.16 357.816 12.362 357.612 12.626V15.464ZM357.612 11.69C357.864 11.414 358.146 11.194 358.458 11.03C358.77 10.866 359.126 10.784 359.526 10.784C359.882 10.784 360.202 10.854 360.486 10.994C360.774 11.13 361.018 11.328 361.218 11.588C361.418 11.848 361.572 12.164 361.68 12.536C361.788 12.904 361.842 13.32 361.842 13.784C361.842 14.28 361.78 14.732 361.656 15.14C361.536 15.544 361.362 15.892 361.134 16.184C360.906 16.472 360.63 16.696 360.306 16.856C359.982 17.012 359.62 17.09 359.22 17.09C359.024 17.09 358.846 17.07 358.686 17.03C358.526 16.994 358.378 16.94 358.242 16.868C358.106 16.796 357.98 16.71 357.864 16.61C357.752 16.51 357.644 16.396 357.54 16.268L357.486 16.742C357.466 16.834 357.43 16.9 357.378 16.94C357.326 16.98 357.254 17 357.162 17H356.322V8.12H357.612V11.69ZM364.314 12.014C364.506 11.626 364.738 11.322 365.01 11.102C365.282 10.878 365.608 10.766 365.988 10.766C366.12 10.766 366.244 10.782 366.36 10.814C366.476 10.842 366.58 10.886 366.672 10.946L366.582 11.918C366.566 11.986 366.54 12.034 366.504 12.062C366.472 12.086 366.428 12.098 366.372 12.098C366.312 12.098 366.226 12.088 366.114 12.068C366.002 12.044 365.884 12.032 365.76 12.032C365.58 12.032 365.42 12.058 365.28 12.11C365.144 12.162 365.02 12.238 364.908 12.338C364.8 12.438 364.704 12.56 364.62 12.704C364.536 12.848 364.458 13.012 364.386 13.196V17H363.096V10.88H363.846C363.982 10.88 364.076 10.906 364.128 10.958C364.18 11.006 364.216 11.092 364.236 11.216L364.314 12.014ZM368.87 10.88V17H367.58V10.88H368.87ZM369.086 9.032C369.086 9.148 369.062 9.258 369.014 9.362C368.97 9.466 368.908 9.558 368.828 9.638C368.748 9.714 368.654 9.776 368.546 9.824C368.442 9.868 368.33 9.89 368.21 9.89C368.094 9.89 367.984 9.868 367.88 9.824C367.78 9.776 367.692 9.714 367.616 9.638C367.54 9.558 367.478 9.466 367.43 9.362C367.386 9.258 367.364 9.148 367.364 9.032C367.364 8.912 367.386 8.8 367.43 8.696C367.478 8.592 367.54 8.502 367.616 8.426C367.692 8.346 367.78 8.284 367.88 8.24C367.984 8.192 368.094 8.168 368.21 8.168C368.33 8.168 368.442 8.192 368.546 8.24C368.654 8.284 368.748 8.346 368.828 8.426C368.908 8.502 368.97 8.592 369.014 8.696C369.062 8.8 369.086 8.912 369.086 9.032ZM374.504 13.25C374.504 13.034 374.472 12.834 374.408 12.65C374.348 12.462 374.258 12.3 374.138 12.164C374.018 12.024 373.868 11.916 373.688 11.84C373.512 11.76 373.308 11.72 373.076 11.72C372.608 11.72 372.24 11.854 371.972 12.122C371.704 12.39 371.534 12.766 371.462 13.25H374.504ZM371.426 14.042C371.442 14.39 371.496 14.692 371.588 14.948C371.68 15.2 371.802 15.41 371.954 15.578C372.11 15.746 372.294 15.872 372.506 15.956C372.722 16.036 372.962 16.076 373.226 16.076C373.478 16.076 373.696 16.048 373.88 15.992C374.064 15.932 374.224 15.868 374.36 15.8C374.496 15.728 374.612 15.664 374.708 15.608C374.804 15.548 374.892 15.518 374.972 15.518C375.076 15.518 375.156 15.558 375.212 15.638L375.578 16.112C375.426 16.292 375.254 16.444 375.062 16.568C374.87 16.692 374.666 16.794 374.45 16.874C374.234 16.95 374.012 17.004 373.784 17.036C373.556 17.072 373.334 17.09 373.118 17.09C372.694 17.09 372.3 17.02 371.936 16.88C371.576 16.736 371.262 16.526 370.994 16.25C370.73 15.974 370.522 15.632 370.37 15.224C370.222 14.816 370.148 14.346 370.148 13.814C370.148 13.39 370.214 12.994 370.346 12.626C370.482 12.258 370.674 11.938 370.922 11.666C371.174 11.394 371.478 11.18 371.834 11.024C372.194 10.864 372.6 10.784 373.052 10.784C373.428 10.784 373.776 10.846 374.096 10.97C374.416 11.09 374.692 11.268 374.924 11.504C375.156 11.74 375.336 12.03 375.464 12.374C375.596 12.714 375.662 13.102 375.662 13.538C375.662 13.738 375.64 13.872 375.596 13.94C375.552 14.008 375.472 14.042 375.356 14.042H371.426ZM378.179 8.12V17H376.889V8.12H378.179Z" fill="white"/>
<path d="M317.541 31.9742L326.792 31.0342C327.669 30.945 328.01 29.8461 327.337 29.2761L324.159 26.5853C324.027 26.4738 323.927 26.3302 323.867 26.1684L322.425 22.2619C322.12 21.4344 320.971 21.3788 320.587 22.1728L316.54 30.5441C316.199 31.2484 316.763 32.0533 317.541 31.9742Z" fill="#FC9173"/>
<rect y="143" width="70" height="21" rx="10.5" fill="#9743DF"/>
<path d="M18.1 153.746V157.166C17.24 157.786 16.24 158.096 15.1 158.096C14.4 158.096 13.766 157.988 13.198 157.772C12.634 157.552 12.152 157.248 11.752 156.86C11.352 156.468 11.044 156.002 10.828 155.462C10.612 154.922 10.504 154.328 10.504 153.68C10.504 153.028 10.608 152.432 10.816 151.892C11.024 151.348 11.322 150.882 11.71 150.494C12.098 150.102 12.566 149.8 13.114 149.588C13.662 149.372 14.278 149.264 14.962 149.264C15.31 149.264 15.632 149.292 15.928 149.348C16.228 149.4 16.506 149.474 16.762 149.57C17.018 149.666 17.254 149.782 17.47 149.918C17.686 150.054 17.884 150.206 18.064 150.374L17.662 151.016C17.598 151.116 17.516 151.178 17.416 151.202C17.316 151.226 17.208 151.202 17.092 151.13C16.976 151.062 16.852 150.99 16.72 150.914C16.592 150.838 16.444 150.768 16.276 150.704C16.108 150.636 15.914 150.582 15.694 150.542C15.474 150.498 15.214 150.476 14.914 150.476C14.458 150.476 14.046 150.552 13.678 150.704C13.314 150.852 13.002 151.066 12.742 151.346C12.482 151.622 12.282 151.958 12.142 152.354C12.002 152.75 11.932 153.192 11.932 153.68C11.932 154.196 12.006 154.658 12.154 155.066C12.302 155.47 12.512 155.814 12.784 156.098C13.056 156.378 13.384 156.592 13.768 156.74C14.156 156.888 14.588 156.962 15.064 156.962C15.42 156.962 15.736 156.924 16.012 156.848C16.292 156.772 16.566 156.666 16.834 156.53V154.814H15.628C15.536 154.814 15.464 154.79 15.412 154.742C15.36 154.69 15.334 154.624 15.334 154.544V153.746H18.1ZM20.8253 151.88V158H19.5353V151.88H20.8253ZM21.0413 150.032C21.0413 150.148 21.0173 150.258 20.9693 150.362C20.9253 150.466 20.8633 150.558 20.7833 150.638C20.7033 150.714 20.6093 150.776 20.5013 150.824C20.3973 150.868 20.2853 150.89 20.1653 150.89C20.0493 150.89 19.9393 150.868 19.8353 150.824C19.7353 150.776 19.6473 150.714 19.5713 150.638C19.4953 150.558 19.4333 150.466 19.3853 150.362C19.3413 150.258 19.3193 150.148 19.3193 150.032C19.3193 149.912 19.3413 149.8 19.3853 149.696C19.4333 149.592 19.4953 149.502 19.5713 149.426C19.6473 149.346 19.7353 149.284 19.8353 149.24C19.9393 149.192 20.0493 149.168 20.1653 149.168C20.2853 149.168 20.3973 149.192 20.5013 149.24C20.6093 149.284 20.7033 149.346 20.7833 149.426C20.8633 149.502 20.9253 149.592 20.9693 149.696C21.0173 149.8 21.0413 149.912 21.0413 150.032ZM25.0922 151.784C25.5442 151.784 25.9522 151.858 26.3162 152.006C26.6842 152.154 26.9962 152.364 27.2522 152.636C27.5122 152.908 27.7122 153.238 27.8522 153.626C27.9922 154.014 28.0622 154.45 28.0622 154.934C28.0622 155.418 27.9922 155.854 27.8522 156.242C27.7122 156.63 27.5122 156.962 27.2522 157.238C26.9962 157.51 26.6842 157.72 26.3162 157.868C25.9522 158.016 25.5442 158.09 25.0922 158.09C24.6362 158.09 24.2242 158.016 23.8562 157.868C23.4922 157.72 23.1802 157.51 22.9202 157.238C22.6602 156.962 22.4602 156.63 22.3202 156.242C22.1802 155.854 22.1102 155.418 22.1102 154.934C22.1102 154.45 22.1802 154.014 22.3202 153.626C22.4602 153.238 22.6602 152.908 22.9202 152.636C23.1802 152.364 23.4922 152.154 23.8562 152.006C24.2242 151.858 24.6362 151.784 25.0922 151.784ZM25.0922 157.082C25.6442 157.082 26.0542 156.898 26.3222 156.53C26.5942 156.158 26.7302 155.628 26.7302 154.94C26.7302 154.252 26.5942 153.722 26.3222 153.35C26.0542 152.974 25.6442 152.786 25.0922 152.786C24.5322 152.786 24.1162 152.974 23.8442 153.35C23.5722 153.722 23.4362 154.252 23.4362 154.94C23.4362 155.628 23.5722 156.158 23.8442 156.53C24.1162 156.898 24.5322 157.082 25.0922 157.082ZM34.5138 151.88L32.0538 158H30.8898L28.4298 151.88H29.4918C29.5918 151.88 29.6738 151.906 29.7378 151.958C29.8058 152.006 29.8498 152.064 29.8698 152.132L31.2258 155.696C31.2818 155.864 31.3318 156.03 31.3758 156.194C31.4198 156.358 31.4578 156.524 31.4898 156.692C31.5218 156.524 31.5598 156.36 31.6038 156.2C31.6518 156.036 31.7038 155.868 31.7598 155.696L33.1398 152.132C33.1638 152.06 33.2078 152 33.2718 151.952C33.3358 151.904 33.4138 151.88 33.5058 151.88H34.5138ZM38.5248 155.324C38.0648 155.34 37.6768 155.378 37.3608 155.438C37.0448 155.494 36.7888 155.568 36.5928 155.66C36.3968 155.748 36.2548 155.854 36.1668 155.978C36.0828 156.102 36.0408 156.238 36.0408 156.386C36.0408 156.53 36.0628 156.654 36.1068 156.758C36.1548 156.858 36.2188 156.942 36.2988 157.01C36.3828 157.074 36.4788 157.122 36.5868 157.154C36.6988 157.182 36.8208 157.196 36.9528 157.196C37.2888 157.196 37.5768 157.134 37.8168 157.01C38.0608 156.882 38.2968 156.698 38.5248 156.458V155.324ZM35.1048 152.732C35.7968 152.088 36.6208 151.766 37.5768 151.766C37.9288 151.766 38.2408 151.824 38.5128 151.94C38.7888 152.052 39.0188 152.212 39.2028 152.42C39.3908 152.628 39.5328 152.876 39.6288 153.164C39.7288 153.448 39.7788 153.764 39.7788 154.112V158H39.2028C39.0788 158 38.9848 157.982 38.9208 157.946C38.8568 157.906 38.8028 157.828 38.7588 157.712L38.6328 157.214C38.4768 157.354 38.3228 157.48 38.1708 157.592C38.0188 157.7 37.8608 157.792 37.6968 157.868C37.5368 157.944 37.3628 158 37.1748 158.036C36.9908 158.076 36.7868 158.096 36.5628 158.096C36.3148 158.096 36.0828 158.062 35.8668 157.994C35.6548 157.926 35.4708 157.824 35.3148 157.688C35.1588 157.548 35.0348 157.376 34.9428 157.172C34.8548 156.968 34.8108 156.728 34.8108 156.452C34.8108 156.216 34.8728 155.986 34.9968 155.762C35.1248 155.538 35.3328 155.338 35.6208 155.162C35.9128 154.982 36.2948 154.834 36.7668 154.718C37.2428 154.602 37.8288 154.536 38.5248 154.52V154.112C38.5248 153.672 38.4308 153.344 38.2428 153.128C38.0548 152.912 37.7788 152.804 37.4148 152.804C37.1668 152.804 36.9588 152.836 36.7908 152.9C36.6228 152.96 36.4768 153.026 36.3528 153.098C36.2288 153.17 36.1188 153.238 36.0228 153.302C35.9268 153.362 35.8248 153.392 35.7168 153.392C35.6288 153.392 35.5528 153.37 35.4888 153.326C35.4288 153.278 35.3788 153.22 35.3388 153.152L35.1048 152.732ZM42.4959 152.69C42.6279 152.554 42.7639 152.432 42.9039 152.324C43.0479 152.212 43.1999 152.116 43.3599 152.036C43.5199 151.956 43.6899 151.894 43.8699 151.85C44.0499 151.806 44.2459 151.784 44.4579 151.784C44.7939 151.784 45.0879 151.84 45.3399 151.952C45.5959 152.064 45.8099 152.222 45.9819 152.426C46.1579 152.63 46.2899 152.876 46.3779 153.164C46.4659 153.448 46.5099 153.762 46.5099 154.106V158H45.2259V154.106C45.2259 153.694 45.1299 153.374 44.9379 153.146C44.7499 152.918 44.4619 152.804 44.0739 152.804C43.7859 152.804 43.5179 152.87 43.2699 153.002C43.0259 153.134 42.7959 153.314 42.5799 153.542V158H41.2899V151.88H42.0699C42.2459 151.88 42.3579 151.962 42.4059 152.126L42.4959 152.69ZM49.2225 152.69C49.3545 152.554 49.4905 152.432 49.6305 152.324C49.7745 152.212 49.9265 152.116 50.0865 152.036C50.2465 151.956 50.4165 151.894 50.5965 151.85C50.7765 151.806 50.9725 151.784 51.1845 151.784C51.5205 151.784 51.8145 151.84 52.0665 151.952C52.3225 152.064 52.5365 152.222 52.7085 152.426C52.8845 152.63 53.0165 152.876 53.1045 153.164C53.1925 153.448 53.2365 153.762 53.2365 154.106V158H51.9525V154.106C51.9525 153.694 51.8565 153.374 51.6645 153.146C51.4765 152.918 51.1885 152.804 50.8005 152.804C50.5125 152.804 50.2445 152.87 49.9965 153.002C49.7525 153.134 49.5225 153.314 49.3065 153.542V158H48.0165V151.88H48.7965C48.9725 151.88 49.0845 151.962 49.1325 152.126L49.2225 152.69ZM58.013 155.324C57.553 155.34 57.165 155.378 56.849 155.438C56.533 155.494 56.277 155.568 56.081 155.66C55.885 155.748 55.743 155.854 55.655 155.978C55.571 156.102 55.529 156.238 55.529 156.386C55.529 156.53 55.551 156.654 55.595 156.758C55.643 156.858 55.707 156.942 55.787 157.01C55.871 157.074 55.967 157.122 56.075 157.154C56.187 157.182 56.309 157.196 56.441 157.196C56.777 157.196 57.065 157.134 57.305 157.01C57.549 156.882 57.785 156.698 58.013 156.458V155.324ZM54.593 152.732C55.285 152.088 56.109 151.766 57.065 151.766C57.417 151.766 57.729 151.824 58.001 151.94C58.277 152.052 58.507 152.212 58.691 152.42C58.879 152.628 59.021 152.876 59.117 153.164C59.217 153.448 59.267 153.764 59.267 154.112V158H58.691C58.567 158 58.473 157.982 58.409 157.946C58.345 157.906 58.291 157.828 58.247 157.712L58.121 157.214C57.965 157.354 57.811 157.48 57.659 157.592C57.507 157.7 57.349 157.792 57.185 157.868C57.025 157.944 56.851 158 56.663 158.036C56.479 158.076 56.275 158.096 56.051 158.096C55.803 158.096 55.571 158.062 55.355 157.994C55.143 157.926 54.959 157.824 54.803 157.688C54.647 157.548 54.523 157.376 54.431 157.172C54.343 156.968 54.299 156.728 54.299 156.452C54.299 156.216 54.361 155.986 54.485 155.762C54.613 155.538 54.821 155.338 55.109 155.162C55.401 154.982 55.783 154.834 56.255 154.718C56.731 154.602 57.317 154.536 58.013 154.52V154.112C58.013 153.672 57.919 153.344 57.731 153.128C57.543 152.912 57.267 152.804 56.903 152.804C56.655 152.804 56.447 152.836 56.279 152.9C56.111 152.96 55.965 153.026 55.841 153.098C55.717 153.17 55.607 153.238 55.511 153.302C55.415 153.362 55.313 153.392 55.205 153.392C55.117 153.392 55.041 153.37 54.977 153.326C54.917 153.278 54.867 153.22 54.827 153.152L54.593 152.732Z" fill="white"/>
<path d="M83.2502 130.161L74.2713 132.577C73.4196 132.806 73.2601 133.946 74.0162 134.4L77.5856 136.544C77.7334 136.633 77.8558 136.759 77.9408 136.909L79.9923 140.532C80.4268 141.3 81.5699 141.17 81.8211 140.324L84.4686 131.411C84.6914 130.661 84.0056 129.957 83.2502 130.161Z" fill="#9743DF"/>
</svg>
