<svg width="539" height="547" viewBox="0 0 539 547" fill="none" xmlns="http://www.w3.org/2000/svg">
<path d="M269.5 546.208C417.789 546.208 538 424.215 538 273.728C538 123.242 417.789 1.24854 269.5 1.24854C121.211 1.24854 1 123.242 1 273.728C1 424.215 121.211 546.208 269.5 546.208Z" stroke="#242424" stroke-dasharray="6 6"/>
<path d="M182.1 324.868C259.94 324.868 323.043 260.83 323.043 181.836C323.043 102.842 259.94 38.8044 182.1 38.8044C104.259 38.8044 41.1572 102.842 41.1572 181.836C41.1572 260.83 104.259 324.868 182.1 324.868Z" stroke="#3F3F3F"/>
<path d="M182.1 510.25C259.94 510.25 323.043 446.212 323.043 367.218C323.043 288.223 259.94 224.187 182.1 224.187C104.259 224.187 41.1572 288.223 41.1572 367.218C41.1572 446.212 104.259 510.25 182.1 510.25Z" stroke="#3F3F3F"/>
<path d="M355.325 324.868C433.165 324.868 496.268 260.83 496.268 181.836C496.268 102.842 433.165 38.8044 355.325 38.8044C277.486 38.8044 214.383 102.842 214.383 181.836C214.383 260.83 277.486 324.868 355.325 324.868Z" stroke="#3F3F3F"/>
<path d="M355.325 510.25C433.165 510.25 496.268 446.212 496.268 367.218C496.268 288.223 433.165 224.187 355.325 224.187C277.486 224.187 214.383 288.223 214.383 367.218C214.383 446.212 277.486 510.25 355.325 510.25Z" stroke="#3F3F3F"/>
<path d="M343.198 377L348.004 363.59H350.092L354.898 377H353.008L351.91 373.85H346.186L345.088 377H343.198ZM346.744 372.23H351.352L348.796 364.868H349.3L346.744 372.23ZM356.39 380.6V367.298H358.028V369.386L357.812 368.972C358.172 368.396 358.664 367.94 359.288 367.604C359.912 367.256 360.626 367.082 361.43 367.082C362.342 367.082 363.158 367.304 363.878 367.748C364.61 368.192 365.186 368.798 365.606 369.566C366.026 370.322 366.236 371.186 366.236 372.158C366.236 373.106 366.026 373.964 365.606 374.732C365.186 375.5 364.61 376.106 363.878 376.55C363.158 376.994 362.336 377.216 361.412 377.216C360.632 377.216 359.918 377.042 359.27 376.694C358.634 376.346 358.142 375.854 357.794 375.218L358.064 374.93V380.6H356.39ZM361.286 375.596C361.898 375.596 362.444 375.446 362.924 375.146C363.404 374.846 363.776 374.438 364.04 373.922C364.316 373.394 364.454 372.806 364.454 372.158C364.454 371.486 364.316 370.898 364.04 370.394C363.776 369.878 363.404 369.47 362.924 369.17C362.444 368.858 361.898 368.702 361.286 368.702C360.674 368.702 360.122 368.852 359.63 369.152C359.15 369.452 358.766 369.866 358.478 370.394C358.202 370.91 358.064 371.498 358.064 372.158C358.064 372.806 358.202 373.394 358.478 373.922C358.766 374.438 359.15 374.846 359.63 375.146C360.122 375.446 360.674 375.596 361.286 375.596ZM368.431 377V367.298H370.069V369.08L369.889 368.828C370.117 368.276 370.465 367.868 370.933 367.604C371.401 367.328 371.971 367.19 372.643 367.19H373.237V368.774H372.391C371.707 368.774 371.155 368.99 370.735 369.422C370.315 369.842 370.105 370.442 370.105 371.222V377H368.431ZM379.188 377.216C378.252 377.216 377.418 376.994 376.686 376.55C375.954 376.106 375.378 375.5 374.958 374.732C374.538 373.952 374.328 373.082 374.328 372.122C374.328 371.15 374.532 370.286 374.94 369.53C375.36 368.774 375.924 368.18 376.632 367.748C377.352 367.304 378.156 367.082 379.044 367.082C379.764 367.082 380.4 367.214 380.952 367.478C381.516 367.73 381.99 368.078 382.374 368.522C382.77 368.954 383.07 369.452 383.274 370.016C383.49 370.568 383.598 371.144 383.598 371.744C383.598 371.876 383.586 372.026 383.562 372.194C383.55 372.35 383.532 372.5 383.508 372.644H375.552V371.204H382.536L381.744 371.852C381.852 371.228 381.792 370.67 381.564 370.178C381.336 369.686 381 369.296 380.556 369.008C380.112 368.72 379.608 368.576 379.044 368.576C378.48 368.576 377.964 368.72 377.496 369.008C377.028 369.296 376.662 369.71 376.398 370.25C376.146 370.778 376.044 371.408 376.092 372.14C376.044 372.848 376.152 373.472 376.416 374.012C376.692 374.54 377.076 374.954 377.568 375.254C378.072 375.542 378.618 375.686 379.206 375.686C379.854 375.686 380.4 375.536 380.844 375.236C381.288 374.936 381.648 374.552 381.924 374.084L383.328 374.804C383.136 375.248 382.836 375.656 382.428 376.028C382.032 376.388 381.558 376.676 381.006 376.892C380.466 377.108 379.86 377.216 379.188 377.216ZM385.78 377V367.298H387.418V369.188L387.148 369.026C387.388 368.414 387.772 367.94 388.3 367.604C388.84 367.256 389.47 367.082 390.19 367.082C390.886 367.082 391.504 367.238 392.044 367.55C392.596 367.862 393.028 368.294 393.34 368.846C393.664 369.398 393.826 370.022 393.826 370.718V377H392.134V371.258C392.134 370.718 392.038 370.262 391.846 369.89C391.654 369.518 391.378 369.23 391.018 369.026C390.67 368.81 390.268 368.702 389.812 368.702C389.356 368.702 388.948 368.81 388.588 369.026C388.24 369.23 387.964 369.524 387.76 369.908C387.556 370.28 387.454 370.73 387.454 371.258V377H385.78ZM400.632 377.216C399.72 377.216 398.898 376.994 398.166 376.55C397.446 376.106 396.876 375.5 396.456 374.732C396.036 373.964 395.826 373.106 395.826 372.158C395.826 371.186 396.036 370.322 396.456 369.566C396.876 368.798 397.446 368.192 398.166 367.748C398.898 367.304 399.72 367.082 400.632 367.082C401.436 367.082 402.15 367.256 402.774 367.604C403.398 367.94 403.89 368.396 404.25 368.972L403.98 369.386V363.374H405.672V377H404.034V374.93L404.25 375.218C403.914 375.854 403.422 376.346 402.774 376.694C402.138 377.042 401.424 377.216 400.632 377.216ZM400.776 375.596C401.388 375.596 401.934 375.446 402.414 375.146C402.894 374.846 403.272 374.438 403.548 373.922C403.836 373.394 403.98 372.806 403.98 372.158C403.98 371.498 403.836 370.91 403.548 370.394C403.272 369.866 402.894 369.452 402.414 369.152C401.934 368.852 401.388 368.702 400.776 368.702C400.176 368.702 399.63 368.858 399.138 369.17C398.658 369.47 398.28 369.878 398.004 370.394C397.728 370.898 397.59 371.486 397.59 372.158C397.59 372.806 397.728 373.394 398.004 373.922C398.28 374.438 398.658 374.846 399.138 375.146C399.618 375.446 400.164 375.596 400.776 375.596ZM408.263 377V367.298H409.937V377H408.263ZM408.263 365.75V363.59H409.937V365.75H408.263ZM411.58 377V375.578L417.358 368.288L417.646 368.9H411.868V367.298H419.14V368.72L413.416 376.028L413.128 375.398H419.176V377H411.58ZM423.658 377.216C423.022 377.216 422.458 377.102 421.966 376.874C421.486 376.634 421.108 376.31 420.832 375.902C420.556 375.482 420.418 375.002 420.418 374.462C420.418 373.946 420.526 373.484 420.742 373.076C420.97 372.656 421.318 372.302 421.786 372.014C422.266 371.726 422.866 371.522 423.586 371.402L427.186 370.808V372.212L423.964 372.752C423.34 372.86 422.884 373.058 422.596 373.346C422.32 373.634 422.182 373.988 422.182 374.408C422.182 374.804 422.338 375.134 422.65 375.398C422.974 375.662 423.376 375.794 423.856 375.794C424.468 375.794 424.996 375.668 425.44 375.416C425.896 375.152 426.25 374.798 426.502 374.354C426.766 373.91 426.898 373.418 426.898 372.878V370.412C426.898 369.884 426.7 369.458 426.304 369.134C425.92 368.798 425.41 368.63 424.774 368.63C424.222 368.63 423.73 368.774 423.298 369.062C422.878 369.338 422.566 369.71 422.362 370.178L420.904 369.422C421.084 368.978 421.372 368.582 421.768 368.234C422.164 367.874 422.626 367.592 423.154 367.388C423.682 367.184 424.234 367.082 424.81 367.082C425.554 367.082 426.208 367.226 426.772 367.514C427.336 367.79 427.774 368.18 428.086 368.684C428.41 369.176 428.572 369.752 428.572 370.412V377H426.934V375.164L427.24 375.272C427.036 375.656 426.76 375.992 426.412 376.28C426.064 376.568 425.656 376.796 425.188 376.964C424.72 377.132 424.21 377.216 423.658 377.216ZM435.577 377.216C434.665 377.216 433.843 376.994 433.111 376.55C432.391 376.106 431.821 375.5 431.401 374.732C430.981 373.964 430.771 373.106 430.771 372.158C430.771 371.186 430.981 370.322 431.401 369.566C431.821 368.798 432.391 368.192 433.111 367.748C433.843 367.304 434.665 367.082 435.577 367.082C436.381 367.082 437.095 367.256 437.719 367.604C438.343 367.94 438.835 368.396 439.195 368.972L438.925 369.386V363.374H440.617V377H438.979V374.93L439.195 375.218C438.859 375.854 438.367 376.346 437.719 376.694C437.083 377.042 436.369 377.216 435.577 377.216ZM435.721 375.596C436.333 375.596 436.879 375.446 437.359 375.146C437.839 374.846 438.217 374.438 438.493 373.922C438.781 373.394 438.925 372.806 438.925 372.158C438.925 371.498 438.781 370.91 438.493 370.394C438.217 369.866 437.839 369.452 437.359 369.152C436.879 368.852 436.333 368.702 435.721 368.702C435.121 368.702 434.575 368.858 434.083 369.17C433.603 369.47 433.225 369.878 432.949 370.394C432.673 370.898 432.535 371.486 432.535 372.158C432.535 372.806 432.673 373.394 432.949 373.922C433.225 374.438 433.603 374.846 434.083 375.146C434.563 375.446 435.109 375.596 435.721 375.596ZM447.816 377.216C446.88 377.216 446.034 377 445.278 376.568C444.522 376.124 443.922 375.518 443.478 374.75C443.034 373.982 442.812 373.112 442.812 372.14C442.812 371.168 443.028 370.304 443.46 369.548C443.904 368.792 444.504 368.192 445.26 367.748C446.016 367.304 446.868 367.082 447.816 367.082C448.752 367.082 449.598 367.304 450.354 367.748C451.11 368.18 451.704 368.774 452.136 369.53C452.58 370.286 452.802 371.156 452.802 372.14C452.802 373.124 452.574 374 452.118 374.768C451.662 375.524 451.056 376.124 450.3 376.568C449.556 377 448.728 377.216 447.816 377.216ZM447.816 375.596C448.416 375.596 448.956 375.446 449.436 375.146C449.928 374.846 450.312 374.432 450.588 373.904C450.876 373.376 451.02 372.788 451.02 372.14C451.02 371.48 450.876 370.898 450.588 370.394C450.312 369.878 449.928 369.47 449.436 369.17C448.956 368.858 448.416 368.702 447.816 368.702C447.204 368.702 446.652 368.858 446.16 369.17C445.68 369.47 445.296 369.878 445.008 370.394C444.72 370.898 444.576 371.48 444.576 372.14C444.576 372.788 444.72 373.376 445.008 373.904C445.296 374.432 445.68 374.846 446.16 375.146C446.652 375.446 447.204 375.596 447.816 375.596Z" fill="#F8F8F8"/>
<path d="M91.494 191V177.59H96.228C97.116 177.59 97.896 177.758 98.568 178.094C99.24 178.43 99.762 178.91 100.134 179.534C100.518 180.158 100.71 180.89 100.71 181.73C100.71 182.57 100.518 183.302 100.134 183.926C99.762 184.538 99.24 185.018 98.568 185.366C97.908 185.702 97.128 185.87 96.228 185.87H93.258V191H91.494ZM93.258 184.25H96.282C96.822 184.25 97.29 184.148 97.686 183.944C98.082 183.74 98.388 183.446 98.604 183.062C98.82 182.678 98.928 182.234 98.928 181.73C98.928 181.214 98.82 180.77 98.604 180.398C98.388 180.014 98.082 179.72 97.686 179.516C97.29 179.312 96.822 179.21 96.282 179.21H93.258V184.25ZM105.074 191.216C104.438 191.216 103.874 191.102 103.382 190.874C102.902 190.634 102.524 190.31 102.248 189.902C101.972 189.482 101.834 189.002 101.834 188.462C101.834 187.946 101.942 187.484 102.158 187.076C102.386 186.656 102.734 186.302 103.202 186.014C103.682 185.726 104.282 185.522 105.002 185.402L108.602 184.808V186.212L105.38 186.752C104.756 186.86 104.3 187.058 104.012 187.346C103.736 187.634 103.598 187.988 103.598 188.408C103.598 188.804 103.754 189.134 104.066 189.398C104.39 189.662 104.792 189.794 105.272 189.794C105.884 189.794 106.412 189.668 106.856 189.416C107.312 189.152 107.666 188.798 107.918 188.354C108.182 187.91 108.314 187.418 108.314 186.878V184.412C108.314 183.884 108.116 183.458 107.72 183.134C107.336 182.798 106.826 182.63 106.19 182.63C105.638 182.63 105.146 182.774 104.714 183.062C104.294 183.338 103.982 183.71 103.778 184.178L102.32 183.422C102.5 182.978 102.788 182.582 103.184 182.234C103.58 181.874 104.042 181.592 104.57 181.388C105.098 181.184 105.65 181.082 106.226 181.082C106.97 181.082 107.624 181.226 108.188 181.514C108.752 181.79 109.19 182.18 109.502 182.684C109.826 183.176 109.988 183.752 109.988 184.412V191H108.35V189.164L108.656 189.272C108.452 189.656 108.176 189.992 107.828 190.28C107.48 190.568 107.072 190.796 106.604 190.964C106.136 191.132 105.626 191.216 105.074 191.216ZM112.583 191V181.298H114.257V191H112.583ZM112.583 179.75V177.59H114.257V179.75H112.583ZM115.757 191L119.159 186.14L115.775 181.298H117.791L120.689 185.51H119.663L122.525 181.298H124.559L121.175 186.14L124.541 191H122.525L119.663 186.788H120.671L117.809 191H115.757ZM128.716 191.216C128.08 191.216 127.516 191.102 127.024 190.874C126.544 190.634 126.166 190.31 125.89 189.902C125.614 189.482 125.476 189.002 125.476 188.462C125.476 187.946 125.584 187.484 125.8 187.076C126.028 186.656 126.376 186.302 126.844 186.014C127.324 185.726 127.924 185.522 128.644 185.402L132.244 184.808V186.212L129.022 186.752C128.398 186.86 127.942 187.058 127.654 187.346C127.378 187.634 127.24 187.988 127.24 188.408C127.24 188.804 127.396 189.134 127.708 189.398C128.032 189.662 128.434 189.794 128.914 189.794C129.526 189.794 130.054 189.668 130.498 189.416C130.954 189.152 131.308 188.798 131.56 188.354C131.824 187.91 131.956 187.418 131.956 186.878V184.412C131.956 183.884 131.758 183.458 131.362 183.134C130.978 182.798 130.468 182.63 129.832 182.63C129.28 182.63 128.788 182.774 128.356 183.062C127.936 183.338 127.624 183.71 127.42 184.178L125.962 183.422C126.142 182.978 126.43 182.582 126.826 182.234C127.222 181.874 127.684 181.592 128.212 181.388C128.74 181.184 129.292 181.082 129.868 181.082C130.612 181.082 131.266 181.226 131.83 181.514C132.394 181.79 132.832 182.18 133.144 182.684C133.468 183.176 133.63 183.752 133.63 184.412V191H131.992V189.164L132.298 189.272C132.094 189.656 131.818 189.992 131.47 190.28C131.122 190.568 130.714 190.796 130.246 190.964C129.778 191.132 129.268 191.216 128.716 191.216ZM131.02 179.48C130.696 179.48 130.432 179.426 130.228 179.318C130.036 179.21 129.868 179.084 129.724 178.94C129.58 178.796 129.436 178.67 129.292 178.562C129.148 178.454 128.974 178.4 128.77 178.4C128.578 178.4 128.422 178.478 128.302 178.634C128.194 178.778 128.14 179.036 128.14 179.408H126.79C126.79 178.604 126.964 178.004 127.312 177.608C127.672 177.2 128.134 176.996 128.698 176.996C129.022 176.996 129.286 177.05 129.49 177.158C129.694 177.266 129.868 177.392 130.012 177.536C130.156 177.68 130.294 177.806 130.426 177.914C130.57 178.022 130.744 178.076 130.948 178.076C131.164 178.076 131.332 177.992 131.452 177.824C131.572 177.644 131.632 177.392 131.632 177.068H132.964C132.964 177.812 132.784 178.4 132.424 178.832C132.064 179.264 131.596 179.48 131.02 179.48ZM140.834 191.216C139.898 191.216 139.052 191 138.296 190.568C137.54 190.124 136.94 189.518 136.496 188.75C136.052 187.982 135.83 187.112 135.83 186.14C135.83 185.168 136.046 184.304 136.478 183.548C136.922 182.792 137.522 182.192 138.278 181.748C139.034 181.304 139.886 181.082 140.834 181.082C141.77 181.082 142.616 181.304 143.372 181.748C144.128 182.18 144.722 182.774 145.154 183.53C145.598 184.286 145.82 185.156 145.82 186.14C145.82 187.124 145.592 188 145.136 188.768C144.68 189.524 144.074 190.124 143.318 190.568C142.574 191 141.746 191.216 140.834 191.216ZM140.834 189.596C141.434 189.596 141.974 189.446 142.454 189.146C142.946 188.846 143.33 188.432 143.606 187.904C143.894 187.376 144.038 186.788 144.038 186.14C144.038 185.48 143.894 184.898 143.606 184.394C143.33 183.878 142.946 183.47 142.454 183.17C141.974 182.858 141.434 182.702 140.834 182.702C140.222 182.702 139.67 182.858 139.178 183.17C138.698 183.47 138.314 183.878 138.026 184.394C137.738 184.898 137.594 185.48 137.594 186.14C137.594 186.788 137.738 187.376 138.026 187.904C138.314 188.432 138.698 188.846 139.178 189.146C139.67 189.446 140.222 189.596 140.834 189.596Z" fill="#F8F8F8"/>
<path d="M342.102 191.216C341.25 191.216 340.47 191.06 339.762 190.748C339.054 190.424 338.454 189.986 337.962 189.434C337.47 188.882 337.116 188.264 336.9 187.58L338.43 186.95C338.754 187.814 339.234 188.48 339.87 188.948C340.518 189.404 341.274 189.632 342.138 189.632C342.666 189.632 343.128 189.548 343.524 189.38C343.92 189.212 344.226 188.978 344.442 188.678C344.67 188.366 344.784 188.006 344.784 187.598C344.784 187.034 344.622 186.59 344.298 186.266C343.986 185.93 343.524 185.678 342.912 185.51L340.446 184.754C339.474 184.454 338.73 183.98 338.214 183.332C337.698 182.684 337.44 181.94 337.44 181.1C337.44 180.368 337.614 179.726 337.962 179.174C338.322 178.61 338.814 178.172 339.438 177.86C340.074 177.536 340.794 177.374 341.598 177.374C342.402 177.374 343.128 177.518 343.776 177.806C344.436 178.094 344.994 178.484 345.45 178.976C345.906 179.456 346.242 180.008 346.458 180.632L344.946 181.262C344.658 180.506 344.226 179.936 343.65 179.552C343.074 179.156 342.396 178.958 341.616 178.958C341.136 178.958 340.71 179.042 340.338 179.21C339.978 179.366 339.696 179.6 339.492 179.912C339.3 180.212 339.204 180.572 339.204 180.992C339.204 181.484 339.36 181.922 339.672 182.306C339.984 182.69 340.458 182.984 341.094 183.188L343.344 183.854C344.4 184.178 345.198 184.64 345.738 185.24C346.278 185.84 346.548 186.584 346.548 187.472C346.548 188.204 346.356 188.852 345.972 189.416C345.6 189.98 345.078 190.424 344.406 190.748C343.746 191.06 342.978 191.216 342.102 191.216ZM348.933 191V181.298H350.607V191H348.933ZM348.933 179.75V177.59H350.607V179.75H348.933ZM353.204 191V181.298H354.842V183.188L354.572 183.026C354.812 182.414 355.196 181.94 355.724 181.604C356.264 181.256 356.894 181.082 357.614 181.082C358.31 181.082 358.928 181.238 359.468 181.55C360.02 181.862 360.452 182.294 360.764 182.846C361.088 183.398 361.25 184.022 361.25 184.718V191H359.558V185.258C359.558 184.718 359.462 184.262 359.27 183.89C359.078 183.518 358.802 183.23 358.442 183.026C358.094 182.81 357.692 182.702 357.236 182.702C356.78 182.702 356.372 182.81 356.012 183.026C355.664 183.23 355.388 183.524 355.184 183.908C354.98 184.28 354.878 184.73 354.878 185.258V191H353.204ZM368.272 194.96C367.588 194.96 366.952 194.852 366.364 194.636C365.788 194.42 365.29 194.12 364.87 193.736C364.462 193.364 364.15 192.926 363.934 192.422L365.5 191.702C365.668 192.158 365.986 192.542 366.454 192.854C366.934 193.178 367.534 193.34 368.254 193.34C368.806 193.34 369.304 193.232 369.748 193.016C370.204 192.812 370.564 192.5 370.828 192.08C371.092 191.672 371.224 191.174 371.224 190.586V188.408L371.53 188.732C371.194 189.392 370.708 189.896 370.072 190.244C369.448 190.592 368.758 190.766 368.002 190.766C367.09 190.766 366.274 190.556 365.554 190.136C364.834 189.704 364.27 189.122 363.862 188.39C363.454 187.646 363.25 186.824 363.25 185.924C363.25 185.012 363.454 184.19 363.862 183.458C364.27 182.726 364.828 182.15 365.536 181.73C366.256 181.298 367.072 181.082 367.984 181.082C368.74 181.082 369.424 181.256 370.036 181.604C370.66 181.94 371.158 182.408 371.53 183.008L371.278 183.458V181.298H372.916V190.586C372.916 191.426 372.718 192.176 372.322 192.836C371.926 193.496 371.374 194.012 370.666 194.384C369.97 194.768 369.172 194.96 368.272 194.96ZM368.146 189.146C368.722 189.146 369.238 189.002 369.694 188.714C370.162 188.426 370.534 188.042 370.81 187.562C371.086 187.07 371.224 186.524 371.224 185.924C371.224 185.336 371.086 184.796 370.81 184.304C370.534 183.812 370.162 183.422 369.694 183.134C369.238 182.846 368.722 182.702 368.146 182.702C367.558 182.702 367.024 182.846 366.544 183.134C366.064 183.422 365.686 183.812 365.41 184.304C365.146 184.784 365.014 185.324 365.014 185.924C365.014 186.524 365.146 187.07 365.41 187.562C365.686 188.042 366.058 188.426 366.526 188.714C367.006 189.002 367.546 189.146 368.146 189.146ZM378.949 191.216C378.253 191.216 377.623 191.054 377.059 190.73C376.507 190.406 376.075 189.956 375.763 189.38C375.463 188.792 375.313 188.12 375.313 187.364V181.298H376.987V187.184C376.987 187.664 377.083 188.084 377.275 188.444C377.479 188.804 377.755 189.086 378.103 189.29C378.463 189.494 378.871 189.596 379.327 189.596C379.783 189.596 380.185 189.494 380.533 189.29C380.893 189.086 381.169 188.792 381.361 188.408C381.565 188.024 381.667 187.568 381.667 187.04V181.298H383.359V191H381.721V189.11L381.991 189.272C381.763 189.884 381.373 190.364 380.821 190.712C380.281 191.048 379.657 191.216 378.949 191.216ZM385.952 191V177.374H387.626V191H385.952ZM393.068 191.216C392.432 191.216 391.868 191.102 391.376 190.874C390.896 190.634 390.518 190.31 390.242 189.902C389.966 189.482 389.828 189.002 389.828 188.462C389.828 187.946 389.936 187.484 390.152 187.076C390.38 186.656 390.728 186.302 391.196 186.014C391.676 185.726 392.276 185.522 392.996 185.402L396.596 184.808V186.212L393.374 186.752C392.75 186.86 392.294 187.058 392.006 187.346C391.73 187.634 391.592 187.988 391.592 188.408C391.592 188.804 391.748 189.134 392.06 189.398C392.384 189.662 392.786 189.794 393.266 189.794C393.878 189.794 394.406 189.668 394.85 189.416C395.306 189.152 395.66 188.798 395.912 188.354C396.176 187.91 396.308 187.418 396.308 186.878V184.412C396.308 183.884 396.11 183.458 395.714 183.134C395.33 182.798 394.82 182.63 394.184 182.63C393.632 182.63 393.14 182.774 392.708 183.062C392.288 183.338 391.976 183.71 391.772 184.178L390.314 183.422C390.494 182.978 390.782 182.582 391.178 182.234C391.574 181.874 392.036 181.592 392.564 181.388C393.092 181.184 393.644 181.082 394.22 181.082C394.964 181.082 395.618 181.226 396.182 181.514C396.746 181.79 397.184 182.18 397.496 182.684C397.82 183.176 397.982 183.752 397.982 184.412V191H396.344V189.164L396.65 189.272C396.446 189.656 396.17 189.992 395.822 190.28C395.474 190.568 395.066 190.796 394.598 190.964C394.13 191.132 393.62 191.216 393.068 191.216ZM400.577 191V181.298H402.215V183.08L402.035 182.828C402.263 182.276 402.611 181.868 403.079 181.604C403.547 181.328 404.117 181.19 404.789 181.19H405.383V182.774H404.537C403.853 182.774 403.301 182.99 402.881 183.422C402.461 183.842 402.251 184.442 402.251 185.222V191H400.577ZM406.87 191V181.298H408.544V191H406.87ZM406.87 179.75V177.59H408.544V179.75H406.87ZM415.552 191.216C414.64 191.216 413.818 190.994 413.086 190.55C412.366 190.106 411.796 189.5 411.376 188.732C410.956 187.964 410.746 187.106 410.746 186.158C410.746 185.186 410.956 184.322 411.376 183.566C411.796 182.798 412.366 182.192 413.086 181.748C413.818 181.304 414.64 181.082 415.552 181.082C416.356 181.082 417.07 181.256 417.694 181.604C418.318 181.94 418.81 182.396 419.17 182.972L418.9 183.386V177.374H420.592V191H418.954V188.93L419.17 189.218C418.834 189.854 418.342 190.346 417.694 190.694C417.058 191.042 416.344 191.216 415.552 191.216ZM415.696 189.596C416.308 189.596 416.854 189.446 417.334 189.146C417.814 188.846 418.192 188.438 418.468 187.922C418.756 187.394 418.9 186.806 418.9 186.158C418.9 185.498 418.756 184.91 418.468 184.394C418.192 183.866 417.814 183.452 417.334 183.152C416.854 182.852 416.308 182.702 415.696 182.702C415.096 182.702 414.55 182.858 414.058 183.17C413.578 183.47 413.2 183.878 412.924 184.394C412.648 184.898 412.51 185.486 412.51 186.158C412.51 186.806 412.648 187.394 412.924 187.922C413.2 188.438 413.578 188.846 414.058 189.146C414.538 189.446 415.084 189.596 415.696 189.596ZM426.027 191.216C425.391 191.216 424.827 191.102 424.335 190.874C423.855 190.634 423.477 190.31 423.201 189.902C422.925 189.482 422.787 189.002 422.787 188.462C422.787 187.946 422.895 187.484 423.111 187.076C423.339 186.656 423.687 186.302 424.155 186.014C424.635 185.726 425.235 185.522 425.955 185.402L429.555 184.808V186.212L426.333 186.752C425.709 186.86 425.253 187.058 424.965 187.346C424.689 187.634 424.551 187.988 424.551 188.408C424.551 188.804 424.707 189.134 425.019 189.398C425.343 189.662 425.745 189.794 426.225 189.794C426.837 189.794 427.365 189.668 427.809 189.416C428.265 189.152 428.619 188.798 428.871 188.354C429.135 187.91 429.267 187.418 429.267 186.878V184.412C429.267 183.884 429.069 183.458 428.673 183.134C428.289 182.798 427.779 182.63 427.143 182.63C426.591 182.63 426.099 182.774 425.667 183.062C425.247 183.338 424.935 183.71 424.731 184.178L423.273 183.422C423.453 182.978 423.741 182.582 424.137 182.234C424.533 181.874 424.995 181.592 425.523 181.388C426.051 181.184 426.603 181.082 427.179 181.082C427.923 181.082 428.577 181.226 429.141 181.514C429.705 181.79 430.143 182.18 430.455 182.684C430.779 183.176 430.941 183.752 430.941 184.412V191H429.303V189.164L429.609 189.272C429.405 189.656 429.129 189.992 428.781 190.28C428.433 190.568 428.025 190.796 427.557 190.964C427.089 191.132 426.579 191.216 426.027 191.216ZM437.946 191.216C437.034 191.216 436.212 190.994 435.48 190.55C434.76 190.106 434.19 189.5 433.77 188.732C433.35 187.964 433.14 187.106 433.14 186.158C433.14 185.186 433.35 184.322 433.77 183.566C434.19 182.798 434.76 182.192 435.48 181.748C436.212 181.304 437.034 181.082 437.946 181.082C438.75 181.082 439.464 181.256 440.088 181.604C440.712 181.94 441.204 182.396 441.564 182.972L441.294 183.386V177.374H442.986V191H441.348V188.93L441.564 189.218C441.228 189.854 440.736 190.346 440.088 190.694C439.452 191.042 438.738 191.216 437.946 191.216ZM438.09 189.596C438.702 189.596 439.248 189.446 439.728 189.146C440.208 188.846 440.586 188.438 440.862 187.922C441.15 187.394 441.294 186.806 441.294 186.158C441.294 185.498 441.15 184.91 440.862 184.394C440.586 183.866 440.208 183.452 439.728 183.152C439.248 182.852 438.702 182.702 438.09 182.702C437.49 182.702 436.944 182.858 436.452 183.17C435.972 183.47 435.594 183.878 435.318 184.394C435.042 184.898 434.904 185.486 434.904 186.158C434.904 186.806 435.042 187.394 435.318 187.922C435.594 188.438 435.972 188.846 436.452 189.146C436.932 189.446 437.478 189.596 438.09 189.596ZM450.041 191.216C449.105 191.216 448.271 190.994 447.539 190.55C446.807 190.106 446.231 189.5 445.811 188.732C445.391 187.952 445.181 187.082 445.181 186.122C445.181 185.15 445.385 184.286 445.793 183.53C446.213 182.774 446.777 182.18 447.485 181.748C448.205 181.304 449.009 181.082 449.897 181.082C450.617 181.082 451.253 181.214 451.805 181.478C452.369 181.73 452.843 182.078 453.227 182.522C453.623 182.954 453.923 183.452 454.127 184.016C454.343 184.568 454.451 185.144 454.451 185.744C454.451 185.876 454.439 186.026 454.415 186.194C454.403 186.35 454.385 186.5 454.361 186.644H446.405V185.204H453.389L452.597 185.852C452.705 185.228 452.645 184.67 452.417 184.178C452.189 183.686 451.853 183.296 451.409 183.008C450.965 182.72 450.461 182.576 449.897 182.576C449.333 182.576 448.817 182.72 448.349 183.008C447.881 183.296 447.515 183.71 447.251 184.25C446.999 184.778 446.897 185.408 446.945 186.14C446.897 186.848 447.005 187.472 447.269 188.012C447.545 188.54 447.929 188.954 448.421 189.254C448.925 189.542 449.471 189.686 450.059 189.686C450.707 189.686 451.253 189.536 451.697 189.236C452.141 188.936 452.501 188.552 452.777 188.084L454.181 188.804C453.989 189.248 453.689 189.656 453.281 190.028C452.885 190.388 452.411 190.676 451.859 190.892C451.319 191.108 450.713 191.216 450.041 191.216Z" fill="#F8F8F8"/>
<path d="M91.6 376.009V362.599H100.33V364.219H93.364V368.467H99.97V370.087H93.364V374.389H100.33V376.009H91.6ZM101.22 376.009L104.622 371.149L101.238 366.307H103.254L106.152 370.519H105.126L107.988 366.307H110.022L106.638 371.149L110.004 376.009H107.988L105.126 371.797H106.134L103.272 376.009H101.22ZM111.511 379.609V366.307H113.149V368.395L112.933 367.981C113.293 367.405 113.785 366.949 114.409 366.613C115.033 366.265 115.747 366.091 116.551 366.091C117.463 366.091 118.279 366.313 118.999 366.757C119.731 367.201 120.307 367.807 120.727 368.575C121.147 369.331 121.357 370.195 121.357 371.167C121.357 372.115 121.147 372.973 120.727 373.741C120.307 374.509 119.731 375.115 118.999 375.559C118.279 376.003 117.457 376.225 116.533 376.225C115.753 376.225 115.039 376.051 114.391 375.703C113.755 375.355 113.263 374.863 112.915 374.227L113.185 373.939V379.609H111.511ZM116.407 374.605C117.019 374.605 117.565 374.455 118.045 374.155C118.525 373.855 118.897 373.447 119.161 372.931C119.437 372.403 119.575 371.815 119.575 371.167C119.575 370.495 119.437 369.907 119.161 369.403C118.897 368.887 118.525 368.479 118.045 368.179C117.565 367.867 117.019 367.711 116.407 367.711C115.795 367.711 115.243 367.861 114.751 368.161C114.271 368.461 113.887 368.875 113.599 369.403C113.323 369.919 113.185 370.507 113.185 371.167C113.185 371.815 113.323 372.403 113.599 372.931C113.887 373.447 114.271 373.855 114.751 374.155C115.243 374.455 115.795 374.605 116.407 374.605ZM123.552 376.009V362.383H125.226V376.009H123.552ZM132.432 376.225C131.496 376.225 130.65 376.009 129.894 375.577C129.138 375.133 128.538 374.527 128.094 373.759C127.65 372.991 127.428 372.121 127.428 371.149C127.428 370.177 127.644 369.313 128.076 368.557C128.52 367.801 129.12 367.201 129.876 366.757C130.632 366.313 131.484 366.091 132.432 366.091C133.368 366.091 134.214 366.313 134.97 366.757C135.726 367.189 136.32 367.783 136.752 368.539C137.196 369.295 137.418 370.165 137.418 371.149C137.418 372.133 137.19 373.009 136.734 373.777C136.278 374.533 135.672 375.133 134.916 375.577C134.172 376.009 133.344 376.225 132.432 376.225ZM132.432 374.605C133.032 374.605 133.572 374.455 134.052 374.155C134.544 373.855 134.928 373.441 135.204 372.913C135.492 372.385 135.636 371.797 135.636 371.149C135.636 370.489 135.492 369.907 135.204 369.403C134.928 368.887 134.544 368.479 134.052 368.179C133.572 367.867 133.032 367.711 132.432 367.711C131.82 367.711 131.268 367.867 130.776 368.179C130.296 368.479 129.912 368.887 129.624 369.403C129.336 369.907 129.192 370.489 129.192 371.149C129.192 371.797 129.336 372.385 129.624 372.913C129.912 373.441 130.296 373.855 130.776 374.155C131.268 374.455 131.82 374.605 132.432 374.605ZM139.601 376.009V366.307H141.239V368.089L141.059 367.837C141.287 367.285 141.635 366.877 142.103 366.613C142.571 366.337 143.141 366.199 143.813 366.199H144.407V367.783H143.561C142.877 367.783 142.325 367.999 141.905 368.431C141.485 368.851 141.275 369.451 141.275 370.231V376.009H139.601ZM148.738 376.225C148.102 376.225 147.538 376.111 147.046 375.883C146.566 375.643 146.188 375.319 145.912 374.911C145.636 374.491 145.498 374.011 145.498 373.471C145.498 372.955 145.606 372.493 145.822 372.085C146.05 371.665 146.398 371.311 146.866 371.023C147.346 370.735 147.946 370.531 148.666 370.411L152.266 369.817V371.221L149.044 371.761C148.42 371.869 147.964 372.067 147.676 372.355C147.4 372.643 147.262 372.997 147.262 373.417C147.262 373.813 147.418 374.143 147.73 374.407C148.054 374.671 148.456 374.803 148.936 374.803C149.548 374.803 150.076 374.677 150.52 374.425C150.976 374.161 151.33 373.807 151.582 373.363C151.846 372.919 151.978 372.427 151.978 371.887V369.421C151.978 368.893 151.78 368.467 151.384 368.143C151 367.807 150.49 367.639 149.854 367.639C149.302 367.639 148.81 367.783 148.378 368.071C147.958 368.347 147.646 368.719 147.442 369.187L145.984 368.431C146.164 367.987 146.452 367.591 146.848 367.243C147.244 366.883 147.706 366.601 148.234 366.397C148.762 366.193 149.314 366.091 149.89 366.091C150.634 366.091 151.288 366.235 151.852 366.523C152.416 366.799 152.854 367.189 153.166 367.693C153.49 368.185 153.652 368.761 153.652 369.421V376.009H152.014V374.173L152.32 374.281C152.116 374.665 151.84 375.001 151.492 375.289C151.144 375.577 150.736 375.805 150.268 375.973C149.8 376.141 149.29 376.225 148.738 376.225ZM160.748 376.225C159.8 376.225 158.954 376.003 158.21 375.559C157.478 375.115 156.902 374.509 156.482 373.741C156.062 372.973 155.852 372.109 155.852 371.149C155.852 370.177 156.062 369.313 156.482 368.557C156.902 367.801 157.478 367.201 158.21 366.757C158.954 366.313 159.8 366.091 160.748 366.091C161.384 366.091 161.978 366.205 162.53 366.433C163.082 366.661 163.568 366.967 163.988 367.351C164.408 367.735 164.714 368.185 164.906 368.701L163.412 369.421C163.184 368.917 162.836 368.509 162.368 368.197C161.9 367.873 161.36 367.711 160.748 367.711C160.16 367.711 159.626 367.861 159.146 368.161C158.678 368.461 158.306 368.869 158.03 369.385C157.754 369.901 157.616 370.495 157.616 371.167C157.616 371.815 157.754 372.403 158.03 372.931C158.306 373.447 158.678 373.855 159.146 374.155C159.626 374.455 160.16 374.605 160.748 374.605C161.36 374.605 161.9 374.449 162.368 374.137C162.836 373.813 163.184 373.387 163.412 372.859L164.906 373.615C164.714 374.119 164.408 374.569 163.988 374.965C163.568 375.349 163.082 375.655 162.53 375.883C161.978 376.111 161.384 376.225 160.748 376.225ZM160.964 380.185C160.628 380.185 160.28 380.125 159.92 380.005C159.56 379.897 159.266 379.747 159.038 379.555L159.452 378.457C159.632 378.613 159.836 378.733 160.064 378.817C160.292 378.901 160.514 378.943 160.73 378.943C160.994 378.943 161.204 378.877 161.36 378.745C161.516 378.625 161.594 378.463 161.594 378.259C161.594 377.995 161.456 377.785 161.18 377.629C160.904 377.485 160.466 377.377 159.866 377.305L160.28 375.829H161.378L161.18 376.639C161.804 376.759 162.278 376.969 162.602 377.269C162.938 377.569 163.106 377.935 163.106 378.367C163.106 378.907 162.902 379.345 162.494 379.681C162.098 380.017 161.588 380.185 160.964 380.185ZM169.814 376.225C169.178 376.225 168.614 376.111 168.122 375.883C167.642 375.643 167.264 375.319 166.988 374.911C166.712 374.491 166.574 374.011 166.574 373.471C166.574 372.955 166.682 372.493 166.898 372.085C167.126 371.665 167.474 371.311 167.942 371.023C168.422 370.735 169.022 370.531 169.742 370.411L173.342 369.817V371.221L170.12 371.761C169.496 371.869 169.04 372.067 168.752 372.355C168.476 372.643 168.338 372.997 168.338 373.417C168.338 373.813 168.494 374.143 168.806 374.407C169.13 374.671 169.532 374.803 170.012 374.803C170.624 374.803 171.152 374.677 171.596 374.425C172.052 374.161 172.406 373.807 172.658 373.363C172.922 372.919 173.054 372.427 173.054 371.887V369.421C173.054 368.893 172.856 368.467 172.46 368.143C172.076 367.807 171.566 367.639 170.93 367.639C170.378 367.639 169.886 367.783 169.454 368.071C169.034 368.347 168.722 368.719 168.518 369.187L167.06 368.431C167.24 367.987 167.528 367.591 167.924 367.243C168.32 366.883 168.782 366.601 169.31 366.397C169.838 366.193 170.39 366.091 170.966 366.091C171.71 366.091 172.364 366.235 172.928 366.523C173.492 366.799 173.93 367.189 174.242 367.693C174.566 368.185 174.728 368.761 174.728 369.421V376.009H173.09V374.173L173.396 374.281C173.192 374.665 172.916 375.001 172.568 375.289C172.22 375.577 171.812 375.805 171.344 375.973C170.876 376.141 170.366 376.225 169.814 376.225ZM172.118 364.489C171.794 364.489 171.53 364.435 171.326 364.327C171.134 364.219 170.966 364.093 170.822 363.949C170.678 363.805 170.534 363.679 170.39 363.571C170.246 363.463 170.072 363.409 169.868 363.409C169.676 363.409 169.52 363.487 169.4 363.643C169.292 363.787 169.238 364.045 169.238 364.417H167.888C167.888 363.613 168.062 363.013 168.41 362.617C168.77 362.209 169.232 362.005 169.796 362.005C170.12 362.005 170.384 362.059 170.588 362.167C170.792 362.275 170.966 362.401 171.11 362.545C171.254 362.689 171.392 362.815 171.524 362.923C171.668 363.031 171.842 363.085 172.046 363.085C172.262 363.085 172.43 363.001 172.55 362.833C172.67 362.653 172.73 362.401 172.73 362.077H174.062C174.062 362.821 173.882 363.409 173.522 363.841C173.162 364.273 172.694 364.489 172.118 364.489ZM181.932 376.225C180.996 376.225 180.15 376.009 179.394 375.577C178.638 375.133 178.038 374.527 177.594 373.759C177.15 372.991 176.928 372.121 176.928 371.149C176.928 370.177 177.144 369.313 177.576 368.557C178.02 367.801 178.62 367.201 179.376 366.757C180.132 366.313 180.984 366.091 181.932 366.091C182.868 366.091 183.714 366.313 184.47 366.757C185.226 367.189 185.82 367.783 186.252 368.539C186.696 369.295 186.918 370.165 186.918 371.149C186.918 372.133 186.69 373.009 186.234 373.777C185.778 374.533 185.172 375.133 184.416 375.577C183.672 376.009 182.844 376.225 181.932 376.225ZM181.932 374.605C182.532 374.605 183.072 374.455 183.552 374.155C184.044 373.855 184.428 373.441 184.704 372.913C184.992 372.385 185.136 371.797 185.136 371.149C185.136 370.489 184.992 369.907 184.704 369.403C184.428 368.887 184.044 368.479 183.552 368.179C183.072 367.867 182.532 367.711 181.932 367.711C181.32 367.711 180.768 367.867 180.276 368.179C179.796 368.479 179.412 368.887 179.124 369.403C178.836 369.907 178.692 370.489 178.692 371.149C178.692 371.797 178.836 372.385 179.124 372.913C179.412 373.441 179.796 373.855 180.276 374.155C180.768 374.455 181.32 374.605 181.932 374.605Z" fill="#F8F8F8"/>
</svg>
