<svg width="1365" height="211" viewBox="0 0 1365 211" fill="none" xmlns="http://www.w3.org/2000/svg">
<g clip-path="url(#clip0_1831_1541)">
<path d="M0 0H1365V195C1365 203.837 1357.84 211 1349 211H16C7.16344 211 0 203.837 0 195V0Z" fill="white"/>
<path d="M225.713 239.519C208.992 239.519 194.257 236.129 181.492 229.348C168.728 222.566 158.788 212.992 151.673 200.609C144.558 188.234 141 173.754 141 157.178V153.304C141 136.514 144.501 121.985 151.502 109.709C158.503 97.4407 168.329 87.9157 180.98 81.1345C193.631 74.3533 208.196 70.9626 224.688 70.9626C241.181 70.9626 255.184 74.3533 267.379 81.1345C279.575 87.9157 289.066 97.4407 295.84 109.709C302.614 121.978 306.008 136.301 306.008 152.657V165.893H180.297C180.745 178.382 185.377 188.39 194.193 195.925C203.001 203.46 213.845 207.227 226.723 207.227C239.602 207.227 248.745 204.59 254.85 199.315C260.947 194.041 265.579 188.07 268.746 181.396L300.935 197.219C297.768 203.033 293.193 209.224 287.209 215.785C281.218 222.353 273.257 227.947 263.324 232.575C253.384 237.202 240.847 239.519 225.713 239.519ZM180.646 137.801H266.376C265.473 127.26 261.232 118.858 253.669 112.617C246.098 106.376 236.329 103.255 224.361 103.255C212.394 103.255 201.998 106.376 194.542 112.617C187.085 118.865 182.453 127.26 180.646 137.801Z" fill="black"/>
<path d="M686.785 108.418C679.784 96.1488 670.463 86.837 658.823 80.4823C647.19 74.1347 637.428 70.9502 623.88 70.9502C608.056 70.9502 595.918 73.5376 587.444 78.7052C578.977 83.8658 572.822 89.7869 568.98 96.4615H560.392V75.471H522.098L496.64 75.4781H496.647L451.58 75.471L410.575 130.688H402.016L361.018 75.471H315.609L376.935 154.585L314.584 234.979H360.669L402.008 178.789H410.568L451.907 234.979H497.65L435.3 154.585L474.839 103.57C487.099 103.719 527.577 103.57 527.577 103.57V299.564H560.37V214.962H568.958C571.442 218.843 575.568 222.71 579.973 226.584C584.377 230.465 590.14 233.579 597.255 235.946C604.371 238.313 613.236 239.5 623.859 239.5C637.634 239.5 647.453 236.323 658.965 229.968C670.485 223.627 679.756 214.308 686.757 202.033C693.751 189.764 697.259 175.021 697.259 157.791V152.631C697.259 135.407 693.751 120.665 686.757 108.389L686.785 108.418ZM658.325 156.86C658.325 173.003 653.743 185.428 644.6 194.157C635.45 202.871 623.759 207.229 609.522 207.229C595.285 207.229 583.829 202.871 574.458 194.157C565.074 185.428 560.399 173.003 560.399 156.86V153.626C560.399 137.27 565.074 124.774 574.458 116.165C583.829 107.565 595.519 103.25 609.522 103.25C623.525 103.25 635.165 107.565 644.422 116.165C653.693 124.781 658.325 137.27 658.325 153.626V156.86Z" fill="black"/>
<path d="M727.216 235V8.96582H766.186V235H727.216Z" fill="black"/>
<path d="M883.549 239.519C866.828 239.519 851.865 236.235 838.652 229.667C825.439 223.107 815.044 213.738 807.48 201.576C799.91 189.414 796.132 174.828 796.132 157.825V152.657C796.132 135.654 799.91 121.011 807.48 108.743C815.044 96.474 825.439 87.1054 838.652 80.6511C851.865 74.1898 866.828 70.9626 883.549 70.9626C900.269 70.9626 915.176 74.1898 928.275 80.6511C941.374 87.1125 951.705 96.474 959.275 108.743C966.839 121.011 970.624 135.654 970.624 152.657V157.825C970.624 174.835 966.839 189.421 959.275 201.576C951.705 213.738 941.366 223.107 928.275 229.667C915.168 236.228 900.262 239.519 883.549 239.519ZM883.549 206.58C897.779 206.58 909.412 202.223 918.448 193.501C927.478 184.779 932.003 172.567 932.003 156.851V153.624C932.003 137.915 927.485 125.689 918.448 116.974C909.412 108.252 897.779 103.895 883.549 103.895C869.318 103.895 857.678 108.252 848.649 116.974C839.613 125.689 835.094 137.915 835.094 153.624V156.851C835.094 172.567 839.613 184.779 848.649 193.501C857.678 202.216 869.318 206.58 883.549 206.58Z" fill="black"/>
<path d="M1012.21 234.999L986.119 75.4834H1024.75L1042.71 210.134H1048.47L1073.88 75.4834H1136.23L1161.65 210.134H1167.41L1185.37 75.4834H1224L1197.91 234.999H1133.19L1108.12 100.348H1102.35L1076.94 234.999H1012.22H1012.21Z" fill="black"/>
</g>
<defs>
<clipPath id="clip0_1831_1541">
<path d="M0 0H1365V195C1365 203.837 1357.84 211 1349 211H16C7.16344 211 0 203.837 0 195V0Z" fill="white"/>
</clipPath>
</defs>
</svg>
