<svg width="111" height="36" viewBox="0 0 111 36" fill="none" xmlns="http://www.w3.org/2000/svg">
<g clip-path="url(#clip0_1704_3217)">
<path d="M69.9836 31.3909C69.9908 31.8829 69.902 32.3711 69.7229 32.8241C69.5438 33.2772 69.2784 33.6852 68.9435 34.0221C68.281 34.7184 67.3899 35.1085 66.4617 35.1085C65.5335 35.1085 64.6423 34.7184 63.9798 34.0221C63.6457 33.6846 63.3807 33.2765 63.2016 32.8235C63.0226 32.3706 62.9335 31.8828 62.9398 31.3909C62.938 30.6451 63.1433 29.9155 63.5297 29.295C63.916 28.6745 64.466 28.191 65.1096 27.9061C65.7531 27.6212 66.4613 27.5476 67.144 27.6948C67.8267 27.8421 68.4531 28.2034 68.9435 28.7329C69.2771 29.0764 69.5416 29.4895 69.7204 29.9466C69.8994 30.4038 69.9889 30.8953 69.9836 31.3909Z" fill="white"/>
<path d="M81.7439 35.1322C78.8102 35.1322 76.5124 34.0887 74.8507 32.0017C73.1889 29.9146 72.3592 27.1171 72.3616 23.6088C72.3522 22.1504 72.5791 20.7013 73.0323 19.326C73.4743 18.0045 74.1326 16.778 74.9762 15.7038C75.8113 14.6394 76.8496 13.7789 78.0211 13.1802C79.264 12.5368 80.6289 12.2095 82.0093 12.2237C83.9986 12.2237 85.6173 12.7359 86.8654 13.7602C87.4692 14.2424 87.9548 14.8742 88.2809 15.6013C88.6069 16.3284 88.7636 17.1294 88.7376 17.9355C88.7501 18.6232 88.5784 19.3003 88.2426 19.8868C88.0685 20.172 87.8255 20.4015 87.5395 20.551C87.2535 20.7004 86.935 20.7642 86.6179 20.7357C85.9346 20.7805 85.2611 20.5441 84.735 20.075C84.5316 19.8939 84.3668 19.6682 84.2518 19.4131C84.1367 19.1579 84.074 18.8794 84.0679 18.5962C84.0713 17.9092 84.1544 17.2253 84.3154 16.5604C84.4439 16.0559 84.5398 15.5426 84.6023 15.0239C84.3626 14.5753 83.9667 14.2466 83.5013 14.1098C82.9895 13.9521 82.4592 13.8745 81.9268 13.8793C81.2765 13.877 80.6341 14.0319 80.0475 14.3325C79.3489 14.7254 78.7515 15.2967 78.308 15.9957C77.7304 16.8975 77.3122 17.9052 77.0743 18.9687C76.7353 20.4307 76.5761 21.9337 76.6008 23.4398C76.6008 26.1747 77.1663 28.4038 78.2973 30.1272C79.4282 31.8506 80.913 32.7136 82.7517 32.7161C83.9407 32.7608 85.1118 32.3975 86.0944 31.679C87.1206 30.8393 87.975 29.7829 88.6049 28.5753L89.9208 29.5011C89.0657 31.1731 87.8326 32.5887 86.3346 33.6188C84.9744 34.5907 83.379 35.1166 81.7439 35.1322Z" fill="white"/>
<path d="M110.461 23.4783C110.464 25.0124 110.239 26.5373 109.794 27.9954C109.391 29.374 108.733 30.6515 107.861 31.7521C106.965 32.8852 105.839 33.7817 104.568 34.3716C103.238 34.9618 101.811 35.2545 100.372 35.2321C99.1084 35.2421 97.8554 34.9809 96.6886 34.4638C95.5182 33.9405 94.4606 33.1653 93.5824 32.1861C92.6597 31.1458 91.9378 29.9217 91.4556 28.5831C90.8997 27.0495 90.6271 25.415 90.652 23.7702C90.652 20.3798 91.5737 17.6039 93.4172 15.4427C95.2607 13.2813 97.6778 12.202 100.669 12.2046C103.51 12.2046 105.852 13.2288 107.695 15.2775C109.539 17.3261 110.461 20.0596 110.461 23.4783ZM106.203 23.5205C106.196 22.3492 106.093 21.1808 105.894 20.0289C105.732 18.9471 105.42 17.8972 104.969 16.9137C104.564 16.0459 103.972 15.294 103.241 14.7205C102.476 14.1521 101.56 13.8626 100.63 13.8947C99.6678 13.8636 98.7203 14.1564 97.922 14.7321C97.1477 15.3275 96.5225 16.1193 96.1034 17.0367C95.6425 18.0007 95.3299 19.0384 95.1781 20.1096C95.0032 21.2098 94.9126 22.3237 94.909 23.4398C94.9019 24.751 95.0085 26.0602 95.2287 27.3501C95.4152 28.4668 95.7588 29.5469 96.2472 30.5536C96.6619 31.4303 97.264 32.1896 98.0046 32.7699C98.7789 33.3262 99.698 33.6071 100.63 33.5727C102.344 33.5727 103.701 32.6841 104.7 30.9069C105.7 29.1299 106.202 26.6676 106.207 23.5205H106.203Z" fill="white"/>
<path d="M19.6602 34.1396C19.0064 34.3925 18.4361 34.5948 17.9421 34.7504C17.3962 34.9149 16.8311 34.9948 16.2641 34.9877C15.338 35.039 14.4232 34.7509 13.6706 34.1708C12.9923 33.5695 12.5501 32.7167 12.432 31.7822H12.3086C11.4899 32.7858 10.5047 33.6181 9.40276 34.2369C8.23706 34.8323 6.95611 35.1229 5.66514 35.0849C4.9692 35.1127 4.275 34.993 3.62238 34.7326C2.96976 34.4722 2.37158 34.0764 1.86218 33.5678C1.36656 33.0556 0.977666 32.437 0.721013 31.7525C0.464359 31.0679 0.345745 30.333 0.372955 29.596C0.362325 28.8226 0.475346 28.0529 0.707122 27.3203C1.13846 26.0484 1.98128 24.9842 3.08262 24.321C3.59505 24.0031 4.12932 23.7274 4.6808 23.4963C5.30555 23.237 6.5732 22.7675 8.48377 22.088C9.80645 21.6607 11.0981 21.1302 12.3485 20.5009V18.2757C12.3304 17.9014 12.2916 17.5286 12.2323 17.1593C12.156 16.6141 11.9913 16.0876 11.7456 15.6032C11.453 15.0395 11.0519 14.5489 10.5687 14.1638C9.92988 13.7163 9.17304 13.5021 8.41112 13.5532C7.80266 13.5459 7.19853 13.6633 6.63132 13.8994C6.20165 14.05 5.80673 14.2967 5.47263 14.6229C5.49323 15.0678 5.56023 15.5088 5.67241 15.9378C5.7966 16.4632 5.86244 17.0025 5.86855 17.5444C5.86125 17.8186 5.79911 18.0879 5.68631 18.3342C5.57353 18.5805 5.41272 18.798 5.21475 18.972C4.70891 19.4288 4.0592 19.6612 3.39862 19.6217C3.10193 19.6467 2.8043 19.5881 2.53537 19.4515C2.26644 19.3151 2.03558 19.1055 1.86581 18.8437C1.51428 18.283 1.34259 17.615 1.37666 16.9407C1.41073 16.2663 1.64872 15.6221 2.05469 15.1053C2.54623 14.4433 3.141 13.8773 3.81269 13.4325C4.52427 12.975 5.28869 12.6193 6.08648 12.3744C6.92356 12.084 7.79648 11.9293 8.67628 11.9154C9.69962 11.9027 10.722 11.9886 11.731 12.1722C12.589 12.3373 13.3989 12.7158 14.0956 13.2769C14.8193 13.8464 15.3783 14.6231 15.7083 15.5176C16.1129 16.6837 16.3005 17.9233 16.2604 19.1666C16.2604 21.2958 16.2398 23.1811 16.1986 24.8228C16.1575 26.4644 16.1382 28.2656 16.1405 30.2262C16.1198 30.706 16.2161 31.1833 16.4203 31.6111C16.6321 31.9767 16.9302 32.276 17.2847 32.4785C17.5932 32.6389 17.9336 32.7164 18.2763 32.7042C18.7267 32.7042 19.188 32.7042 19.6602 32.7042V34.1396ZM12.3957 22.3565C11.2153 22.7454 10.18 23.0917 9.2938 23.4496C8.42174 23.795 7.58746 24.2411 6.80567 24.7801C6.14553 25.2488 5.58491 25.8612 5.16026 26.5773C4.74188 27.3258 4.53263 28.1872 4.55731 29.0591C4.55731 30.2936 4.85879 31.2013 5.46174 31.7822C6.099 32.3734 6.92207 32.6835 7.76459 32.6497C8.68495 32.6678 9.59013 32.3974 10.3689 31.8717C11.093 31.3862 11.7342 30.7719 12.265 30.055L12.3957 22.3565Z" fill="white"/>
<path d="M43.3909 34.1398L36.2245 34.6299L35.9121 34.3148V32.2647L35.7486 32.218C34.9944 33.1073 34.0834 33.8278 33.068 34.3381C32.0516 34.8772 30.9333 35.1594 29.799 35.1629C28.626 35.1625 27.4684 34.8765 26.4138 34.3264C25.3206 33.7667 24.3512 32.9645 23.5697 31.9729C22.7118 30.8809 22.0483 29.6297 21.6119 28.2812C21.1159 26.7466 20.8701 25.132 20.8854 23.508C20.8786 21.9594 21.1397 20.4228 21.6555 18.976C22.1429 17.5981 22.8633 16.3282 23.7803 15.2298C24.6543 14.212 25.7153 13.3988 26.8968 12.8413C28.0773 12.2546 29.3621 11.948 30.6635 11.9427C31.6159 11.9411 32.5647 12.0719 33.4857 12.3317C34.3169 12.5539 35.1187 12.8872 35.8721 13.3237V5.66791C35.8787 5.08394 35.78 4.50408 35.5816 3.96015C35.4182 3.49695 35.1362 3.09247 34.7679 2.79311C34.2887 2.47447 33.7534 2.26523 33.1952 2.17847C32.4881 2.04735 31.7753 1.95516 31.0594 1.90228V0.513497L39.4535 0L39.7659 0.334551V30.0085C39.7534 30.4705 39.8509 30.9283 40.0492 31.3389C40.2484 31.7144 40.5302 32.0323 40.8701 32.2647C41.2234 32.4697 41.6163 32.5842 42.0179 32.5992C42.5192 32.6421 42.9768 32.6732 43.3909 32.6887V34.1398ZM35.8721 30.2769V17.3889C35.581 16.4432 35.0727 15.5911 34.3938 14.9108C33.9691 14.5258 33.4911 14.2135 32.9773 13.985C32.3744 13.7286 31.7297 13.6043 31.0812 13.6193C30.2684 13.6128 29.4704 13.8514 28.7783 14.3079C28.0312 14.8195 27.3956 15.4975 26.915 16.2957C26.3423 17.2731 25.9295 18.3479 25.6946 19.474C25.3842 20.8757 25.2342 22.3126 25.2478 23.7531C25.2358 24.8978 25.3479 26.04 25.582 27.157C25.7994 28.1674 26.1792 29.1295 26.7043 30.0006C27.1725 30.8171 27.8117 31.5057 28.5713 32.0118C29.3822 32.5407 30.3172 32.8106 31.2664 32.7899C32.2385 32.8321 33.2001 32.561 34.027 32.0118C34.7136 31.5273 35.3346 30.9434 35.8721 30.2769Z" fill="white"/>
<path d="M64.8719 13.8879C64.2417 14.0102 63.6382 14.2569 63.0921 14.6153C62.4384 15.095 61.9327 15.7721 61.6392 16.5604C60.8231 18.5521 59.9756 20.6268 59.0967 22.7845C58.2176 24.9422 57.3072 27.2141 56.3652 29.6C56.0891 30.2847 55.7937 31.0952 55.4789 32.0313C55.1666 32.9689 54.8796 33.8714 54.6144 34.7311H52.9908C51.6759 31.2429 50.4652 28.0556 49.3586 25.1692C48.252 22.2827 47.0994 19.334 45.9006 16.3231C45.6297 15.6458 45.1572 15.0837 44.5567 14.7242C43.9821 14.3631 43.3506 14.1178 42.6934 14.0006V12.538H52.1918V14.094C51.6634 14.1291 51.14 14.2229 50.6299 14.3741C50.0052 14.5453 49.6928 14.7787 49.6928 15.0743C49.7139 15.1941 49.7492 15.3104 49.7981 15.4205C49.8671 15.6073 49.9361 15.8096 50.0052 16.0585C50.5766 17.5757 51.3817 19.6945 52.4205 22.415C53.4594 25.1355 54.3069 27.3295 54.9631 28.9971C55.4644 27.7211 56.0927 26.1262 56.8483 24.2239C57.6038 22.3216 58.421 20.1938 59.2964 17.8441C59.4345 17.455 59.5688 17.0661 59.6923 16.716C59.8168 16.3778 59.8808 16.0175 59.8812 15.654C59.8763 15.5203 59.8426 15.3896 59.7827 15.2722C59.7229 15.1547 59.6385 15.0537 59.5361 14.9771C59.2865 14.7621 59.0103 14.5855 58.7153 14.4519C58.4121 14.3091 58.0971 14.197 57.7745 14.1173C57.4694 14.0435 57.2224 13.9889 57.0262 13.9617V12.538H64.8792L64.8719 13.8879Z" fill="white"/>
</g>
<defs>
<clipPath id="clip0_1704_3217">
<rect width="111" height="36" fill="white"/>
</clipPath>
</defs>
</svg>
