<svg width="203" height="36" viewBox="0 0 203 36" fill="none" xmlns="http://www.w3.org/2000/svg">
<path d="M16.9404 11.0095C20.6067 11.0095 23.5585 14.1333 23.5585 18C23.5585 21.8667 20.5879 24.9905 16.9404 24.9905C13.2741 24.9905 10.3223 21.8667 10.3223 18C10.3223 14.1333 13.2929 11.0095 16.9404 11.0095Z" fill="#A9A9A9"/>
<path d="M35.9485 24.9714H16.9402C13.3115 24.9714 10.3408 21.8286 10.3408 18C10.3408 14.1524 13.2927 11.0286 16.9402 11.0286H36.3246L37.6971 0L16.3574 0.0381034C9.81442 0.30477 3.98596 4.51429 1.39135 10.8952C0.470077 13.1429 0 15.5238 0 18C0 20.4572 0.451257 22.8381 1.37253 25.0857C3.96714 31.4857 9.81442 35.6952 16.3574 35.981L34.5949 36L35.9485 24.9714Z" fill="white"/>
<path d="M57.7954 12.3811C56.8553 12.3811 56.1032 12.4383 55.5203 12.5716C54.9375 12.6859 54.4863 12.9335 54.129 13.2954C53.7906 13.6573 53.565 14.1907 53.4334 14.8764C53.3018 15.5621 53.2454 16.4764 53.2454 17.6002V19.7526C53.2454 20.8764 53.3206 21.7907 53.4522 22.4764C53.5838 23.1621 53.8282 23.6954 54.1666 24.0573C54.505 24.4192 54.9751 24.6669 55.5767 24.7811C56.1784 24.8954 56.9117 24.9526 57.7954 24.9526C58.6602 24.9526 59.5815 24.9526 60.5968 24.9335C61.612 24.9145 62.0821 24.8954 62.8905 24.8764L62.1009 29.0859C61.2924 29.1049 60.86 29.124 59.9575 29.143C59.055 29.1621 58.2842 29.1621 57.6825 29.1621C55.9152 29.1621 54.4298 28.9906 53.2265 28.6668C52.0232 28.343 51.0456 27.7907 50.3123 27.0478C49.5791 26.305 49.0338 25.3335 48.7142 24.1526C48.3946 22.9716 48.2441 21.5049 48.2441 19.7716V17.6192C48.2441 15.9049 48.4134 14.4573 48.733 13.2573C49.0526 12.0573 49.5978 11.0859 50.3499 10.343C51.102 9.60019 52.0797 9.0478 53.2642 8.72399C54.4675 8.40018 55.934 8.22876 57.6825 8.22876C59.0739 8.22876 60.9352 8.26685 63.2666 8.34304L62.4769 12.5526C61.4052 12.4954 60.4839 12.4573 59.6943 12.4573C58.8858 12.4002 58.2654 12.3811 57.7954 12.3811Z" fill="white"/>
<path d="M74.2662 11.5428C73.4013 11.5428 72.7057 11.619 72.1792 11.7714C71.6528 11.9238 71.2391 12.1904 70.9195 12.5714C70.6187 12.9523 70.4119 13.4857 70.3179 14.1333C70.2239 14.7809 70.1675 15.619 70.1675 16.6285H78.3273V15.7142C78.3273 14.9333 78.2709 14.2857 78.1393 13.7523C78.0077 13.219 77.8009 12.8 77.5001 12.4762C77.1992 12.1523 76.7856 11.9238 76.2404 11.7714C75.6951 11.619 75.037 11.5428 74.2662 11.5428ZM70.1675 20.419C70.1675 21.3714 70.2239 22.1714 70.3179 22.7809C70.4119 23.3904 70.6187 23.8857 70.9383 24.2285C71.258 24.5714 71.6904 24.819 72.2545 24.9523C72.8185 25.0857 73.5517 25.1428 74.4542 25.1428H77.4813C78.6282 25.1428 80.0195 25.1238 81.6928 25.0666L80.9408 29.0666C80.2263 29.0857 79.6058 29.1047 79.0418 29.1238C78.4777 29.1428 77.9513 29.1428 77.4249 29.1428H75.8831H74.2098C72.4048 29.1428 70.9383 28.9333 69.7727 28.4952C68.607 28.0762 67.6857 27.4476 67.0276 26.6476C66.3508 25.8476 65.8808 24.8762 65.6175 23.7143C65.3543 22.5524 65.2227 21.219 65.2227 19.7333V17.4857C65.2227 15.8857 65.3543 14.4762 65.6363 13.2381C65.9183 12.019 66.4072 10.9714 67.1028 10.1333C67.7985 9.29521 68.7386 8.66664 69.9043 8.22854C71.07 7.8095 72.5741 7.58093 74.3602 7.58093C76.0336 7.58093 77.4061 7.77141 78.5154 8.15237C79.6058 8.53332 80.4895 9.08568 81.1664 9.7714C81.8432 10.4571 82.3133 11.2952 82.5953 12.2286C82.8773 13.1809 83.0089 14.2095 83.0089 15.3333V16.019C83.0089 16.9333 82.9525 17.6571 82.8585 18.2476C82.7645 18.819 82.5953 19.2762 82.3509 19.5809C82.1065 19.8857 81.8056 20.1143 81.4296 20.2285C81.0535 20.3428 80.5835 20.3809 80.0195 20.3809H70.1675V20.419Z" fill="white"/>
<path d="M91.0178 29.0667H86.0918V15.3905C86.0918 14.0572 86.261 12.9334 86.6182 12.0191C86.9755 11.1049 87.4831 10.362 88.1788 9.79057C88.8557 9.23819 89.7017 8.81912 90.6794 8.5715C91.6571 8.32388 92.7851 8.19055 94.0636 8.19055H96.5266C97.2035 8.19055 97.2223 8.20961 97.8803 8.22866L97.0907 12.5525C96.5831 12.5334 96.6771 12.5144 96.0754 12.4953C95.4738 12.4763 94.9661 12.4763 94.5525 12.4763C93.744 12.4763 93.1047 12.5525 92.6535 12.7239C92.2023 12.8763 91.8451 13.1239 91.5819 13.4286C91.3374 13.7334 91.1682 14.1144 91.1118 14.5905C91.0554 15.0477 91.0178 15.6191 91.0178 16.2477V29.0667Z" fill="white"/>
<path d="M110.76 29.0669H108.278C106.68 29.0669 105.383 28.9526 104.348 28.705C103.314 28.4574 102.506 28.0383 101.923 27.4478C101.321 26.8383 100.908 26.0383 100.682 25.0288C100.457 24.0193 100.344 22.7431 100.344 21.2383V3.4288L105.27 2.5907V8.26691H111.267L110.478 12.5526H105.27V20.9526C105.27 21.7526 105.307 22.4002 105.401 22.9145C105.495 23.4288 105.646 23.8098 105.89 24.0955C106.135 24.3812 106.473 24.5526 106.906 24.6478C107.357 24.7431 107.921 24.7812 108.598 24.7812H111.55L110.76 29.0669Z" fill="white"/>
<path d="M120.123 8.26685H115.197V29.0668H120.123V8.26685Z" fill="white"/>
<path d="M123.264 29.0666V14.819C123.264 13.4857 123.433 12.3619 123.79 11.4476C124.147 10.5333 124.674 9.79047 125.369 9.21904C126.065 8.64761 126.911 8.24761 127.926 7.99999C128.942 7.75238 130.107 7.61902 131.424 7.61902C132.796 7.61902 133.999 7.80951 135.052 8.22856C136.105 8.62856 136.914 9.19997 137.496 9.94283C138.079 9.19997 138.907 8.62856 139.959 8.22856C141.012 7.82856 142.253 7.61902 143.645 7.61902C144.942 7.61902 146.089 7.75238 147.104 7.99999C148.119 8.24761 148.965 8.66666 149.661 9.21904C150.357 9.77142 150.883 10.5143 151.24 11.4476C151.598 12.3619 151.767 13.5048 151.767 14.819V29.0666H146.841V15.5428C146.841 14.9333 146.803 14.4 146.747 13.9428C146.69 13.4857 146.54 13.1047 146.314 12.8C146.089 12.4952 145.732 12.2666 145.28 12.1143C144.81 11.9619 144.19 11.8857 143.4 11.8857C142.667 11.8857 142.084 11.9619 141.652 12.0952C141.219 12.2286 140.881 12.419 140.636 12.7048C140.373 12.9714 140.223 13.3143 140.147 13.6952C140.072 14.0952 140.035 14.5714 140.035 15.1047V29.0666H135.109V15.5428C135.109 14.9333 135.071 14.4 135.015 13.9428C134.958 13.4857 134.789 13.1047 134.563 12.8C134.319 12.4952 133.981 12.2666 133.529 12.1143C133.078 11.9619 132.458 11.8857 131.668 11.8857C130.878 11.8857 130.258 11.9619 129.807 12.1143C129.355 12.2666 129.017 12.4952 128.791 12.8C128.566 13.1047 128.415 13.4857 128.359 13.9428C128.303 14.4 128.265 14.9333 128.265 15.5428V29.0666H123.264Z" fill="white"/>
<path d="M160.301 8.26685H155.375V29.0668H160.301V8.26685Z" fill="white"/>
<path d="M163.949 29.0668V14.8953C163.949 13.5811 164.118 12.4572 164.476 11.5239C164.833 10.5906 165.378 9.82866 166.111 9.25723C166.845 8.6858 167.785 8.26678 168.913 8.00011C170.06 7.73344 171.395 7.6001 172.974 7.6001C176.114 7.6001 178.389 8.15247 179.818 9.25723C181.247 10.362 181.961 12.2287 181.961 14.8763V29.0477H177.035V15.5239C177.035 14.9144 176.997 14.3811 176.922 13.9239C176.847 13.4668 176.678 13.0858 176.415 12.7811C176.151 12.4763 175.738 12.2477 175.193 12.0953C174.647 11.943 173.914 11.8668 172.974 11.8668C172.034 11.8668 171.301 11.943 170.755 12.0953C170.21 12.2477 169.796 12.4763 169.514 12.7811C169.232 13.0858 169.063 13.4668 168.988 13.9239C168.913 14.3811 168.875 14.9144 168.875 15.5239V29.0477H163.949V29.0668Z" fill="white"/>
<path d="M194.24 11.543C193.375 11.543 192.679 11.6191 192.153 11.7715C191.626 11.9239 191.213 12.1906 190.912 12.5715C190.611 12.9525 190.404 13.4858 190.31 14.1334C190.216 14.7811 190.16 15.6191 190.16 16.6287H198.32V15.7144C198.32 14.9334 198.263 14.2858 198.131 13.7525C198 13.2191 197.793 12.8001 197.492 12.4763C197.191 12.1525 196.778 11.9239 196.233 11.7715C195.687 11.6191 195.029 11.543 194.24 11.543ZM190.16 20.4191C190.16 21.3715 190.216 22.1715 190.31 22.781C190.404 23.3906 190.611 23.8858 190.931 24.2286C191.25 24.5715 191.683 24.8191 192.247 24.9525C192.811 25.0858 193.544 25.143 194.446 25.143H197.473C198.62 25.143 200.012 25.1239 201.685 25.0667L200.933 29.0668C200.218 29.0858 199.598 29.1049 199.034 29.1239C198.47 29.1429 197.943 29.1429 197.417 29.1429H195.875H194.202C192.397 29.1429 190.931 28.9334 189.765 28.4953C188.599 28.0763 187.678 27.4477 187.02 26.6477C186.343 25.8477 185.873 24.8763 185.61 23.7144C185.346 22.5525 185.215 21.2191 185.215 19.7334V17.4858C185.215 15.8858 185.346 14.4763 185.628 13.2382C185.911 12.0192 186.399 10.9715 187.095 10.1334C187.791 9.29533 188.731 8.66676 189.896 8.22867C191.062 7.79057 192.566 7.58105 194.352 7.58105C196.026 7.58105 197.398 7.77154 198.508 8.15249C199.598 8.53344 200.482 9.0858 201.159 9.77152C201.835 10.4572 202.305 11.2953 202.587 12.2287C202.869 13.1811 203.001 14.2096 203.001 15.3334V16.0191C203.001 16.9334 202.945 17.6572 202.851 18.2477C202.757 18.8191 202.587 19.2763 202.343 19.5811C202.099 19.8858 201.798 20.1144 201.422 20.2287C201.046 20.343 200.576 20.3811 200.012 20.3811H190.16V20.4191Z" fill="white"/>
<path d="M160.301 2.57166V6.40021H155.375V3.25737L160.301 2.57166Z" fill="#A9A9A9"/>
</svg>
