<svg width="130" height="32" viewBox="0 0 130 32" fill="none" xmlns="http://www.w3.org/2000/svg">
<g clip-path="url(#clip0_1704_3234)">
<path d="M68.9829 8.14619C64.3301 8.14619 61.4539 10.8332 60.1264 13.7737H59.8255V0.5H54.9824V31.031H59.8255V26.4328H60.1242C61.6774 29.3532 64.5558 31.4526 68.7108 31.4526C75.9832 31.4526 79.8948 26.6863 79.8948 19.74C79.793 12.336 75.8349 8.22245 68.9851 8.14619H68.9829ZM67.62 27.0453C63.0137 27.0834 59.8234 24.7753 59.8234 20.0539V19.6906C59.8234 14.8773 62.6707 12.5177 67.7107 12.5177C72.4808 12.5177 75.1756 14.3793 75.2265 19.8274C75.2929 26.9443 69.8878 27.0273 67.62 27.0453Z" fill="white"/>
<path d="M18.5801 31.0286V8.5813H23.4232V31.0309H18.5801V31.0286Z" fill="white"/>
<path d="M27.7148 31.0288V8.58132H32.5579V13.7737H32.8677C34.8942 9.67812 37.3612 8.11255 41.5715 8.16189C47.6845 8.2359 50.6891 12.3584 50.6891 17.5463V31.0309H45.8437V18.8562C45.8437 14.6597 44.0428 12.5401 39.4851 12.5401C34.6 12.5401 32.5579 16.4877 32.5579 19.5919V31.0288H27.7148Z" fill="white"/>
<path d="M82.7988 31.0286V8.5813H87.6441V31.0309H82.7988V31.0286Z" fill="white"/>
<path d="M101.405 31.0287C96.6531 31.0287 93.726 28.9091 93.726 23.4453V12.659H89.998V8.58136H93.726V3.66931H98.4784V8.57463H106.468V12.6523H98.4784V23.174C98.4784 25.9305 99.7195 26.6505 102.474 26.6505H106.468V31.0287H101.405Z" fill="white"/>
<path d="M122.44 18.6118L117.385 17.8962C114.087 17.441 113.208 16.8129 113.208 15.0566C113.208 12.9416 114.613 12.0399 118.616 12.0399C123.335 12.0399 124.707 13.379 124.764 15.9135H129.457C129.291 10.8041 125.293 8.16187 118.746 8.16187C112.199 8.16187 108.549 10.9588 108.549 14.875C108.549 18.7912 111.056 20.4173 115.191 20.9579L121.167 21.7699C124.286 22.2251 125.344 22.8082 125.344 24.6542C125.344 26.637 124.065 27.5387 119.801 27.5387C115.268 27.5387 113.547 26.6011 113.518 23.7257H108.786C108.934 28.7185 112.905 31.4548 119.804 31.4548C125.959 31.4548 130.001 28.9719 130.001 24.7865C130.001 21.0902 127.631 19.2891 122.439 18.6072L122.448 18.6163L122.44 18.6118Z" fill="white"/>
<path d="M3.36959 31.0288V12.668H0V8.58135H3.41604C3.95367 3.61548 7.68389 0.504517 14.0204 0.504517H16.2218V4.56425H13.2548C9.70386 4.56425 7.95159 5.45694 8.1308 8.57911H16.2195V12.6658H8.22373V31.0264H3.36959V31.0288Z" fill="white"/>
<path d="M126.897 5.69697C128.313 5.69697 129.46 4.53411 129.46 3.09965C129.46 1.66518 128.313 0.502319 126.897 0.502319C125.483 0.502319 124.336 1.66518 124.336 3.09965C124.336 4.53411 125.483 5.69697 126.897 5.69697Z" fill="white"/>
<path d="M85.2203 5.69697C86.6352 5.69697 87.7824 4.53411 87.7824 3.09965C87.7824 1.66518 86.6352 0.502319 85.2203 0.502319C83.8053 0.502319 82.6582 1.66518 82.6582 3.09965C82.6582 4.53411 83.8053 5.69697 85.2203 5.69697Z" fill="white"/>
<path d="M20.9936 5.69697C22.4086 5.69697 23.5557 4.53411 23.5557 3.09965C23.5557 1.66518 22.4086 0.502319 20.9936 0.502319C19.5786 0.502319 18.4316 1.66518 18.4316 3.09965C18.4316 4.53411 19.5786 5.69697 20.9936 5.69697Z" fill="white"/>
</g>
<defs>
<clipPath id="clip0_1704_3234">
<rect width="130" height="31" fill="white" transform="translate(0 0.5)"/>
</clipPath>
</defs>
</svg>
