<svg width="185" height="38" viewBox="0 0 185 38" fill="none" xmlns="http://www.w3.org/2000/svg">
<g clip-path="url(#clip0_1704_3224)">
<path d="M70.339 27.9247V30.1559H60.2239C60.0622 30.1559 59.9185 30.0688 59.8466 29.9642L57.8883 26.7743C57.8523 26.7045 57.8164 26.6348 57.8164 26.5651V7.4082H60.7809C60.7809 7.4082 60.8168 7.4082 60.8527 7.4082C60.9426 7.42563 61.0863 7.49536 61.1582 7.61738L61.9846 8.97701C62.0565 9.0816 62.0565 9.18618 62.0565 9.18618V24.3688C62.0565 24.4559 62.0744 24.5256 62.1283 24.5779L62.9548 25.9376C63.0267 26.0596 63.1704 26.1467 63.3321 26.1467H69.0454C69.2071 26.1467 69.3508 26.2339 69.4227 26.3559L70.2491 27.7155C70.321 27.7678 70.339 27.855 70.339 27.9247Z" fill="white"/>
<path d="M114.5 12.9338V28.465C114.5 28.5173 114.518 28.5696 114.554 28.6045L115.38 29.9641C115.452 30.0861 115.596 30.1558 115.758 30.1733H118.722V16.943H125.046V28.3953C125.046 28.465 125.064 28.5347 125.118 28.587L125.945 29.9641C126.016 30.0861 126.16 30.1733 126.322 30.1733H129.286V16.9604H135.593V28.4127C135.593 28.4824 135.611 28.5696 135.664 28.6219L136.491 29.9815C136.563 30.1035 136.706 30.1733 136.868 30.1907H139.815V16.5421C139.815 16.5421 139.815 16.4026 139.761 16.3155C139.455 15.7925 137.982 13.4219 137.784 13.0907C137.659 12.9164 137.443 12.9164 137.425 12.9164H114.5V12.9338Z" fill="white"/>
<path d="M148.277 12.9338H162.183C162.345 12.9338 162.471 13.021 162.543 13.143L164.501 16.3155C164.537 16.3852 164.573 16.4549 164.573 16.5421V30.1733H161.662C161.501 30.1733 161.357 30.0861 161.285 29.9641L160.459 28.6219C160.423 28.5696 160.405 28.4999 160.387 28.4302V18.7559C160.387 18.6338 160.369 18.5641 160.333 18.5118L159.488 17.1522C159.417 17.0302 159.291 16.9604 159.129 16.943H152.517V30.1559H149.553C149.391 30.1559 149.248 30.0687 149.176 29.9467L148.349 28.6045C148.313 28.5522 148.295 28.5173 148.295 28.4476V12.9338H148.277Z" fill="white"/>
<path d="M146.353 9.16875C146.353 9.16875 145.419 7.65224 145.419 7.63481C145.329 7.49536 145.168 7.4082 144.988 7.4082H143.101C142.922 7.4082 142.76 7.49536 142.67 7.63481L141.736 9.15132C141.7 9.22105 141.664 9.3082 141.664 9.39536C141.664 9.48251 141.7 9.56967 141.736 9.6394L142.67 11.1559C142.76 11.2954 142.922 11.3825 143.101 11.3825H144.97C145.15 11.3825 145.311 11.2954 145.401 11.1559L146.335 9.6394C146.389 9.5871 146.425 9.49995 146.425 9.41279C146.425 9.32563 146.389 9.23848 146.353 9.16875Z" fill="white"/>
<path d="M146.156 14.7118C146.156 14.7118 146.156 14.6072 146.084 14.5026L145.257 13.1604L145.239 13.143L145.203 13.0733C145.203 13.0559 145.186 13.0559 145.186 13.0559C145.168 13.0384 145.168 13.0384 145.15 13.021C145.15 13.021 145.132 13.021 145.132 13.0036C145.114 12.9861 145.096 12.9861 145.06 12.9687H145.042C145.042 12.9687 144.988 12.9513 144.97 12.9513C144.952 12.9513 144.952 12.9338 144.934 12.9338H144.88H141.934V26.565C141.934 26.6522 141.952 26.7219 142.005 26.7742L143.964 29.9641C144.036 30.0861 144.179 30.1559 144.341 30.1559H146.174V14.7118H146.156Z" fill="white"/>
<path d="M108.679 24.3689C108.679 24.456 108.643 24.5257 108.607 24.578L107.78 25.9377C107.709 26.0597 107.565 26.1468 107.403 26.1468H98.438C98.2763 26.1468 98.1325 26.0597 98.0607 25.9377C98.0607 25.9377 97.2342 24.5955 97.2342 24.578C97.1983 24.5083 97.1623 24.4386 97.1623 24.3689V18.7211C97.1623 18.634 97.1803 18.5643 97.2342 18.4945L98.0607 17.1349C98.1325 17.0129 98.2763 16.9257 98.438 16.9257H107.421C107.583 16.9257 107.727 17.0129 107.798 17.1349L108.625 18.4945C108.661 18.5643 108.697 18.634 108.697 18.7211V24.3689H108.679ZM112.362 26.5477V25.9202V16.5248C112.362 16.4551 112.344 16.3854 112.308 16.3156L110.368 13.1432C110.296 13.0037 110.134 12.934 109.972 12.934H97.1444V9.18628C97.1444 9.16885 97.1444 9.08169 97.0725 8.95968L96.246 7.60004C96.1742 7.47803 96.0305 7.4083 95.9406 7.39087C95.9047 7.39087 95.8688 7.39087 95.8688 7.39087H92.9043V26.5129C92.9043 26.6175 92.9223 26.6698 92.9762 26.7569C92.9941 26.7918 93.0121 26.8092 93.0121 26.8092L94.9345 29.9468C95.0064 30.0689 95.1501 30.1386 95.3118 30.1386H109.954C110.116 30.1386 110.26 30.0514 110.332 29.9468L112.29 26.7395C112.38 26.6349 112.362 26.5477 112.362 26.5477Z" fill="white"/>
<path d="M170.896 16.943H180.13C180.274 16.9604 180.4 17.0301 180.472 17.1522L181.298 18.5118C181.334 18.5641 181.352 18.6338 181.37 18.721V20.5164H172.171C172.009 20.5164 171.866 20.4292 171.794 20.3072L170.967 18.9476C170.931 18.8778 170.896 18.8081 170.896 18.721V16.943ZM166.691 12.9164V26.5476C166.691 26.6347 166.709 26.7045 166.763 26.7742L168.722 29.9641C168.74 29.999 168.758 30.0164 168.793 30.0512C168.883 30.121 168.991 30.1733 169.099 30.1733H184.999V27.9421C184.999 27.8549 184.981 27.7852 184.927 27.7329L184.101 26.3733C184.029 26.2512 183.885 26.1641 183.724 26.1641H172.153C172.009 26.1467 171.866 26.0769 171.812 25.9723L170.985 24.6127C170.949 24.543 170.914 24.4733 170.914 24.3861V23.532H183.113C183.346 23.532 183.562 23.41 183.67 23.2356L184.891 21.2485C184.945 21.1613 184.981 21.0393 184.981 20.9347V16.5072C184.981 16.5072 184.981 16.4201 184.945 16.3503C184.802 16.1237 182.951 13.1256 182.951 13.1256C182.879 13.0035 182.753 12.9338 182.574 12.9338H166.691V12.9164Z" fill="white"/>
<path d="M86.5802 26.1467H77.3275C77.1838 26.1292 77.058 26.0595 76.9861 25.9375L76.1597 24.5779C76.1237 24.5256 76.1058 24.4558 76.1058 24.3687V22.5733H84.3344H85.3046C85.4663 22.5733 85.61 22.6604 85.6819 22.7824L86.5083 24.1421C86.5443 24.2118 86.5802 24.2815 86.5802 24.3512V26.1467ZM90.7843 30.1558V16.5246C90.7843 16.4375 90.7664 16.3678 90.7125 16.298L88.826 13.2301L88.7541 13.1256C88.7362 13.0907 88.7182 13.0733 88.6823 13.0384C88.6104 12.9687 88.5026 12.9164 88.3768 12.9164H72.4766V15.165C72.4766 15.2522 72.4945 15.3219 72.5484 15.3742L73.3749 16.7338C73.4467 16.8558 73.5905 16.943 73.7522 16.943H85.3225C85.4663 16.9604 85.61 17.0301 85.6639 17.1347L86.4903 18.4944C86.5263 18.5641 86.5622 18.6338 86.5622 18.721V19.5577H74.363C74.1295 19.5577 73.9139 19.6797 73.8061 19.854L72.5844 21.8412C72.5305 21.9283 72.4945 22.0503 72.4945 22.1549V26.5824C72.4945 26.5824 72.4945 26.6696 72.5305 26.7393C72.6742 26.9659 74.5247 29.9641 74.5247 29.9641C74.5966 30.0861 74.7403 30.1558 74.902 30.1558H90.7843Z" fill="white"/>
<path d="M41.5563 19.8193L39.4542 23.2532H30.4351L27.5784 18.5817V11.8532H30.1117V8.71562H24.2546V19.4184L26.6082 23.2532H18.5952L20.9488 19.4184V8.71562H15.0558V11.8532H17.6071V18.5991L14.7324 23.2532H5.71331L3.61125 19.8193C3.46751 19.5753 3.39565 19.2964 3.39565 19C3.39565 18.7037 3.46751 18.4248 3.61125 18.1808L12.3429 3.93947C12.6663 3.4514 13.2412 3.12021 13.906 3.12021H31.2795C31.9443 3.12021 32.5192 3.4514 32.8426 3.93947L41.5742 18.1808C41.718 18.4248 41.7898 18.7037 41.7898 19C41.7719 19.2964 41.7 19.5753 41.5563 19.8193ZM34.9446 30.6092L32.3395 26.3734H37.5318L34.9446 30.6092ZM15.0019 29.0578L16.6549 26.3734H28.5127L30.1656 29.0578H15.0019ZM32.8246 34.0606C32.5012 34.5487 31.9263 34.8798 31.2615 34.8798H13.888C13.2233 34.8798 12.6483 34.5487 12.3249 34.0606L12.1273 33.7468L13.0795 32.2129H32.07L33.0222 33.7468L32.8246 34.0606ZM10.2229 30.6092L7.63572 26.3734H12.828L10.2229 30.6092ZM44.4668 16.6817L35.5735 2.21379C34.747 0.906447 33.2378 0.0174561 31.5131 0.0174561H13.6365C11.9117 0.0348872 10.4025 0.906447 9.57609 2.23122C9.57609 2.23122 0.700689 16.6991 0.682723 16.6991C0.25153 17.3615 0 18.1459 0 19C0 19.8542 0.25153 20.656 0.700689 21.3532L9.57609 35.8211C10.4025 37.1285 11.9297 38.0175 13.6724 38.0175H31.4771C33.2199 38.0175 34.747 37.1285 35.5735 35.8211L44.4489 21.3707V21.3532C44.898 20.6734 45.1496 19.8716 45.1496 19C45.1675 18.1459 44.898 17.3615 44.4668 16.6817Z" fill="#C3C3C3"/>
</g>
<defs>
<clipPath id="clip0_1704_3224">
<rect width="185" height="38" fill="white"/>
</clipPath>
</defs>
</svg>
